<svg width="2167" height="1015" viewBox="0 0 2167 1015" fill="none" xmlns="http://www.w3.org/2000/svg">
<g clip-path="url(#clip0)">
<rect x="0.000244141" y="508" width="2166.13" height="507" fill="#C4C4C4"/>
<rect x="-166.664" y="550.042" width="1446.43" height="426.42" rx="48" fill="white"/>
<path d="M1021.89 649.095L1054.53 703.33C1057.6 708.426 1062.6 712.06 1068.39 713.402L1130.06 727.684C1132.97 728.357 1134.12 731.884 1132.16 734.138L1090.66 781.939C1086.77 786.43 1084.85 792.311 1085.37 798.236L1090.84 861.297C1091.1 864.271 1088.1 866.45 1085.35 865.286L1027.07 840.594C1021.59 838.274 1015.41 838.274 1009.93 840.594L951.649 865.286C948.9 866.45 945.9 864.271 946.158 861.297L951.631 798.236C952.145 792.311 950.235 786.43 946.336 781.939L904.842 734.138C902.885 731.884 904.031 728.357 906.939 727.684L968.605 713.402C974.399 712.06 979.401 708.426 982.468 703.33L1015.11 649.095C1016.65 646.538 1020.35 646.538 1021.89 649.095Z" stroke="#C4C4C4" stroke-width="18.0025" stroke-linecap="round" stroke-linejoin="round"/>
<path d="M0.000244141 0H2033.5C2106.75 0 2166.13 59.3808 2166.13 132.631V508H0.000244141V0Z" fill="#757575"/>
<circle cx="1864.59" cy="254" r="118.367" fill="#404040"/>
<circle cx="1177.91" cy="254" r="118.367" fill="#404040"/>
<circle cx="1524.25" cy="254" r="118.367" fill="#404040"/>
<circle cx="1073" cy="818" r="59.5" fill="#C4C4C4" stroke="white" stroke-width="11"/>
<path d="M1066.5 848.72V826.64H1045.38V814.16H1066.5V792.08H1079.46V814.16H1100.58V826.64H1079.46V848.72H1066.5Z" fill="white"/>
<circle cx="1559.79" cy="761.5" r="151.149" fill="#E9CBA3" stroke="black" stroke-width="0.500493"/>
<path d="M1622.85 752.742C1622.85 762.568 1616.39 772.053 1604.69 779.276C1593.06 786.462 1576.75 791.029 1558.54 791.029C1540.32 791.029 1524.01 786.462 1512.38 779.276C1500.68 772.053 1494.22 762.568 1494.22 752.742C1494.22 742.915 1500.68 733.43 1512.38 726.207C1524.01 719.021 1540.32 714.454 1558.54 714.454C1576.75 714.454 1593.06 719.021 1604.69 726.207C1616.39 733.43 1622.85 742.915 1622.85 752.742Z" fill="black" stroke="black" stroke-width="7.5074"/>
<path d="M1535.98 766.705L1540.36 756.556L1551.97 748.635L1558.75 739.229L1567.95 750.615L1576.71 756.556L1581.09 766.705C1581.16 774.461 1626.08 805.326 1654.63 808.297H1473.45C1502 805.326 1535.91 774.461 1535.98 766.705Z" fill="#F2A8C3" stroke="#F2A8C3" stroke-width="4.50444"/>
<path d="M1675.1 795.863L1614.59 790.279L1648.57 813.353L1681.16 815.303L1675.1 795.863Z" fill="#E9CBA3"/>
<path d="M1511.99 785.273H1423.9L1428.66 808.767L1470.95 816.554L1511.99 785.273Z" fill="#E9CBA3"/>
<path d="M1462.44 680.921C1452.83 680.921 1428.74 714.287 1417.9 730.97L1442.42 677.668L1484.96 636.627L1557.78 617.859L1607.83 627.619L1645.87 648.639L1683.66 686.176L1698.67 730.97C1687.83 714.287 1663.74 680.921 1654.13 680.921C1644.52 680.921 1623.6 682.589 1614.34 683.423L1595.82 680.921C1603.83 673.163 1617.44 657.348 1607.83 656.147C1598.22 654.945 1573.3 662.319 1562.04 666.156L1554.53 666.156C1543.27 662.319 1518.35 654.945 1508.74 656.147C1499.13 657.348 1512.74 673.163 1520.75 680.921L1502.23 683.423C1492.97 682.589 1472.05 680.921 1462.44 680.921Z" fill="#C47233"/>
<path d="M1497.23 676.184C1494.47 678.184 1487.24 683.017 1483.96 685.184H1490.35C1494.93 688.518 1505.18 695.185 1509.51 695.185C1514.91 695.185 1519.33 693.185 1522.77 691.685C1525.52 690.484 1531.12 692.185 1533.58 693.185L1537.01 686.684C1535.54 685.517 1530.73 682.084 1523.26 677.684C1515.79 673.283 1511.96 672.517 1510.98 672.683C1507.54 673.017 1499.98 674.183 1497.23 676.184Z" fill="black" stroke="black" stroke-width="3.50345" stroke-linejoin="round"/>
<path d="M1621.85 676.184C1624.6 678.184 1631.84 683.017 1635.11 685.184H1628.73C1624.14 688.518 1613.89 695.185 1609.57 695.185C1604.16 695.185 1599.74 693.185 1596.3 691.685C1593.55 690.484 1587.95 692.185 1585.5 693.185L1582.06 686.684C1583.53 685.517 1588.35 682.084 1595.81 677.684C1603.28 673.283 1607.11 672.517 1608.09 672.683C1611.53 673.017 1619.1 674.183 1621.85 676.184Z" fill="black" stroke="black" stroke-width="3.50345" stroke-linejoin="round"/>
<ellipse cx="1559.54" cy="848.085" rx="101.6" ry="64.8139" fill="#F2A8C3"/>
<path d="M1580.56 757.997C1580.39 760.332 1581.31 766.105 1586.31 770.509C1592.57 776.014 1598.83 781.019 1608.58 787.275C1618.34 793.532 1643.12 809.547 1648.12 816.304C1653.13 823.061 1657.38 826.564 1660.64 838.576C1663.24 848.185 1658.72 862.099 1656.13 867.855" stroke="#EF5E92" stroke-width="10.0099"/>
<path d="M1536.79 757.747C1536.96 760.082 1536.04 765.855 1531.04 770.259C1524.78 775.764 1518.53 780.769 1508.77 787.025C1499.01 793.282 1474.23 809.297 1469.23 816.054C1464.22 822.811 1459.97 826.314 1456.72 838.326C1454.11 847.935 1458.63 861.849 1461.22 867.605" stroke="#EF5E92" stroke-width="10.0099"/>
<path d="M1556.28 734.223C1556.28 740.043 1552.45 745.899 1545.02 750.495C1537.64 755.054 1527.21 757.997 1515.49 757.997C1503.78 757.997 1493.35 755.054 1485.97 750.495C1478.53 745.899 1474.7 740.043 1474.7 734.223C1474.7 728.404 1478.53 722.548 1485.97 717.952C1493.35 713.393 1503.78 710.45 1515.49 710.45C1527.21 710.45 1537.64 713.393 1545.02 717.952C1552.45 722.548 1556.28 728.404 1556.28 734.223Z" fill="#E9CBA3" stroke="black" stroke-width="7.5074"/>
<path d="M1641.87 734.223C1641.87 740.043 1638.04 745.899 1630.6 750.495C1623.22 755.054 1612.79 757.997 1601.08 757.997C1589.36 757.997 1578.93 755.054 1571.55 750.495C1564.12 745.899 1560.29 740.043 1560.29 734.223C1560.29 728.404 1564.12 722.548 1571.55 717.952C1578.93 713.393 1589.36 710.45 1601.08 710.45C1612.79 710.45 1623.22 713.393 1630.6 717.952C1638.04 722.548 1641.87 728.404 1641.87 734.223Z" fill="#E9CBA3" stroke="black" stroke-width="7.5074"/>
<path d="M1595.82 776.266C1576.55 760.25 1559.79 773.013 1559.79 773.013C1559.79 773.013 1543.02 759.249 1521 776.266" stroke="#EF5E92" stroke-width="10.0099" stroke-linejoin="round"/>
<path d="M1602.58 772.261C1583.09 757.847 1560.05 765.054 1560.05 765.054C1560.05 765.054 1535.25 757.847 1514.74 772.261" stroke="black" stroke-width="7.5074" stroke-linejoin="round"/>
<path d="M1557.78 736.976L1591.82 764.253L1573.55 762.001L1559.54 767.756L1544.52 762.001L1526.75 764.253L1557.78 736.976Z" fill="black"/>
<rect x="1460.44" y="702.192" width="199.196" height="37.0365" fill="#E9CBA3"/>
<path d="M1528.26 734.474C1528.26 741.28 1548.61 740.479 1558.79 739.228C1568.96 740.479 1589.32 741.28 1589.32 734.474C1589.32 725.965 1582.06 714.704 1574.05 714.704H1543.52C1535.51 714.704 1528.26 725.965 1528.26 734.474Z" fill="black" stroke="black" stroke-width="0.500493"/>
<circle cx="1559.79" cy="761.5" r="145.143" stroke="black" stroke-width="12.5123"/>
<ellipse cx="1603.83" cy="678.668" rx="2.75271" ry="2.00197" fill="white"/>
<ellipse cx="1603.83" cy="678.668" rx="2.75271" ry="2.00197" fill="white"/>
<ellipse cx="1603.83" cy="678.668" rx="2.75271" ry="2.00197" fill="white"/>
<ellipse cx="1503.23" cy="678.668" rx="2.75271" ry="2.00197" fill="white"/>
<ellipse cx="1503.23" cy="678.668" rx="2.75271" ry="2.00197" fill="white"/>
<ellipse cx="1503.23" cy="678.668" rx="2.75271" ry="2.00197" fill="white"/>
<ellipse cx="1559.54" cy="851.589" rx="86.0848" ry="34.7843" fill="white" fill-opacity="0.2"/>
<path d="M1602.77 838.576C1602.77 814.286 1583.08 794.595 1558.79 794.595C1534.5 794.595 1514.8 814.286 1514.8 838.576C1514.8 862.866 1534.5 882.557 1558.79 882.557C1583.08 882.557 1602.77 862.866 1602.77 838.576Z" stroke="#EF5E92" stroke-width="8.00789"/>
<path d="M1552.94 848.03C1552.94 846.621 1552.51 845.46 1551.64 844.548C1550.77 843.62 1549.33 842.791 1547.31 842.062C1545.29 841.316 1543.71 840.628 1542.59 839.998C1538.85 837.925 1536.99 834.858 1536.99 830.797C1536.99 828.044 1537.8 825.782 1539.42 824.008C1541.04 822.234 1542.75 821.231 1545.53 820.899V815.428H1549.86V820.899C1552.65 821.314 1554.81 822.54 1556.33 824.58C1557.86 826.602 1558.62 829.238 1558.62 832.488H1552.79C1552.79 830.399 1552.34 828.757 1551.42 827.564C1550.52 826.354 1549.3 825.748 1547.74 825.748C1546.2 825.748 1545 826.179 1544.13 827.041C1543.27 827.904 1542.83 829.139 1542.83 830.747C1542.83 832.189 1543.26 833.35 1544.11 834.228C1544.97 835.09 1546.43 835.911 1548.49 836.69C1550.54 837.469 1552.15 838.191 1553.32 838.854C1554.49 839.517 1555.48 840.279 1556.28 841.142C1557.09 841.987 1557.7 842.965 1558.14 844.076C1558.57 845.187 1558.79 846.488 1558.79 847.98C1558.79 850.782 1557.95 853.053 1556.28 854.794C1554.63 856.535 1552.63 857.587 1549.66 857.903V861.724H1545.53V857.903C1542.35 857.538 1539.9 856.361 1538.19 854.371C1536.49 852.382 1535.64 849.746 1535.64 846.463H1541.49C1541.49 848.552 1541.99 850.169 1543 851.312C1544.03 852.456 1545.47 853.028 1547.33 853.028C1549.16 853.028 1550.55 852.573 1551.49 851.661C1552.46 850.749 1552.94 849.539 1552.94 848.03Z" fill="#EF5E92"/>
<path d="M1570.36 834.718H1566.5V846.292H1570.36V834.718Z" fill="#EF5E92"/>
<path d="M1578.08 830.86H1574.22V850.15H1578.08V830.86Z" fill="#EF5E92"/>
<path d="M1585.79 827.002H1581.93V854.008H1585.79V827.002Z" fill="#EF5E92"/>
<rect x="1581.47" y="796.466" width="158.067" height="158.067" rx="11.0309" fill="#EF5E92" stroke="#C4C4C4" stroke-width="12.9327"/>
<path d="M1653.16 931.3V918.3C1649.35 917.867 1645.32 916.827 1641.07 915.18C1636.91 913.447 1633.32 911.193 1630.28 908.42L1638.6 895.55C1641.9 898.063 1645.02 899.97 1647.96 901.27C1651 902.483 1654.07 903.09 1657.19 903.09C1660.83 903.09 1663.48 902.353 1665.12 900.88C1666.86 899.407 1667.72 897.153 1667.72 894.12C1667.72 891.867 1666.86 889.96 1665.12 888.4C1663.48 886.84 1661.35 885.367 1658.75 883.98C1656.24 882.507 1653.51 881.077 1650.56 879.69C1647.62 878.217 1644.84 876.483 1642.24 874.49C1639.73 872.497 1637.61 870.157 1635.87 867.47C1634.23 864.783 1633.4 861.49 1633.4 857.59C1633.4 851.177 1635.14 845.89 1638.6 841.73C1642.16 837.483 1647.01 834.753 1653.16 833.54V820.15H1665.77V833.28C1669.93 833.887 1673.57 835.143 1676.69 837.05C1679.81 838.957 1682.63 841.253 1685.14 843.94L1675.52 854.86C1673.18 852.693 1670.93 851.09 1668.76 850.05C1666.6 848.923 1664.13 848.36 1661.35 848.36C1658.23 848.36 1655.85 849.01 1654.2 850.31C1652.56 851.61 1651.73 853.733 1651.73 856.68C1651.73 858.76 1652.56 860.537 1654.2 862.01C1655.94 863.397 1658.06 864.74 1660.57 866.04C1663.17 867.34 1665.95 868.683 1668.89 870.07C1671.84 871.457 1674.57 873.147 1677.08 875.14C1679.68 877.133 1681.81 879.56 1683.45 882.42C1685.19 885.193 1686.05 888.66 1686.05 892.82C1686.05 899.06 1684.36 904.433 1680.98 908.94C1677.6 913.36 1672.53 916.307 1665.77 917.78V931.3H1653.16Z" fill="white"/>
</g>
<defs>
<clipPath id="clip0">
<rect width="2166.13" height="1015" fill="white"/>
</clipPath>
</defs>
</svg>
