<svg width="2167" height="1015" viewBox="0 0 2167 1015" fill="none" xmlns="http://www.w3.org/2000/svg">
<g clip-path="url(#clip0)">
<rect x="0.000106812" y="508" width="2166.13" height="507" fill="#C4C4C4"/>
<rect x="-166.664" y="550.042" width="1446.43" height="426.42" rx="48" fill="white"/>
<path d="M1049.73 633.55L1072.69 704.203C1076.77 716.77 1088.48 725.278 1101.69 725.278H1175.98C1181.31 725.278 1183.53 732.096 1179.22 735.228L1119.12 778.894C1108.43 786.661 1103.95 800.427 1108.04 812.994L1130.99 883.648C1132.64 888.715 1126.84 892.929 1122.53 889.797L1062.43 846.131C1051.74 838.364 1037.26 838.364 1026.57 846.131L966.471 889.797C962.161 892.929 956.361 888.715 958.007 883.648L980.964 812.994C985.047 800.427 980.574 786.661 969.884 778.894L909.783 735.228C905.472 732.096 907.688 725.278 913.016 725.278H987.305C1000.52 725.278 1012.23 716.77 1016.31 704.203L1039.27 633.55C1040.92 628.482 1048.08 628.482 1049.73 633.55Z" stroke="#C4C4C4" stroke-width="25" stroke-linecap="round" stroke-linejoin="round"/>
<path d="M0.000106812 0H2033.5C2106.75 0 2166.13 59.3808 2166.13 132.631V508H0.000106812V0Z" fill="#757575"/>
<circle cx="1864.59" cy="254" r="118.367" fill="#404040"/>
<circle cx="1177.91" cy="254" r="118.367" fill="#404040"/>
<circle cx="1524.25" cy="254" r="118.367" fill="#404040"/>
<circle cx="1560.25" cy="762.25" r="151" fill="#E9CBA3" stroke="black" stroke-width="0.5"/>
<path d="M1463 681.75C1453.4 681.75 1429.33 715.083 1418.5 731.75L1443 678.5L1485.5 637.5L1558.25 618.75L1608.25 628.5L1646.25 649.5L1684 687L1699 731.75C1688.17 715.083 1664.1 681.75 1654.5 681.75C1644.9 681.75 1624 683.417 1614.75 684.25L1596.25 681.75C1604.25 674 1617.85 658.2 1608.25 657C1598.65 655.8 1573.75 663.167 1562.5 667L1555 667C1543.75 663.167 1518.85 655.8 1509.25 657C1499.65 658.2 1513.25 674 1521.25 681.75L1502.75 684.25C1493.5 683.417 1472.6 681.75 1463 681.75Z" fill="#C47233"/>
<path d="M1497.75 677.017C1495 679.016 1487.77 683.845 1484.5 686.009H1490.88C1495.46 689.339 1505.7 696 1510.02 696C1515.42 696 1519.83 694.002 1523.27 692.503C1526.02 691.304 1531.61 693.003 1534.06 694.002L1537.5 687.508C1536.03 686.342 1531.22 682.912 1523.76 678.516C1516.3 674.12 1512.47 673.354 1511.49 673.521C1508.06 673.854 1500.5 675.019 1497.75 677.017Z" fill="black" stroke="black" stroke-width="3.5" stroke-linejoin="round"/>
<path d="M1622.25 677.017C1625 679.016 1632.23 683.845 1635.5 686.009H1629.12C1624.54 689.339 1614.3 696 1609.98 696C1604.58 696 1600.17 694.002 1596.73 692.503C1593.98 691.304 1588.39 693.003 1585.94 694.002L1582.5 687.508C1583.97 686.342 1588.78 682.912 1596.24 678.516C1603.7 674.12 1607.53 673.354 1608.51 673.521C1611.94 673.854 1619.5 675.019 1622.25 677.017Z" fill="black" stroke="black" stroke-width="3.5" stroke-linejoin="round"/>
<path d="M1555.5 735C1555.5 740.22 1552.06 745.729 1544.84 750.192C1537.69 754.606 1527.51 757.5 1516 757.5C1504.49 757.5 1494.31 754.606 1487.16 750.192C1479.94 745.729 1476.5 740.22 1476.5 735C1476.5 729.78 1479.94 724.271 1487.16 719.808C1494.31 715.394 1504.49 712.5 1516 712.5C1527.51 712.5 1537.69 715.394 1544.84 719.808C1552.06 724.271 1555.5 729.78 1555.5 735Z" fill="#E9CBA3" stroke="black" stroke-width="10"/>
<path d="M1641 735C1641 740.22 1637.56 745.729 1630.34 750.192C1623.19 754.606 1613.01 757.5 1601.5 757.5C1589.99 757.5 1579.81 754.606 1572.66 750.192C1565.44 745.729 1562 740.22 1562 735C1562 729.78 1565.44 724.271 1572.66 719.808C1579.81 715.394 1589.99 712.5 1601.5 712.5C1613.01 712.5 1623.19 715.394 1630.34 719.808C1637.56 724.271 1641 729.78 1641 735Z" fill="#E9CBA3" stroke="black" stroke-width="10"/>
<rect x="1461" y="703" width="199" height="37" fill="#E9CBA3"/>
<path d="M1528.75 735.25C1528.75 742.05 1549.08 741.25 1559.25 740C1569.42 741.25 1589.75 742.05 1589.75 735.25C1589.75 726.75 1582.5 715.5 1574.5 715.5H1544C1536 715.5 1528.75 726.75 1528.75 735.25Z" fill="black" stroke="black" stroke-width="0.5"/>
<circle cx="1560.25" cy="762.25" r="145" stroke="black" stroke-width="12.5"/>
<ellipse cx="1604.25" cy="679.5" rx="2.75" ry="2" fill="white"/>
<ellipse cx="1604.25" cy="679.5" rx="2.75" ry="2" fill="white"/>
<ellipse cx="1604.25" cy="679.5" rx="2.75" ry="2" fill="white"/>
<ellipse cx="1503.75" cy="679.5" rx="2.75" ry="2" fill="white"/>
<ellipse cx="1503.75" cy="679.5" rx="2.75" ry="2" fill="white"/>
<ellipse cx="1503.75" cy="679.5" rx="2.75" ry="2" fill="white"/>
</g>
<defs>
<clipPath id="clip0">
<rect width="2166.13" height="1015" fill="white"/>
</clipPath>
</defs>
</svg>
