<svg width="2167" height="1015" viewBox="0 0 2167 1015" fill="none" xmlns="http://www.w3.org/2000/svg">
<g clip-path="url(#clip0)">
<rect x="0.000106812" y="508" width="2166.13" height="507" fill="#C4C4C4"/>
<rect x="-166.664" y="550.042" width="1446.43" height="426.42" rx="48" fill="white"/>
<path d="M1021.89 649.095L1054.53 703.33C1057.6 708.426 1062.6 712.06 1068.39 713.402L1130.06 727.684C1132.97 728.357 1134.12 731.884 1132.16 734.138L1090.66 781.939C1086.77 786.43 1084.85 792.311 1085.37 798.236L1090.84 861.297C1091.1 864.271 1088.1 866.45 1085.35 865.286L1027.07 840.594C1021.59 838.274 1015.41 838.274 1009.93 840.594L951.649 865.286C948.9 866.45 945.9 864.271 946.158 861.297L951.631 798.236C952.145 792.311 950.235 786.43 946.336 781.939L904.842 734.138C902.885 731.884 904.031 728.357 906.939 727.684L968.605 713.402C974.399 712.06 979.401 708.426 982.468 703.33L1015.11 649.095C1016.65 646.538 1020.35 646.538 1021.89 649.095Z" stroke="#C4C4C4" stroke-width="18.0025" stroke-linecap="round" stroke-linejoin="round"/>
<path d="M0.000106812 0H2033.5C2106.75 0 2166.13 59.3808 2166.13 132.631V508H0.000106812V0Z" fill="#757575"/>
<circle cx="1864.59" cy="254" r="118.367" fill="#404040"/>
<circle cx="1177.91" cy="254" r="118.367" fill="#404040"/>
<circle cx="1524.25" cy="254" r="118.367" fill="#404040"/>
<circle cx="1073" cy="818" r="59.5" fill="#C4C4C4" stroke="white" stroke-width="11"/>
<path d="M1066.5 848.72V826.64H1045.38V814.16H1066.5V792.08H1079.46V814.16H1100.58V826.64H1079.46V848.72H1066.5Z" fill="white"/>
<circle cx="1559.25" cy="762.25" r="151" fill="#E9CBA3" stroke="black" stroke-width="0.5"/>
<path d="M1462 681.75C1452.4 681.75 1428.33 715.083 1417.5 731.75L1442 678.5L1484.5 637.5L1557.25 618.75L1607.25 628.5L1645.25 649.5L1683 687L1698 731.75C1687.17 715.083 1663.1 681.75 1653.5 681.75C1643.9 681.75 1623 683.417 1613.75 684.25L1595.25 681.75C1603.25 674 1616.85 658.2 1607.25 657C1597.65 655.8 1572.75 663.167 1561.5 667L1554 667C1542.75 663.167 1517.85 655.8 1508.25 657C1498.65 658.2 1512.25 674 1520.25 681.75L1501.75 684.25C1492.5 683.417 1471.6 681.75 1462 681.75Z" fill="#C47233"/>
<path d="M1496.75 677.017C1494 679.016 1486.77 683.845 1483.5 686.009H1489.88C1494.46 689.339 1504.7 696 1509.02 696C1514.42 696 1518.83 694.002 1522.27 692.503C1525.02 691.304 1530.61 693.003 1533.06 694.002L1536.5 687.508C1535.03 686.342 1530.22 682.912 1522.76 678.516C1515.3 674.12 1511.47 673.354 1510.49 673.521C1507.06 673.854 1499.5 675.019 1496.75 677.017Z" fill="black" stroke="black" stroke-width="3.5" stroke-linejoin="round"/>
<path d="M1621.25 677.017C1624 679.016 1631.23 683.845 1634.5 686.009H1628.12C1623.54 689.339 1613.3 696 1608.98 696C1603.58 696 1599.17 694.002 1595.73 692.503C1592.98 691.304 1587.39 693.003 1584.94 694.002L1581.5 687.508C1582.97 686.342 1587.78 682.912 1595.24 678.516C1602.7 674.12 1606.53 673.354 1607.51 673.521C1610.94 673.854 1618.5 675.019 1621.25 677.017Z" fill="black" stroke="black" stroke-width="3.5" stroke-linejoin="round"/>
<path d="M1554.5 735C1554.5 740.22 1551.06 745.729 1543.84 750.192C1536.69 754.606 1526.51 757.5 1515 757.5C1503.49 757.5 1493.31 754.606 1486.16 750.192C1478.94 745.729 1475.5 740.22 1475.5 735C1475.5 729.78 1478.94 724.271 1486.16 719.808C1493.31 715.394 1503.49 712.5 1515 712.5C1526.51 712.5 1536.69 715.394 1543.84 719.808C1551.06 724.271 1554.5 729.78 1554.5 735Z" fill="#E9CBA3" stroke="black" stroke-width="10"/>
<path d="M1640 735C1640 740.22 1636.56 745.729 1629.34 750.192C1622.19 754.606 1612.01 757.5 1600.5 757.5C1588.99 757.5 1578.81 754.606 1571.66 750.192C1564.44 745.729 1561 740.22 1561 735C1561 729.78 1564.44 724.271 1571.66 719.808C1578.81 715.394 1588.99 712.5 1600.5 712.5C1612.01 712.5 1622.19 715.394 1629.34 719.808C1636.56 724.271 1640 729.78 1640 735Z" fill="#E9CBA3" stroke="black" stroke-width="10"/>
<rect x="1460" y="703" width="199" height="37" fill="#E9CBA3"/>
<path d="M1527.75 735.25C1527.75 742.05 1548.08 741.25 1558.25 740C1568.42 741.25 1588.75 742.05 1588.75 735.25C1588.75 726.75 1581.5 715.5 1573.5 715.5H1543C1535 715.5 1527.75 726.75 1527.75 735.25Z" fill="black" stroke="black" stroke-width="0.5"/>
<circle cx="1559.25" cy="762.25" r="145" stroke="black" stroke-width="12.5"/>
<ellipse cx="1603.25" cy="679.5" rx="2.75" ry="2" fill="white"/>
<ellipse cx="1603.25" cy="679.5" rx="2.75" ry="2" fill="white"/>
<ellipse cx="1603.25" cy="679.5" rx="2.75" ry="2" fill="white"/>
<ellipse cx="1502.75" cy="679.5" rx="2.75" ry="2" fill="white"/>
<ellipse cx="1502.75" cy="679.5" rx="2.75" ry="2" fill="white"/>
<ellipse cx="1502.75" cy="679.5" rx="2.75" ry="2" fill="white"/>
</g>
<defs>
<clipPath id="clip0">
<rect width="2166.13" height="1015" fill="white"/>
</clipPath>
</defs>
</svg>
