<svg width="2167" height="1015" viewBox="0 0 2167 1015" fill="none" xmlns="http://www.w3.org/2000/svg">
<g clip-path="url(#clip0)">
<rect x="0.000244141" y="508" width="2166.13" height="507" fill="#C4C4C4"/>
<rect x="-166.664" y="550.042" width="1446.43" height="426.42" rx="48" fill="white"/>
<path d="M1049.73 633.55L1072.69 704.203C1076.77 716.77 1088.48 725.278 1101.69 725.278H1175.98C1181.31 725.278 1183.53 732.096 1179.22 735.228L1119.12 778.894C1108.43 786.661 1103.95 800.427 1108.04 812.994L1130.99 883.648C1132.64 888.715 1126.84 892.929 1122.53 889.797L1062.43 846.131C1051.74 838.364 1037.26 838.364 1026.57 846.131L966.471 889.797C962.161 892.929 956.361 888.715 958.007 883.648L980.964 812.994C985.047 800.427 980.574 786.661 969.884 778.894L909.783 735.228C905.472 732.096 907.688 725.278 913.016 725.278H987.305C1000.52 725.278 1012.23 716.77 1016.31 704.203L1039.27 633.55C1040.92 628.482 1048.08 628.482 1049.73 633.55Z" stroke="#C4C4C4" stroke-width="25" stroke-linecap="round" stroke-linejoin="round"/>
<path d="M0.000244141 0H2033.5C2106.75 0 2166.13 59.3808 2166.13 132.631V508H0.000244141V0Z" fill="#757575"/>
<circle cx="1864.59" cy="254" r="118.367" fill="#404040"/>
<circle cx="1177.91" cy="254" r="118.367" fill="#404040"/>
<circle cx="1524.25" cy="254" r="118.367" fill="#404040"/>
<circle cx="1559.79" cy="761.5" r="151.149" fill="#E9CBA3" stroke="black" stroke-width="0.500493"/>
<path d="M1622.85 752.742C1622.85 762.568 1616.39 772.053 1604.69 779.276C1593.06 786.462 1576.75 791.029 1558.54 791.029C1540.32 791.029 1524.01 786.462 1512.38 779.276C1500.68 772.053 1494.22 762.568 1494.22 752.742C1494.22 742.915 1500.68 733.43 1512.38 726.207C1524.01 719.021 1540.32 714.454 1558.54 714.454C1576.75 714.454 1593.06 719.021 1604.69 726.207C1616.39 733.43 1622.85 742.915 1622.85 752.742Z" fill="black" stroke="black" stroke-width="7.5074"/>
<path d="M1535.98 766.705L1540.36 756.556L1551.97 748.635L1558.75 739.229L1567.95 750.615L1576.71 756.556L1581.09 766.705C1581.16 774.461 1626.08 805.326 1654.63 808.297H1473.45C1502 805.326 1535.91 774.461 1535.98 766.705Z" fill="#F2A8C3" stroke="#F2A8C3" stroke-width="4.50444"/>
<path d="M1675.1 795.863L1614.59 790.279L1648.57 813.353L1681.16 815.303L1675.1 795.863Z" fill="#E9CBA3"/>
<path d="M1511.99 785.273H1423.9L1428.66 808.767L1470.95 816.554L1511.99 785.273Z" fill="#E9CBA3"/>
<path d="M1462.44 680.921C1452.83 680.921 1428.74 714.287 1417.9 730.97L1442.42 677.668L1484.96 636.627L1557.78 617.859L1607.83 627.619L1645.87 648.639L1683.66 686.176L1698.67 730.97C1687.83 714.287 1663.74 680.921 1654.13 680.921C1644.52 680.921 1623.6 682.589 1614.34 683.423L1595.82 680.921C1603.83 673.163 1617.44 657.348 1607.83 656.147C1598.22 654.945 1573.3 662.319 1562.04 666.156L1554.53 666.156C1543.27 662.319 1518.35 654.945 1508.74 656.147C1499.13 657.348 1512.74 673.163 1520.75 680.921L1502.23 683.423C1492.97 682.589 1472.05 680.921 1462.44 680.921Z" fill="#C47233"/>
<path d="M1497.23 676.184C1494.47 678.184 1487.24 683.017 1483.96 685.184H1490.35C1494.93 688.518 1505.18 695.185 1509.51 695.185C1514.91 695.185 1519.33 693.185 1522.77 691.685C1525.52 690.484 1531.12 692.185 1533.58 693.185L1537.01 686.684C1535.54 685.517 1530.73 682.084 1523.26 677.684C1515.79 673.283 1511.96 672.517 1510.98 672.683C1507.54 673.017 1499.98 674.183 1497.23 676.184Z" fill="black" stroke="black" stroke-width="3.50345" stroke-linejoin="round"/>
<path d="M1621.85 676.184C1624.6 678.184 1631.84 683.017 1635.11 685.184H1628.73C1624.14 688.518 1613.89 695.185 1609.57 695.185C1604.16 695.185 1599.74 693.185 1596.3 691.685C1593.55 690.484 1587.95 692.185 1585.5 693.185L1582.06 686.684C1583.53 685.517 1588.35 682.084 1595.81 677.684C1603.28 673.283 1607.11 672.517 1608.09 672.683C1611.53 673.017 1619.1 674.183 1621.85 676.184Z" fill="black" stroke="black" stroke-width="3.50345" stroke-linejoin="round"/>
<ellipse cx="1559.54" cy="848.085" rx="101.6" ry="64.8139" fill="#F2A8C3"/>
<path d="M1580.56 757.997C1580.39 760.332 1581.31 766.105 1586.31 770.509C1592.57 776.014 1598.83 781.019 1608.58 787.275C1618.34 793.532 1643.12 809.547 1648.12 816.304C1653.13 823.061 1657.38 826.564 1660.64 838.576C1663.24 848.185 1658.72 862.099 1656.13 867.855" stroke="#EF5E92" stroke-width="10.0099"/>
<path d="M1536.79 757.747C1536.96 760.082 1536.04 765.855 1531.04 770.259C1524.78 775.764 1518.53 780.769 1508.77 787.025C1499.01 793.282 1474.23 809.297 1469.23 816.054C1464.22 822.811 1459.97 826.314 1456.72 838.326C1454.11 847.935 1458.63 861.849 1461.22 867.605" stroke="#EF5E92" stroke-width="10.0099"/>
<path d="M1556.28 734.223C1556.28 740.043 1552.45 745.899 1545.02 750.495C1537.64 755.054 1527.21 757.997 1515.49 757.997C1503.78 757.997 1493.35 755.054 1485.97 750.495C1478.53 745.899 1474.7 740.043 1474.7 734.223C1474.7 728.404 1478.53 722.548 1485.97 717.952C1493.35 713.393 1503.78 710.45 1515.49 710.45C1527.21 710.45 1537.64 713.393 1545.02 717.952C1552.45 722.548 1556.28 728.404 1556.28 734.223Z" fill="#E9CBA3" stroke="black" stroke-width="7.5074"/>
<path d="M1641.87 734.223C1641.87 740.043 1638.04 745.899 1630.6 750.495C1623.22 755.054 1612.79 757.997 1601.08 757.997C1589.36 757.997 1578.93 755.054 1571.55 750.495C1564.12 745.899 1560.29 740.043 1560.29 734.223C1560.29 728.404 1564.12 722.548 1571.55 717.952C1578.93 713.393 1589.36 710.45 1601.08 710.45C1612.79 710.45 1623.22 713.393 1630.6 717.952C1638.04 722.548 1641.87 728.404 1641.87 734.223Z" fill="#E9CBA3" stroke="black" stroke-width="7.5074"/>
<path d="M1595.82 776.266C1576.55 760.25 1559.79 773.013 1559.79 773.013C1559.79 773.013 1543.02 759.249 1521 776.266" stroke="#EF5E92" stroke-width="10.0099" stroke-linejoin="round"/>
<path d="M1602.58 772.261C1583.09 757.847 1560.05 765.054 1560.05 765.054C1560.05 765.054 1535.25 757.847 1514.74 772.261" stroke="black" stroke-width="7.5074" stroke-linejoin="round"/>
<path d="M1557.78 736.976L1591.82 764.253L1573.55 762.001L1559.54 767.756L1544.52 762.001L1526.75 764.253L1557.78 736.976Z" fill="black"/>
<rect x="1460.44" y="702.192" width="199.196" height="37.0365" fill="#E9CBA3"/>
<path d="M1528.26 734.474C1528.26 741.28 1548.61 740.479 1558.79 739.228C1568.96 740.479 1589.32 741.28 1589.32 734.474C1589.32 725.965 1582.06 714.704 1574.05 714.704H1543.52C1535.51 714.704 1528.26 725.965 1528.26 734.474Z" fill="black" stroke="black" stroke-width="0.500493"/>
<circle cx="1559.79" cy="761.5" r="145.143" stroke="black" stroke-width="12.5123"/>
<ellipse cx="1603.83" cy="678.668" rx="2.75271" ry="2.00197" fill="white"/>
<ellipse cx="1603.83" cy="678.668" rx="2.75271" ry="2.00197" fill="white"/>
<ellipse cx="1603.83" cy="678.668" rx="2.75271" ry="2.00197" fill="white"/>
<ellipse cx="1503.23" cy="678.668" rx="2.75271" ry="2.00197" fill="white"/>
<ellipse cx="1503.23" cy="678.668" rx="2.75271" ry="2.00197" fill="white"/>
<ellipse cx="1503.23" cy="678.668" rx="2.75271" ry="2.00197" fill="white"/>
<ellipse cx="1559.54" cy="851.589" rx="86.0848" ry="34.7843" fill="white" fill-opacity="0.2"/>
<path d="M1602.77 838.576C1602.77 814.286 1583.08 794.595 1558.79 794.595C1534.5 794.595 1514.8 814.286 1514.8 838.576C1514.8 862.866 1534.5 882.557 1558.79 882.557C1583.08 882.557 1602.77 862.866 1602.77 838.576Z" stroke="#EF5E92" stroke-width="8.00789"/>
<path d="M1552.94 848.03C1552.94 846.621 1552.51 845.46 1551.64 844.548C1550.77 843.62 1549.33 842.791 1547.31 842.062C1545.29 841.316 1543.71 840.628 1542.59 839.998C1538.85 837.925 1536.99 834.858 1536.99 830.797C1536.99 828.044 1537.8 825.782 1539.42 824.008C1541.04 822.234 1542.75 821.231 1545.53 820.899V815.428H1549.86V820.899C1552.65 821.314 1554.81 822.54 1556.33 824.58C1557.86 826.602 1558.62 829.238 1558.62 832.488H1552.79C1552.79 830.399 1552.34 828.757 1551.42 827.564C1550.52 826.354 1549.3 825.748 1547.74 825.748C1546.2 825.748 1545 826.179 1544.13 827.041C1543.27 827.904 1542.83 829.139 1542.83 830.747C1542.83 832.189 1543.26 833.35 1544.11 834.228C1544.97 835.09 1546.43 835.911 1548.49 836.69C1550.54 837.469 1552.15 838.191 1553.32 838.854C1554.49 839.517 1555.48 840.279 1556.28 841.142C1557.09 841.987 1557.7 842.965 1558.14 844.076C1558.57 845.187 1558.79 846.488 1558.79 847.98C1558.79 850.782 1557.95 853.053 1556.28 854.794C1554.63 856.535 1552.63 857.587 1549.66 857.903V861.724H1545.53V857.903C1542.35 857.538 1539.9 856.361 1538.19 854.371C1536.49 852.382 1535.64 849.746 1535.64 846.463H1541.49C1541.49 848.552 1541.99 850.169 1543 851.312C1544.03 852.456 1545.47 853.028 1547.33 853.028C1549.16 853.028 1550.55 852.573 1551.49 851.661C1552.46 850.749 1552.94 849.539 1552.94 848.03Z" fill="#EF5E92"/>
<path d="M1570.36 834.718H1566.5V846.292H1570.36V834.718Z" fill="#EF5E92"/>
<path d="M1578.08 830.86H1574.22V850.15H1578.08V830.86Z" fill="#EF5E92"/>
<path d="M1585.79 827.002H1581.93V854.008H1585.79V827.002Z" fill="#EF5E92"/>
<rect x="1560" y="522" width="242" height="199" rx="23.0227" fill="#EF5E92"/>
<path d="M1672.13 701.8V683.8C1666.85 683.2 1661.27 681.76 1655.39 679.48C1649.63 677.08 1644.65 673.96 1640.45 670.12L1651.97 652.3C1656.53 655.78 1660.85 658.42 1664.93 660.22C1669.13 661.9 1673.39 662.74 1677.71 662.74C1682.75 662.74 1686.41 661.72 1688.69 659.68C1691.09 657.64 1692.29 654.52 1692.29 650.32C1692.29 647.2 1691.09 644.56 1688.69 642.4C1686.41 640.24 1683.47 638.2 1679.87 636.28C1676.39 634.24 1672.61 632.26 1668.53 630.34C1664.45 628.3 1660.61 625.9 1657.01 623.14C1653.53 620.38 1650.59 617.14 1648.19 613.42C1645.91 609.7 1644.77 605.14 1644.77 599.74C1644.77 590.86 1647.17 583.54 1651.97 577.78C1656.89 571.9 1663.61 568.12 1672.13 566.44V547.9H1689.59V566.08C1695.35 566.92 1700.39 568.66 1704.71 571.3C1709.03 573.94 1712.93 577.12 1716.41 580.84L1703.09 595.96C1699.85 592.96 1696.73 590.74 1693.73 589.3C1690.73 587.74 1687.31 586.96 1683.47 586.96C1679.15 586.96 1675.85 587.86 1673.57 589.66C1671.29 591.46 1670.15 594.4 1670.15 598.48C1670.15 601.36 1671.29 603.82 1673.57 605.86C1675.97 607.78 1678.91 609.64 1682.39 611.44C1685.99 613.24 1689.83 615.1 1693.91 617.02C1697.99 618.94 1701.77 621.28 1705.25 624.04C1708.85 626.8 1711.79 630.16 1714.07 634.12C1716.47 637.96 1717.67 642.76 1717.67 648.52C1717.67 657.16 1715.33 664.6 1710.65 670.84C1705.97 676.96 1698.95 681.04 1689.59 683.08V701.8H1672.13Z" fill="black"/>
</g>
<defs>
<clipPath id="clip0">
<rect width="2166.13" height="1015" fill="white"/>
</clipPath>
</defs>
</svg>
