<svg width="306" height="362" viewBox="0 0 306 362" fill="none" xmlns="http://www.w3.org/2000/svg">
<rect x="5.46683" y="4.5" width="296" height="353" fill="#FFF495" stroke="black" stroke-width="9" stroke-linejoin="round"/>
<path d="M100.779 245.588L102.967 247V240.412L100.779 239V245.588Z" fill="black" stroke="black" stroke-linejoin="round"/>
<path d="M95.9668 245.588H100.779V239H95.9668V245.588Z" fill="black" stroke="black" stroke-linejoin="round"/>
<path d="M95.9668 245.588L98.0918 247L98.1543 240.412L95.9668 239V245.588Z" fill="black" stroke="black" stroke-linejoin="round"/>
<path d="M98.1543 247H102.967V240.412H98.1543V247Z" fill="black" stroke="black" stroke-linejoin="round"/>
<path d="M62.7793 212.588L64.9668 214V207.412L62.7793 206V212.588Z" fill="black" stroke="black" stroke-linejoin="round"/>
<path d="M57.9668 212.588H62.7793V206H57.9668V212.588Z" fill="black" stroke="black" stroke-linejoin="round"/>
<path d="M57.9668 212.588L60.0918 214L60.1543 207.412L57.9668 206V212.588Z" fill="black" stroke="black" stroke-linejoin="round"/>
<path d="M60.1543 214H64.9668V207.412H60.1543V214Z" fill="black" stroke="black" stroke-linejoin="round"/>
<path d="M245.779 246.588L247.967 248V241.412L245.779 240V246.588Z" fill="black" stroke="black" stroke-linejoin="round"/>
<path d="M240.967 246.588H245.779V240H240.967V246.588Z" fill="black" stroke="black" stroke-linejoin="round"/>
<path d="M240.967 246.588L243.092 248L243.154 241.412L240.967 240V246.588Z" fill="black" stroke="black" stroke-linejoin="round"/>
<path d="M243.154 248H247.967V241.412H243.154V248Z" fill="black" stroke="black" stroke-linejoin="round"/>
<rect x="62.4668" y="116.5" width="143" height="88" fill="#C4C4C4" stroke="black" stroke-width="5" stroke-linejoin="round"/>
<path d="M207.967 115L245.967 150.163V241L207.967 205.837V115Z" fill="#C4C4C4" stroke="black" stroke-width="5" stroke-linejoin="round"/>
<rect x="100.467" y="153.5" width="143" height="88" fill="#C4C4C4" stroke="black" stroke-width="5" stroke-linejoin="round"/>
<rect x="108.467" y="168.5" width="104" height="64" fill="#BCEFFF" stroke="black" stroke-width="3" stroke-linejoin="round"/>
<path d="M59.9668 115L97.9668 150.163V241L59.9668 205.837V115Z" fill="#8A8A8A" stroke="black" stroke-width="5" stroke-linejoin="round"/>
<path d="M207.467 115H59.9668L98.9668 151H245.967L207.467 115Z" fill="#A5A5A5" stroke="black" stroke-width="5" stroke-linejoin="round"/>
<path d="M219.967 153V177.396V241" stroke="black" stroke-width="2"/>
<rect x="130.467" y="158.5" width="58.1791" height="6" fill="#8A8A8A" stroke="black" stroke-linejoin="round"/>
<circle cx="230.967" cy="174" r="7" fill="black"/>
<rect x="227.601" y="170.17" width="2" height="10" transform="rotate(-30 227.601 170.17)" fill="#504F4F"/>
<circle cx="230.967" cy="200" r="7" fill="black"/>
<rect x="233.721" y="195.709" width="2" height="10" transform="rotate(44 233.721 195.709)" fill="#504F4F"/>
<circle cx="230.967" cy="226" r="7" fill="black"/>
<rect x="225.967" y="227" width="2" height="10" transform="rotate(-90 225.967 227)" fill="#504F4F"/>
<rect x="68.9447" y="133" width="29.4373" height="3" transform="rotate(41.2466 68.9447 133)" fill="black"/>
<rect x="68.9447" y="142" width="29.4373" height="3" transform="rotate(41.2466 68.9447 142)" fill="black"/>
<rect x="68.9447" y="152" width="29.4373" height="3" transform="rotate(41.2466 68.9447 152)" fill="black"/>
<line x1="144.293" y1="184.621" x2="173.293" y2="209.621" stroke="#9AC4D1"/>
<line x1="159.293" y1="187.621" x2="188.293" y2="212.621" stroke="#9AC4D1"/>
<path d="M92.6628 52.36C91.3828 52.36 90.1028 52.13 88.8228 51.67C87.5628 51.19 86.4328 50.48 85.4328 49.54L87.9528 46.51C88.6528 47.11 89.4228 47.6 90.2628 47.98C91.1228 48.36 91.9628 48.55 92.7828 48.55C93.7028 48.55 94.3828 48.38 94.8228 48.04C95.2828 47.7 95.5128 47.24 95.5128 46.66C95.5128 46.36 95.4428 46.1 95.3028 45.88C95.1828 45.66 94.9928 45.47 94.7328 45.31C94.4928 45.13 94.1928 44.97 93.8328 44.83C93.4928 44.67 93.1128 44.5 92.6928 44.32L90.1428 43.24C89.6428 43.04 89.1528 42.78 88.6728 42.46C88.2128 42.14 87.7928 41.77 87.4128 41.35C87.0528 40.91 86.7628 40.41 86.5428 39.85C86.3228 39.27 86.2128 38.62 86.2128 37.9C86.2128 37.1 86.3828 36.35 86.7228 35.65C87.0628 34.93 87.5428 34.31 88.1628 33.79C88.7828 33.25 89.5128 32.83 90.3528 32.53C91.2128 32.23 92.1528 32.08 93.1728 32.08C94.3128 32.08 95.4328 32.3 96.5328 32.74C97.6528 33.18 98.6328 33.82 99.4728 34.66L97.2228 37.45C96.5828 36.95 95.9428 36.57 95.3028 36.31C94.6628 36.03 93.9528 35.89 93.1728 35.89C92.4128 35.89 91.8028 36.05 91.3428 36.37C90.9028 36.67 90.6828 37.1 90.6828 37.66C90.6828 37.96 90.7528 38.22 90.8928 38.44C91.0528 38.64 91.2628 38.83 91.5228 39.01C91.8028 39.17 92.1228 39.33 92.4828 39.49C92.8428 39.63 93.2328 39.79 93.6528 39.97L96.1728 40.99C97.3728 41.47 98.3128 42.13 98.9928 42.97C99.6928 43.81 100.043 44.92 100.043 46.3C100.043 47.12 99.8728 47.9 99.5328 48.64C99.2128 49.36 98.7328 50 98.0928 50.56C97.4728 51.1 96.7028 51.54 95.7828 51.88C94.8628 52.2 93.8228 52.36 92.6628 52.36ZM107.473 52.36C105.853 52.36 104.673 51.83 103.933 50.77C103.213 49.71 102.853 48.24 102.853 46.36V37.12H107.263V45.79C107.263 46.87 107.413 47.61 107.713 48.01C108.013 48.41 108.483 48.61 109.123 48.61C109.683 48.61 110.153 48.48 110.533 48.22C110.913 47.96 111.323 47.54 111.763 46.96V37.12H116.173V52H112.573L112.243 49.93H112.153C111.513 50.69 110.823 51.29 110.083 51.73C109.363 52.15 108.493 52.36 107.473 52.36ZM125.364 58.33C124.484 58.33 123.664 58.25 122.904 58.09C122.164 57.95 121.504 57.73 120.924 57.43C120.364 57.13 119.924 56.74 119.604 56.26C119.284 55.78 119.124 55.21 119.124 54.55C119.124 53.35 119.834 52.35 121.254 51.55V51.43C120.854 51.17 120.524 50.84 120.264 50.44C120.004 50.04 119.874 49.53 119.874 48.91C119.874 48.37 120.034 47.86 120.354 47.38C120.674 46.88 121.074 46.46 121.554 46.12V46C121.034 45.64 120.564 45.13 120.144 44.47C119.744 43.79 119.544 43.01 119.544 42.13C119.544 41.23 119.714 40.45 120.054 39.79C120.394 39.11 120.844 38.55 121.404 38.11C121.984 37.65 122.644 37.31 123.384 37.09C124.124 36.87 124.894 36.76 125.694 36.76C126.574 36.76 127.344 36.88 128.004 37.12H133.434V40.33H131.064C131.204 40.55 131.314 40.83 131.394 41.17C131.494 41.51 131.544 41.88 131.544 42.28C131.544 43.14 131.394 43.89 131.094 44.53C130.794 45.15 130.374 45.67 129.834 46.09C129.314 46.49 128.694 46.79 127.974 46.99C127.274 47.19 126.514 47.29 125.694 47.29C125.114 47.29 124.514 47.19 123.894 46.99C123.694 47.15 123.554 47.31 123.474 47.47C123.394 47.63 123.354 47.84 123.354 48.1C123.354 48.48 123.514 48.76 123.834 48.94C124.174 49.12 124.764 49.21 125.604 49.21H128.004C129.844 49.21 131.244 49.51 132.204 50.11C133.184 50.69 133.674 51.65 133.674 52.99C133.674 53.77 133.474 54.48 133.074 55.12C132.694 55.78 132.144 56.34 131.424 56.8C130.704 57.28 129.834 57.65 128.814 57.91C127.794 58.19 126.644 58.33 125.364 58.33ZM125.694 44.62C126.274 44.62 126.754 44.42 127.134 44.02C127.534 43.6 127.734 42.97 127.734 42.13C127.734 41.35 127.534 40.76 127.134 40.36C126.754 39.94 126.274 39.73 125.694 39.73C125.114 39.73 124.624 39.93 124.224 40.33C123.844 40.73 123.654 41.33 123.654 42.13C123.654 42.97 123.844 43.6 124.224 44.02C124.624 44.42 125.114 44.62 125.694 44.62ZM126.054 55.57C127.054 55.57 127.874 55.39 128.514 55.03C129.154 54.69 129.474 54.26 129.474 53.74C129.474 53.28 129.274 52.97 128.874 52.81C128.494 52.65 127.934 52.57 127.194 52.57H125.664C125.144 52.57 124.724 52.55 124.404 52.51C124.084 52.49 123.804 52.45 123.564 52.39C123.024 52.87 122.754 53.36 122.754 53.86C122.754 54.42 123.054 54.84 123.654 55.12C124.254 55.42 125.054 55.57 126.054 55.57ZM141.389 58.33C140.509 58.33 139.689 58.25 138.929 58.09C138.189 57.95 137.529 57.73 136.949 57.43C136.389 57.13 135.949 56.74 135.629 56.26C135.309 55.78 135.149 55.21 135.149 54.55C135.149 53.35 135.859 52.35 137.279 51.55V51.43C136.879 51.17 136.549 50.84 136.289 50.44C136.029 50.04 135.899 49.53 135.899 48.91C135.899 48.37 136.059 47.86 136.379 47.38C136.699 46.88 137.099 46.46 137.579 46.12V46C137.059 45.64 136.589 45.13 136.169 44.47C135.769 43.79 135.569 43.01 135.569 42.13C135.569 41.23 135.739 40.45 136.079 39.79C136.419 39.11 136.869 38.55 137.429 38.11C138.009 37.65 138.669 37.31 139.409 37.09C140.149 36.87 140.919 36.76 141.719 36.76C142.599 36.76 143.369 36.88 144.029 37.12H149.459V40.33H147.089C147.229 40.55 147.339 40.83 147.419 41.17C147.519 41.51 147.569 41.88 147.569 42.28C147.569 43.14 147.419 43.89 147.119 44.53C146.819 45.15 146.399 45.67 145.859 46.09C145.339 46.49 144.719 46.79 143.999 46.99C143.299 47.19 142.539 47.29 141.719 47.29C141.139 47.29 140.539 47.19 139.919 46.99C139.719 47.15 139.579 47.31 139.499 47.47C139.419 47.63 139.379 47.84 139.379 48.1C139.379 48.48 139.539 48.76 139.859 48.94C140.199 49.12 140.789 49.21 141.629 49.21H144.029C145.869 49.21 147.269 49.51 148.229 50.11C149.209 50.69 149.699 51.65 149.699 52.99C149.699 53.77 149.499 54.48 149.099 55.12C148.719 55.78 148.169 56.34 147.449 56.8C146.729 57.28 145.859 57.65 144.839 57.91C143.819 58.19 142.669 58.33 141.389 58.33ZM141.719 44.62C142.299 44.62 142.779 44.42 143.159 44.02C143.559 43.6 143.759 42.97 143.759 42.13C143.759 41.35 143.559 40.76 143.159 40.36C142.779 39.94 142.299 39.73 141.719 39.73C141.139 39.73 140.649 39.93 140.249 40.33C139.869 40.73 139.679 41.33 139.679 42.13C139.679 42.97 139.869 43.6 140.249 44.02C140.649 44.42 141.139 44.62 141.719 44.62ZM142.079 55.57C143.079 55.57 143.899 55.39 144.539 55.03C145.179 54.69 145.499 54.26 145.499 53.74C145.499 53.28 145.299 52.97 144.899 52.81C144.519 52.65 143.959 52.57 143.219 52.57H141.689C141.169 52.57 140.749 52.55 140.429 52.51C140.109 52.49 139.829 52.45 139.589 52.39C139.049 52.87 138.779 53.36 138.779 53.86C138.779 54.42 139.079 54.84 139.679 55.12C140.279 55.42 141.079 55.57 142.079 55.57ZM158.237 52.36C157.177 52.36 156.187 52.19 155.267 51.85C154.347 51.49 153.547 50.98 152.867 50.32C152.187 49.64 151.657 48.82 151.277 47.86C150.897 46.9 150.707 45.8 150.707 44.56C150.707 43.36 150.907 42.28 151.307 41.32C151.707 40.34 152.227 39.52 152.867 38.86C153.527 38.18 154.277 37.66 155.117 37.3C155.957 36.94 156.827 36.76 157.727 36.76C158.787 36.76 159.707 36.94 160.487 37.3C161.287 37.66 161.947 38.16 162.467 38.8C163.007 39.44 163.407 40.2 163.667 41.08C163.927 41.94 164.057 42.88 164.057 43.9C164.057 44.3 164.037 44.68 163.997 45.04C163.957 45.4 163.917 45.67 163.877 45.85H154.967C155.167 46.93 155.607 47.73 156.287 48.25C156.987 48.75 157.837 49 158.837 49C159.897 49 160.967 48.67 162.047 48.01L163.517 50.68C162.757 51.2 161.907 51.61 160.967 51.91C160.047 52.21 159.137 52.36 158.237 52.36ZM154.937 42.94H160.307C160.307 42.1 160.117 41.42 159.737 40.9C159.357 40.38 158.717 40.12 157.817 40.12C157.117 40.12 156.497 40.35 155.957 40.81C155.437 41.27 155.097 41.98 154.937 42.94ZM171.484 52.36C170.504 52.36 169.494 52.17 168.454 51.79C167.434 51.41 166.544 50.91 165.784 50.29L167.764 47.53C168.444 48.05 169.094 48.44 169.714 48.7C170.334 48.96 170.964 49.09 171.604 49.09C172.264 49.09 172.744 48.98 173.044 48.76C173.344 48.54 173.494 48.23 173.494 47.83C173.494 47.59 173.404 47.38 173.224 47.2C173.064 47 172.834 46.82 172.534 46.66C172.254 46.5 171.934 46.36 171.574 46.24C171.214 46.1 170.844 45.95 170.464 45.79C170.004 45.61 169.544 45.4 169.084 45.16C168.624 44.92 168.204 44.63 167.824 44.29C167.444 43.93 167.134 43.52 166.894 43.06C166.654 42.58 166.534 42.03 166.534 41.41C166.534 40.73 166.664 40.1 166.924 39.52C167.204 38.94 167.594 38.45 168.094 38.05C168.594 37.65 169.194 37.34 169.894 37.12C170.594 36.88 171.374 36.76 172.234 36.76C173.374 36.76 174.374 36.96 175.234 37.36C176.094 37.74 176.844 38.17 177.484 38.65L175.504 41.29C174.964 40.89 174.434 40.58 173.914 40.36C173.394 40.14 172.874 40.03 172.354 40.03C171.234 40.03 170.674 40.42 170.674 41.2C170.674 41.44 170.754 41.65 170.914 41.83C171.074 41.99 171.284 42.14 171.544 42.28C171.824 42.42 172.134 42.56 172.474 42.7C172.834 42.82 173.204 42.95 173.584 43.09C174.064 43.27 174.534 43.48 174.994 43.72C175.474 43.94 175.904 44.22 176.284 44.56C176.684 44.9 177.004 45.32 177.244 45.82C177.484 46.3 177.604 46.88 177.604 47.56C177.604 48.24 177.474 48.87 177.214 49.45C176.954 50.03 176.564 50.54 176.044 50.98C175.524 51.4 174.884 51.74 174.124 52C173.364 52.24 172.484 52.36 171.484 52.36ZM185.549 52.36C184.629 52.36 183.839 52.22 183.179 51.94C182.539 51.66 182.009 51.27 181.589 50.77C181.189 50.27 180.889 49.67 180.689 48.97C180.509 48.25 180.419 47.46 180.419 46.6V40.57H178.379V37.3L180.659 37.12L181.169 33.16H184.829V37.12H188.399V40.57H184.829V46.54C184.829 47.38 184.999 47.99 185.339 48.37C185.699 48.73 186.169 48.91 186.749 48.91C186.989 48.91 187.229 48.88 187.469 48.82C187.729 48.76 187.959 48.69 188.159 48.61L188.849 51.82C188.449 51.94 187.979 52.06 187.439 52.18C186.899 52.3 186.269 52.36 185.549 52.36ZM197.436 52.36C196.376 52.36 195.386 52.19 194.466 51.85C193.546 51.49 192.746 50.98 192.066 50.32C191.386 49.64 190.856 48.82 190.476 47.86C190.096 46.9 189.906 45.8 189.906 44.56C189.906 43.36 190.106 42.28 190.506 41.32C190.906 40.34 191.426 39.52 192.066 38.86C192.726 38.18 193.476 37.66 194.316 37.3C195.156 36.94 196.026 36.76 196.926 36.76C197.986 36.76 198.906 36.94 199.686 37.3C200.486 37.66 201.146 38.16 201.666 38.8C202.206 39.44 202.606 40.2 202.866 41.08C203.126 41.94 203.256 42.88 203.256 43.9C203.256 44.3 203.236 44.68 203.196 45.04C203.156 45.4 203.116 45.67 203.076 45.85H194.166C194.366 46.93 194.806 47.73 195.486 48.25C196.186 48.75 197.036 49 198.036 49C199.096 49 200.166 48.67 201.246 48.01L202.716 50.68C201.956 51.2 201.106 51.61 200.166 51.91C199.246 52.21 198.336 52.36 197.436 52.36ZM194.136 42.94H199.506C199.506 42.1 199.316 41.42 198.936 40.9C198.556 40.38 197.916 40.12 197.016 40.12C196.316 40.12 195.696 40.35 195.156 40.81C194.636 41.27 194.296 41.98 194.136 42.94ZM211.614 52.36C210.694 52.36 209.854 52.18 209.094 51.82C208.354 51.46 207.714 50.95 207.174 50.29C206.654 49.61 206.244 48.79 205.944 47.83C205.664 46.87 205.524 45.78 205.524 44.56C205.524 43.34 205.694 42.25 206.034 41.29C206.394 40.33 206.854 39.52 207.414 38.86C207.994 38.18 208.654 37.66 209.394 37.3C210.154 36.94 210.924 36.76 211.704 36.76C212.544 36.76 213.234 36.9 213.774 37.18C214.314 37.46 214.844 37.84 215.364 38.32L215.184 36.04V30.97H219.594V52H215.994L215.694 50.53H215.574C215.054 51.05 214.444 51.49 213.744 51.85C213.044 52.19 212.334 52.36 211.614 52.36ZM212.754 48.76C213.234 48.76 213.664 48.66 214.044 48.46C214.444 48.26 214.824 47.91 215.184 47.41V41.32C214.784 40.96 214.374 40.71 213.954 40.57C213.534 40.43 213.124 40.36 212.724 40.36C212.024 40.36 211.404 40.7 210.864 41.38C210.324 42.04 210.054 43.08 210.054 44.5C210.054 45.98 210.284 47.06 210.744 47.74C211.224 48.42 211.894 48.76 212.754 48.76ZM67.696 90.36C66.196 90.36 64.936 90.07 63.916 89.49C62.916 88.91 62.076 88.02 61.396 86.82L64.396 84.6C64.756 85.26 65.176 85.75 65.656 86.07C66.136 86.39 66.626 86.55 67.126 86.55C67.926 86.55 68.526 86.31 68.926 85.83C69.346 85.33 69.556 84.43 69.556 83.13V70.44H73.966V83.49C73.966 84.43 73.836 85.32 73.576 86.16C73.336 87 72.956 87.73 72.436 88.35C71.936 88.97 71.286 89.46 70.486 89.82C69.706 90.18 68.776 90.36 67.696 90.36ZM86.1997 90.36C83.6597 90.36 81.7197 89.61 80.3797 88.11C79.0397 86.61 78.3697 84.22 78.3697 80.94V70.44H82.8097V81.39C82.8097 83.31 83.0997 84.65 83.6797 85.41C84.2597 86.17 85.0997 86.55 86.1997 86.55C87.2997 86.55 88.1497 86.17 88.7497 85.41C89.3497 84.65 89.6497 83.31 89.6497 81.39V70.44H93.9097V80.94C93.9097 84.22 93.2497 86.61 91.9297 88.11C90.6297 89.61 88.7197 90.36 86.1997 90.36ZM104.118 90.36C102.838 90.36 101.558 90.13 100.278 89.67C99.0179 89.19 97.8879 88.48 96.8879 87.54L99.4079 84.51C100.108 85.11 100.878 85.6 101.718 85.98C102.578 86.36 103.418 86.55 104.238 86.55C105.158 86.55 105.838 86.38 106.278 86.04C106.738 85.7 106.968 85.24 106.968 84.66C106.968 84.36 106.898 84.1 106.758 83.88C106.638 83.66 106.448 83.47 106.188 83.31C105.948 83.13 105.648 82.97 105.288 82.83C104.948 82.67 104.568 82.5 104.148 82.32L101.598 81.24C101.098 81.04 100.608 80.78 100.128 80.46C99.6679 80.14 99.2479 79.77 98.8679 79.35C98.5079 78.91 98.2179 78.41 97.9979 77.85C97.7779 77.27 97.6679 76.62 97.6679 75.9C97.6679 75.1 97.8379 74.35 98.1779 73.65C98.5179 72.93 98.9979 72.31 99.6179 71.79C100.238 71.25 100.968 70.83 101.808 70.53C102.668 70.23 103.608 70.08 104.628 70.08C105.768 70.08 106.888 70.3 107.988 70.74C109.108 71.18 110.088 71.82 110.928 72.66L108.678 75.45C108.038 74.95 107.398 74.57 106.758 74.31C106.118 74.03 105.408 73.89 104.628 73.89C103.868 73.89 103.258 74.05 102.798 74.37C102.358 74.67 102.138 75.1 102.138 75.66C102.138 75.96 102.208 76.22 102.348 76.44C102.508 76.64 102.718 76.83 102.978 77.01C103.258 77.17 103.578 77.33 103.938 77.49C104.298 77.63 104.688 77.79 105.108 77.97L107.628 78.99C108.828 79.47 109.768 80.13 110.448 80.97C111.148 81.81 111.498 82.92 111.498 84.3C111.498 85.12 111.328 85.9 110.988 86.64C110.668 87.36 110.188 88 109.548 88.56C108.928 89.1 108.158 89.54 107.238 89.88C106.318 90.2 105.278 90.36 104.118 90.36ZM118.042 90V74.16H112.672V70.44H127.852V74.16H122.482V90H118.042ZM137.298 90V78.57H135.318V75.3L137.298 75.15V74.34C137.298 73.56 137.388 72.82 137.568 72.12C137.768 71.42 138.088 70.81 138.528 70.29C138.968 69.77 139.538 69.36 140.238 69.06C140.938 68.76 141.788 68.61 142.788 68.61C143.408 68.61 143.968 68.67 144.468 68.79C144.988 68.91 145.418 69.03 145.758 69.15L144.948 72.39C144.388 72.19 143.878 72.09 143.418 72.09C142.878 72.09 142.458 72.26 142.158 72.6C141.858 72.92 141.708 73.46 141.708 74.22V75.12H144.378V78.57H141.708V90H137.298ZM152.869 90.36C151.929 90.36 151.019 90.19 150.139 89.85C149.259 89.49 148.479 88.98 147.799 88.32C147.139 87.66 146.609 86.85 146.209 85.89C145.809 84.91 145.609 83.8 145.609 82.56C145.609 81.32 145.809 80.22 146.209 79.26C146.609 78.28 147.139 77.46 147.799 76.8C148.479 76.14 149.259 75.64 150.139 75.3C151.019 74.94 151.929 74.76 152.869 74.76C153.809 74.76 154.709 74.94 155.569 75.3C156.449 75.64 157.219 76.14 157.879 76.8C158.559 77.46 159.099 78.28 159.499 79.26C159.899 80.22 160.099 81.32 160.099 82.56C160.099 83.8 159.899 84.91 159.499 85.89C159.099 86.85 158.559 87.66 157.879 88.32C157.219 88.98 156.449 89.49 155.569 89.85C154.709 90.19 153.809 90.36 152.869 90.36ZM152.869 86.79C153.769 86.79 154.449 86.41 154.909 85.65C155.369 84.89 155.599 83.86 155.599 82.56C155.599 81.26 155.369 80.23 154.909 79.47C154.449 78.71 153.769 78.33 152.869 78.33C151.949 78.33 151.259 78.71 150.799 79.47C150.359 80.23 150.139 81.26 150.139 82.56C150.139 83.86 150.359 84.89 150.799 85.65C151.259 86.41 151.949 86.79 152.869 86.79ZM163.12 90V75.12H166.72L167.02 77.73H167.14C167.68 76.71 168.33 75.96 169.09 75.48C169.85 75 170.61 74.76 171.37 74.76C171.79 74.76 172.13 74.79 172.39 74.85C172.67 74.89 172.92 74.96 173.14 75.06L172.42 78.87C172.14 78.79 171.88 78.73 171.64 78.69C171.4 78.65 171.12 78.63 170.8 78.63C170.24 78.63 169.65 78.83 169.03 79.23C168.43 79.63 167.93 80.34 167.53 81.36V90H163.12ZM184.799 90V83.04L178.889 70.44H183.629L185.369 74.94C185.649 75.68 185.909 76.4 186.149 77.1C186.409 77.78 186.679 78.5 186.959 79.26H187.079C187.359 78.5 187.629 77.78 187.889 77.1C188.169 76.4 188.449 75.68 188.729 74.94L190.499 70.44H195.119L189.209 83.04V90H184.799ZM204.623 90.36C203.303 90.36 202.093 90.13 200.993 89.67C199.913 89.19 198.983 88.51 198.203 87.63C197.423 86.75 196.813 85.68 196.373 84.42C195.953 83.16 195.743 81.73 195.743 80.13C195.743 78.53 195.953 77.11 196.373 75.87C196.813 74.61 197.423 73.56 198.203 72.72C198.983 71.86 199.913 71.21 200.993 70.77C202.093 70.31 203.303 70.08 204.623 70.08C205.943 70.08 207.143 70.31 208.223 70.77C209.323 71.21 210.263 71.86 211.043 72.72C211.823 73.58 212.423 74.64 212.843 75.9C213.283 77.14 213.503 78.55 213.503 80.13C213.503 81.73 213.283 83.16 212.843 84.42C212.423 85.68 211.823 86.75 211.043 87.63C210.263 88.51 209.323 89.19 208.223 89.67C207.143 90.13 205.943 90.36 204.623 90.36ZM204.623 86.55C205.963 86.55 207.023 85.98 207.803 84.84C208.583 83.68 208.973 82.11 208.973 80.13C208.973 78.17 208.583 76.64 207.803 75.54C207.023 74.44 205.963 73.89 204.623 73.89C203.283 73.89 202.223 74.44 201.443 75.54C200.663 76.64 200.273 78.17 200.273 80.13C200.273 82.11 200.663 83.68 201.443 84.84C202.223 85.98 203.283 86.55 204.623 86.55ZM224.891 90.36C222.351 90.36 220.411 89.61 219.071 88.11C217.731 86.61 217.061 84.22 217.061 80.94V70.44H221.501V81.39C221.501 83.31 221.791 84.65 222.371 85.41C222.951 86.17 223.791 86.55 224.891 86.55C225.991 86.55 226.841 86.17 227.441 85.41C228.041 84.65 228.341 83.31 228.341 81.39V70.44H232.601V80.94C232.601 84.22 231.941 86.61 230.621 88.11C229.321 89.61 227.411 90.36 224.891 90.36ZM238.482 83.07L237.852 73.89L237.702 69.9H242.142L241.992 73.89L241.362 83.07H238.482ZM239.922 90.36C239.162 90.36 238.522 90.1 238.002 89.58C237.502 89.04 237.252 88.38 237.252 87.6C237.252 86.8 237.502 86.14 238.002 85.62C238.522 85.08 239.162 84.81 239.922 84.81C240.682 84.81 241.312 85.08 241.812 85.62C242.332 86.14 242.592 86.8 242.592 87.6C242.592 88.38 242.332 89.04 241.812 89.58C241.312 90.1 240.682 90.36 239.922 90.36Z" fill="black"/>
<path d="M40.8571 280V269.452H37.2931V268.192H45.9331V269.452H42.3691V280H40.8571ZM47.9155 280V267.184H49.3915V270.676L49.3375 272.476C49.7575 272.08 50.1955 271.744 50.6515 271.468C51.1075 271.18 51.6415 271.036 52.2535 271.036C53.1775 271.036 53.8495 271.324 54.2695 271.9C54.7015 272.476 54.9175 273.328 54.9175 274.456V280H53.4415V274.654C53.4415 273.826 53.3095 273.232 53.0455 272.872C52.7815 272.5 52.3615 272.314 51.7855 272.314C51.3295 272.314 50.9275 272.428 50.5795 272.656C50.2315 272.884 49.8355 273.22 49.3915 273.664V280H47.9155ZM61.2525 280.216C60.6645 280.216 60.1125 280.114 59.5965 279.91C59.0925 279.694 58.6485 279.394 58.2645 279.01C57.8925 278.614 57.5985 278.134 57.3825 277.57C57.1665 277.006 57.0585 276.364 57.0585 275.644C57.0585 274.924 57.1665 274.282 57.3825 273.718C57.6105 273.142 57.9045 272.656 58.2645 272.26C58.6365 271.864 59.0565 271.564 59.5245 271.36C59.9925 271.144 60.4785 271.036 60.9825 271.036C61.5345 271.036 62.0265 271.132 62.4585 271.324C62.9025 271.516 63.2685 271.792 63.5565 272.152C63.8565 272.512 64.0845 272.944 64.2405 273.448C64.3965 273.952 64.4745 274.516 64.4745 275.14C64.4745 275.296 64.4685 275.452 64.4565 275.608C64.4565 275.752 64.4445 275.878 64.4205 275.986H58.5165C58.5765 276.922 58.8645 277.666 59.3805 278.218C59.9085 278.758 60.5925 279.028 61.4325 279.028C61.8525 279.028 62.2365 278.968 62.5845 278.848C62.9445 278.716 63.2865 278.548 63.6105 278.344L64.1325 279.316C63.7485 279.556 63.3225 279.766 62.8545 279.946C62.3865 280.126 61.8525 280.216 61.2525 280.216ZM58.4985 274.924H63.1785C63.1785 274.036 62.9865 273.364 62.6025 272.908C62.2305 272.44 61.7025 272.206 61.0185 272.206C60.7065 272.206 60.4065 272.266 60.1185 272.386C59.8425 272.506 59.5905 272.686 59.3625 272.926C59.1345 273.154 58.9425 273.436 58.7865 273.772C58.6425 274.108 58.5465 274.492 58.4985 274.924ZM72.9937 280.216C72.5257 280.216 72.1297 280.144 71.8057 280C71.4937 279.856 71.2357 279.658 71.0317 279.406C70.8397 279.154 70.7017 278.848 70.6177 278.488C70.5337 278.128 70.4917 277.732 70.4917 277.3V272.458H69.1957V271.342L70.5637 271.252L70.7437 268.804H71.9857V271.252H74.3437V272.458H71.9857V277.318C71.9857 277.858 72.0817 278.278 72.2737 278.578C72.4777 278.866 72.8317 279.01 73.3357 279.01C73.4917 279.01 73.6597 278.986 73.8397 278.938C74.0197 278.89 74.1817 278.836 74.3257 278.776L74.6137 279.892C74.3737 279.976 74.1097 280.048 73.8217 280.108C73.5457 280.18 73.2697 280.216 72.9937 280.216ZM79.4776 280.216C78.9376 280.216 78.4216 280.114 77.9296 279.91C77.4496 279.706 77.0236 279.412 76.6516 279.028C76.2796 278.632 75.9796 278.152 75.7516 277.588C75.5356 277.012 75.4276 276.364 75.4276 275.644C75.4276 274.912 75.5356 274.264 75.7516 273.7C75.9796 273.124 76.2796 272.638 76.6516 272.242C77.0236 271.846 77.4496 271.546 77.9296 271.342C78.4216 271.138 78.9376 271.036 79.4776 271.036C80.0176 271.036 80.5276 271.138 81.0076 271.342C81.4996 271.546 81.9316 271.846 82.3036 272.242C82.6756 272.638 82.9696 273.124 83.1856 273.7C83.4136 274.264 83.5276 274.912 83.5276 275.644C83.5276 276.364 83.4136 277.012 83.1856 277.588C82.9696 278.152 82.6756 278.632 82.3036 279.028C81.9316 279.412 81.4996 279.706 81.0076 279.91C80.5276 280.114 80.0176 280.216 79.4776 280.216ZM79.4776 278.992C79.8496 278.992 80.1916 278.914 80.5036 278.758C80.8156 278.59 81.0796 278.362 81.2956 278.074C81.5236 277.774 81.6976 277.42 81.8176 277.012C81.9376 276.604 81.9976 276.148 81.9976 275.644C81.9976 275.14 81.9376 274.684 81.8176 274.276C81.6976 273.856 81.5236 273.496 81.2956 273.196C81.0796 272.896 80.8156 272.668 80.5036 272.512C80.1916 272.344 79.8496 272.26 79.4776 272.26C79.1056 272.26 78.7636 272.344 78.4516 272.512C78.1396 272.668 77.8696 272.896 77.6416 273.196C77.4256 273.496 77.2576 273.856 77.1376 274.276C77.0176 274.684 76.9576 275.14 76.9576 275.644C76.9576 276.148 77.0176 276.604 77.1376 277.012C77.2576 277.42 77.4256 277.774 77.6416 278.074C77.8696 278.362 78.1396 278.59 78.4516 278.758C78.7636 278.914 79.1056 278.992 79.4776 278.992ZM87.6014 280.216C86.8694 280.216 86.2574 280 85.7654 279.568C85.2854 279.136 85.0454 278.524 85.0454 277.732C85.0454 276.772 85.4714 276.04 86.3234 275.536C87.1754 275.02 88.5374 274.66 90.4094 274.456C90.4094 274.18 90.3794 273.91 90.3194 273.646C90.2714 273.382 90.1814 273.148 90.0494 272.944C89.9174 272.74 89.7314 272.578 89.4914 272.458C89.2634 272.326 88.9694 272.26 88.6094 272.26C88.1054 272.26 87.6314 272.356 87.1874 272.548C86.7434 272.74 86.3474 272.956 85.9994 273.196L85.4234 272.17C85.8314 271.906 86.3294 271.654 86.9174 271.414C87.5054 271.162 88.1534 271.036 88.8614 271.036C89.9294 271.036 90.7034 271.366 91.1834 272.026C91.6634 272.674 91.9034 273.544 91.9034 274.636V280H90.6794L90.5534 278.956H90.4994C90.0794 279.304 89.6294 279.604 89.1494 279.856C88.6694 280.096 88.1534 280.216 87.6014 280.216ZM88.0334 279.028C88.4534 279.028 88.8494 278.932 89.2214 278.74C89.5934 278.536 89.9894 278.242 90.4094 277.858V275.428C89.6774 275.524 89.0594 275.638 88.5554 275.77C88.0634 275.902 87.6614 276.058 87.3494 276.238C87.0494 276.418 86.8274 276.628 86.6834 276.868C86.5514 277.096 86.4854 277.348 86.4854 277.624C86.4854 278.128 86.6354 278.488 86.9354 278.704C87.2354 278.92 87.6014 279.028 88.0334 279.028ZM96.9417 280.216C96.3177 280.216 95.7237 280.102 95.1597 279.874C94.5957 279.646 94.1037 279.358 93.6837 279.01L94.4217 278.02C94.8057 278.332 95.1957 278.584 95.5917 278.776C95.9997 278.968 96.4677 279.064 96.9957 279.064C97.5717 279.064 98.0037 278.932 98.2917 278.668C98.5797 278.404 98.7237 278.08 98.7237 277.696C98.7237 277.468 98.6637 277.27 98.5437 277.102C98.4237 276.934 98.2677 276.79 98.0757 276.67C97.8957 276.538 97.6857 276.424 97.4457 276.328C97.2057 276.232 96.9657 276.136 96.7257 276.04C96.4137 275.932 96.1017 275.812 95.7897 275.68C95.4777 275.536 95.1957 275.368 94.9437 275.176C94.7037 274.972 94.5057 274.738 94.3497 274.474C94.1937 274.21 94.1157 273.892 94.1157 273.52C94.1157 273.172 94.1817 272.848 94.3137 272.548C94.4577 272.236 94.6557 271.972 94.9077 271.756C95.1717 271.528 95.4897 271.354 95.8617 271.234C96.2337 271.102 96.6537 271.036 97.1217 271.036C97.6737 271.036 98.1777 271.132 98.6337 271.324C99.1017 271.516 99.5037 271.75 99.8397 272.026L99.1377 272.962C98.8377 272.734 98.5257 272.548 98.2017 272.404C97.8777 272.26 97.5237 272.188 97.1397 272.188C96.5877 272.188 96.1797 272.314 95.9157 272.566C95.6637 272.818 95.5377 273.112 95.5377 273.448C95.5377 273.652 95.5917 273.832 95.6997 273.988C95.8077 274.132 95.9517 274.264 96.1317 274.384C96.3117 274.492 96.5157 274.594 96.7437 274.69C96.9837 274.774 97.2297 274.864 97.4817 274.96C97.7937 275.08 98.1057 275.206 98.4177 275.338C98.7417 275.47 99.0297 275.638 99.2817 275.842C99.5337 276.034 99.7377 276.274 99.8937 276.562C100.062 276.85 100.146 277.198 100.146 277.606C100.146 277.966 100.074 278.302 99.9297 278.614C99.7977 278.926 99.5937 279.202 99.3177 279.442C99.0537 279.682 98.7177 279.868 98.3097 280C97.9137 280.144 97.4577 280.216 96.9417 280.216ZM104.599 280.216C104.131 280.216 103.735 280.144 103.411 280C103.099 279.856 102.841 279.658 102.637 279.406C102.445 279.154 102.307 278.848 102.223 278.488C102.139 278.128 102.097 277.732 102.097 277.3V272.458H100.801V271.342L102.169 271.252L102.349 268.804H103.591V271.252H105.949V272.458H103.591V277.318C103.591 277.858 103.687 278.278 103.879 278.578C104.083 278.866 104.437 279.01 104.941 279.01C105.097 279.01 105.265 278.986 105.445 278.938C105.625 278.89 105.787 278.836 105.931 278.776L106.219 279.892C105.979 279.976 105.715 280.048 105.427 280.108C105.151 280.18 104.875 280.216 104.599 280.216ZM111.227 280.216C110.639 280.216 110.087 280.114 109.571 279.91C109.067 279.694 108.623 279.394 108.239 279.01C107.867 278.614 107.573 278.134 107.357 277.57C107.141 277.006 107.033 276.364 107.033 275.644C107.033 274.924 107.141 274.282 107.357 273.718C107.585 273.142 107.879 272.656 108.239 272.26C108.611 271.864 109.031 271.564 109.499 271.36C109.967 271.144 110.453 271.036 110.957 271.036C111.509 271.036 112.001 271.132 112.433 271.324C112.877 271.516 113.243 271.792 113.531 272.152C113.831 272.512 114.059 272.944 114.215 273.448C114.371 273.952 114.449 274.516 114.449 275.14C114.449 275.296 114.443 275.452 114.431 275.608C114.431 275.752 114.419 275.878 114.395 275.986H108.491C108.551 276.922 108.839 277.666 109.355 278.218C109.883 278.758 110.567 279.028 111.407 279.028C111.827 279.028 112.211 278.968 112.559 278.848C112.919 278.716 113.261 278.548 113.585 278.344L114.107 279.316C113.723 279.556 113.297 279.766 112.829 279.946C112.361 280.126 111.827 280.216 111.227 280.216ZM108.473 274.924H113.153C113.153 274.036 112.961 273.364 112.577 272.908C112.205 272.44 111.677 272.206 110.993 272.206C110.681 272.206 110.381 272.266 110.093 272.386C109.817 272.506 109.565 272.686 109.337 272.926C109.109 273.154 108.917 273.436 108.761 273.772C108.617 274.108 108.521 274.492 108.473 274.924ZM116.611 280V271.252H117.835L117.961 272.836H118.015C118.315 272.284 118.675 271.846 119.095 271.522C119.527 271.198 119.995 271.036 120.499 271.036C120.847 271.036 121.159 271.096 121.435 271.216L121.147 272.512C121.003 272.464 120.871 272.428 120.751 272.404C120.631 272.38 120.481 272.368 120.301 272.368C119.929 272.368 119.539 272.518 119.131 272.818C118.735 273.118 118.387 273.64 118.087 274.384V280H116.611ZM129.857 280.216C129.317 280.216 128.801 280.114 128.309 279.91C127.829 279.706 127.403 279.412 127.031 279.028C126.659 278.632 126.359 278.152 126.131 277.588C125.915 277.012 125.807 276.364 125.807 275.644C125.807 274.912 125.915 274.264 126.131 273.7C126.359 273.124 126.659 272.638 127.031 272.242C127.403 271.846 127.829 271.546 128.309 271.342C128.801 271.138 129.317 271.036 129.857 271.036C130.397 271.036 130.907 271.138 131.387 271.342C131.879 271.546 132.311 271.846 132.683 272.242C133.055 272.638 133.349 273.124 133.565 273.7C133.793 274.264 133.907 274.912 133.907 275.644C133.907 276.364 133.793 277.012 133.565 277.588C133.349 278.152 133.055 278.632 132.683 279.028C132.311 279.412 131.879 279.706 131.387 279.91C130.907 280.114 130.397 280.216 129.857 280.216ZM129.857 278.992C130.229 278.992 130.571 278.914 130.883 278.758C131.195 278.59 131.459 278.362 131.675 278.074C131.903 277.774 132.077 277.42 132.197 277.012C132.317 276.604 132.377 276.148 132.377 275.644C132.377 275.14 132.317 274.684 132.197 274.276C132.077 273.856 131.903 273.496 131.675 273.196C131.459 272.896 131.195 272.668 130.883 272.512C130.571 272.344 130.229 272.26 129.857 272.26C129.485 272.26 129.143 272.344 128.831 272.512C128.519 272.668 128.249 272.896 128.021 273.196C127.805 273.496 127.637 273.856 127.517 274.276C127.397 274.684 127.337 275.14 127.337 275.644C127.337 276.148 127.397 276.604 127.517 277.012C127.637 277.42 127.805 277.774 128.021 278.074C128.249 278.362 128.519 278.59 128.831 278.758C129.143 278.914 129.485 278.992 129.857 278.992ZM138.03 280L134.88 271.252H136.41L138.066 276.22C138.198 276.652 138.33 277.084 138.462 277.516C138.606 277.948 138.744 278.374 138.876 278.794H138.948C139.08 278.374 139.212 277.948 139.344 277.516C139.476 277.084 139.608 276.652 139.74 276.22L141.396 271.252H142.854L139.758 280H138.03ZM148.018 280.216C147.43 280.216 146.878 280.114 146.362 279.91C145.858 279.694 145.414 279.394 145.03 279.01C144.658 278.614 144.364 278.134 144.148 277.57C143.932 277.006 143.824 276.364 143.824 275.644C143.824 274.924 143.932 274.282 144.148 273.718C144.376 273.142 144.67 272.656 145.03 272.26C145.402 271.864 145.822 271.564 146.29 271.36C146.758 271.144 147.244 271.036 147.748 271.036C148.3 271.036 148.792 271.132 149.224 271.324C149.668 271.516 150.034 271.792 150.322 272.152C150.622 272.512 150.85 272.944 151.006 273.448C151.162 273.952 151.24 274.516 151.24 275.14C151.24 275.296 151.234 275.452 151.222 275.608C151.222 275.752 151.21 275.878 151.186 275.986H145.282C145.342 276.922 145.63 277.666 146.146 278.218C146.674 278.758 147.358 279.028 148.198 279.028C148.618 279.028 149.002 278.968 149.35 278.848C149.71 278.716 150.052 278.548 150.376 278.344L150.898 279.316C150.514 279.556 150.088 279.766 149.62 279.946C149.152 280.126 148.618 280.216 148.018 280.216ZM145.264 274.924H149.944C149.944 274.036 149.752 273.364 149.368 272.908C148.996 272.44 148.468 272.206 147.784 272.206C147.472 272.206 147.172 272.266 146.884 272.386C146.608 272.506 146.356 272.686 146.128 272.926C145.9 273.154 145.708 273.436 145.552 273.772C145.408 274.108 145.312 274.492 145.264 274.924ZM153.402 280V271.252H154.626L154.752 272.512H154.806C155.226 272.092 155.664 271.744 156.12 271.468C156.588 271.18 157.128 271.036 157.74 271.036C158.664 271.036 159.336 271.324 159.756 271.9C160.188 272.476 160.404 273.328 160.404 274.456V280H158.928V274.654C158.928 273.826 158.796 273.232 158.532 272.872C158.268 272.5 157.848 272.314 157.272 272.314C156.816 272.314 156.414 272.428 156.066 272.656C155.718 272.884 155.322 273.22 154.878 273.664V280H153.402ZM169.603 280.216C169.135 280.216 168.739 280.144 168.415 280C168.103 279.856 167.845 279.658 167.641 279.406C167.449 279.154 167.311 278.848 167.227 278.488C167.143 278.128 167.101 277.732 167.101 277.3V272.458H165.805V271.342L167.173 271.252L167.353 268.804H168.595V271.252H170.953V272.458H168.595V277.318C168.595 277.858 168.691 278.278 168.883 278.578C169.087 278.866 169.441 279.01 169.945 279.01C170.101 279.01 170.269 278.986 170.449 278.938C170.629 278.89 170.791 278.836 170.935 278.776L171.223 279.892C170.983 279.976 170.719 280.048 170.431 280.108C170.155 280.18 169.879 280.216 169.603 280.216ZM172.931 280V267.184H174.407V270.676L174.353 272.476C174.773 272.08 175.211 271.744 175.667 271.468C176.123 271.18 176.657 271.036 177.269 271.036C178.193 271.036 178.865 271.324 179.285 271.9C179.717 272.476 179.933 273.328 179.933 274.456V280H178.457V274.654C178.457 273.826 178.325 273.232 178.061 272.872C177.797 272.5 177.377 272.314 176.801 272.314C176.345 272.314 175.943 272.428 175.595 272.656C175.247 272.884 174.851 273.22 174.407 273.664V280H172.931ZM184.738 280.216C184.006 280.216 183.394 280 182.902 279.568C182.422 279.136 182.182 278.524 182.182 277.732C182.182 276.772 182.608 276.04 183.46 275.536C184.312 275.02 185.674 274.66 187.546 274.456C187.546 274.18 187.516 273.91 187.456 273.646C187.408 273.382 187.318 273.148 187.186 272.944C187.054 272.74 186.868 272.578 186.628 272.458C186.4 272.326 186.106 272.26 185.746 272.26C185.242 272.26 184.768 272.356 184.324 272.548C183.88 272.74 183.484 272.956 183.136 273.196L182.56 272.17C182.968 271.906 183.466 271.654 184.054 271.414C184.642 271.162 185.29 271.036 185.998 271.036C187.066 271.036 187.84 271.366 188.32 272.026C188.8 272.674 189.04 273.544 189.04 274.636V280H187.816L187.69 278.956H187.636C187.216 279.304 186.766 279.604 186.286 279.856C185.806 280.096 185.29 280.216 184.738 280.216ZM185.17 279.028C185.59 279.028 185.986 278.932 186.358 278.74C186.73 278.536 187.126 278.242 187.546 277.858V275.428C186.814 275.524 186.196 275.638 185.692 275.77C185.2 275.902 184.798 276.058 184.486 276.238C184.186 276.418 183.964 276.628 183.82 276.868C183.688 277.096 183.622 277.348 183.622 277.624C183.622 278.128 183.772 278.488 184.072 278.704C184.372 278.92 184.738 279.028 185.17 279.028ZM194.3 280.216C193.832 280.216 193.436 280.144 193.112 280C192.8 279.856 192.542 279.658 192.338 279.406C192.146 279.154 192.008 278.848 191.924 278.488C191.84 278.128 191.798 277.732 191.798 277.3V272.458H190.502V271.342L191.87 271.252L192.05 268.804H193.292V271.252H195.65V272.458H193.292V277.318C193.292 277.858 193.388 278.278 193.58 278.578C193.784 278.866 194.138 279.01 194.642 279.01C194.798 279.01 194.966 278.986 195.146 278.938C195.326 278.89 195.488 278.836 195.632 278.776L195.92 279.892C195.68 279.976 195.416 280.048 195.128 280.108C194.852 280.18 194.576 280.216 194.3 280.216ZM203.284 280V275.428L199.738 268.192H201.34L202.87 271.522C203.062 271.954 203.248 272.38 203.428 272.8C203.608 273.22 203.8 273.652 204.004 274.096H204.076C204.28 273.652 204.484 273.22 204.688 272.8C204.892 272.38 205.084 271.954 205.264 271.522L206.776 268.192H208.342L204.796 275.428V280H203.284ZM214.046 280.216C213.302 280.216 212.618 280.072 211.994 279.784C211.382 279.496 210.854 279.088 210.41 278.56C209.966 278.02 209.618 277.372 209.366 276.616C209.126 275.848 209.006 274.99 209.006 274.042C209.006 273.094 209.126 272.248 209.366 271.504C209.618 270.748 209.966 270.112 210.41 269.596C210.854 269.068 211.382 268.666 211.994 268.39C212.618 268.114 213.302 267.976 214.046 267.976C214.79 267.976 215.468 268.12 216.08 268.408C216.704 268.684 217.238 269.086 217.682 269.614C218.138 270.13 218.486 270.766 218.726 271.522C218.978 272.266 219.104 273.106 219.104 274.042C219.104 274.99 218.978 275.848 218.726 276.616C218.486 277.372 218.138 278.02 217.682 278.56C217.238 279.088 216.704 279.496 216.08 279.784C215.468 280.072 214.79 280.216 214.046 280.216ZM214.046 278.902C214.574 278.902 215.048 278.788 215.468 278.56C215.9 278.332 216.266 278.008 216.566 277.588C216.878 277.156 217.118 276.646 217.286 276.058C217.454 275.458 217.538 274.786 217.538 274.042C217.538 273.31 217.454 272.65 217.286 272.062C217.118 271.474 216.878 270.976 216.566 270.568C216.266 270.16 215.9 269.848 215.468 269.632C215.048 269.404 214.574 269.29 214.046 269.29C213.518 269.29 213.038 269.404 212.606 269.632C212.186 269.848 211.82 270.16 211.508 270.568C211.208 270.976 210.974 271.474 210.806 272.062C210.638 272.65 210.554 273.31 210.554 274.042C210.554 274.786 210.638 275.458 210.806 276.058C210.974 276.646 211.208 277.156 211.508 277.588C211.82 278.008 212.186 278.332 212.606 278.56C213.038 278.788 213.518 278.902 214.046 278.902ZM225.837 280.216C225.237 280.216 224.673 280.132 224.145 279.964C223.629 279.784 223.179 279.496 222.795 279.1C222.423 278.692 222.129 278.164 221.913 277.516C221.697 276.868 221.589 276.07 221.589 275.122V268.192H223.083V275.158C223.083 275.866 223.155 276.46 223.299 276.94C223.443 277.42 223.635 277.804 223.875 278.092C224.127 278.38 224.421 278.59 224.757 278.722C225.093 278.842 225.453 278.902 225.837 278.902C226.233 278.902 226.599 278.842 226.935 278.722C227.271 278.59 227.565 278.38 227.817 278.092C228.069 277.804 228.267 277.42 228.411 276.94C228.555 276.46 228.627 275.866 228.627 275.158V268.192H230.067V275.122C230.067 276.07 229.959 276.868 229.743 277.516C229.527 278.164 229.227 278.692 228.843 279.1C228.471 279.496 228.027 279.784 227.511 279.964C226.995 280.132 226.437 280.216 225.837 280.216ZM236.849 280V268.192H238.397L242.663 275.608L243.941 278.056H244.013C243.977 277.456 243.935 276.838 243.887 276.202C243.851 275.554 243.833 274.918 243.833 274.294V268.192H245.255V280H243.707L239.423 272.566L238.145 270.136H238.073C238.121 270.736 238.163 271.348 238.199 271.972C238.247 272.584 238.271 273.202 238.271 273.826V280H236.849ZM248.503 280V268.192H255.307V269.452H249.997V273.16H254.479V274.438H249.997V278.722H255.487V280H248.503ZM257.995 280V268.192H264.799V269.452H259.489V273.16H263.971V274.438H259.489V278.722H264.979V280H257.995ZM267.487 280V268.192H270.439C272.263 268.192 273.649 268.696 274.597 269.704C275.545 270.712 276.019 272.158 276.019 274.042C276.019 274.978 275.899 275.818 275.659 276.562C275.419 277.294 275.065 277.918 274.597 278.434C274.129 278.938 273.553 279.328 272.869 279.604C272.185 279.868 271.399 280 270.511 280H267.487ZM268.981 278.776H270.331C271.711 278.776 272.743 278.362 273.427 277.534C274.123 276.706 274.471 275.542 274.471 274.042C274.471 272.542 274.123 271.396 273.427 270.604C272.743 269.812 271.711 269.416 270.331 269.416H268.981V278.776ZM279.029 276.436L278.831 269.632L278.795 267.94H280.289L280.253 269.632L280.055 276.436H279.029ZM279.551 280.216C279.251 280.216 278.993 280.114 278.777 279.91C278.573 279.694 278.471 279.424 278.471 279.1C278.471 278.752 278.573 278.476 278.777 278.272C278.993 278.056 279.251 277.948 279.551 277.948C279.839 277.948 280.085 278.056 280.289 278.272C280.505 278.476 280.613 278.752 280.613 279.1C280.613 279.424 280.505 279.694 280.289 279.91C280.085 280.114 279.839 280.216 279.551 280.216ZM97.5457 326.216C96.8017 326.216 96.0997 326.09 95.4397 325.838C94.7797 325.574 94.1977 325.19 93.6937 324.686C93.2017 324.182 92.8117 323.558 92.5237 322.814C92.2357 322.058 92.0917 321.188 92.0917 320.204C92.0917 319.232 92.2417 318.368 92.5417 317.612C92.8417 316.844 93.2437 316.196 93.7477 315.668C94.2517 315.14 94.8397 314.738 95.5117 314.462C96.1837 314.186 96.8917 314.048 97.6357 314.048C98.3917 314.048 99.0697 314.204 99.6697 314.516C100.27 314.816 100.768 315.17 101.164 315.578L99.7597 317.27C99.4597 316.994 99.1417 316.772 98.8057 316.604C98.4817 316.424 98.1097 316.334 97.6897 316.334C97.2937 316.334 96.9157 316.424 96.5557 316.604C96.2077 316.772 95.9017 317.018 95.6377 317.342C95.3857 317.666 95.1817 318.062 95.0257 318.53C94.8817 318.998 94.8097 319.526 94.8097 320.114C94.8097 321.326 95.0677 322.268 95.5837 322.94C96.0997 323.6 96.7897 323.93 97.6537 323.93C98.1337 323.93 98.5597 323.828 98.9317 323.624C99.3157 323.408 99.6517 323.144 99.9397 322.832L101.344 324.488C100.36 325.64 99.0937 326.216 97.5457 326.216ZM105.34 326.216C104.884 326.216 104.5 326.144 104.188 326C103.876 325.856 103.624 325.658 103.432 325.406C103.252 325.142 103.12 324.83 103.036 324.47C102.952 324.098 102.91 323.684 102.91 323.228V313.382H105.556V323.336C105.556 323.612 105.604 323.804 105.7 323.912C105.808 324.02 105.916 324.074 106.024 324.074C106.084 324.074 106.132 324.074 106.168 324.074C106.216 324.074 106.276 324.062 106.348 324.038L106.672 326C106.528 326.06 106.342 326.108 106.114 326.144C105.898 326.192 105.64 326.216 105.34 326.216ZM108.061 326V317.072H110.707V326H108.061ZM109.375 315.758C108.931 315.758 108.565 315.632 108.277 315.38C107.989 315.116 107.845 314.78 107.845 314.372C107.845 313.964 107.989 313.634 108.277 313.382C108.565 313.13 108.931 313.004 109.375 313.004C109.831 313.004 110.197 313.13 110.473 313.382C110.761 313.634 110.905 313.964 110.905 314.372C110.905 314.78 110.761 315.116 110.473 315.38C110.197 315.632 109.831 315.758 109.375 315.758ZM116.923 326.216C116.299 326.216 115.717 326.114 115.177 325.91C114.649 325.694 114.187 325.388 113.791 324.992C113.395 324.596 113.083 324.11 112.855 323.534C112.627 322.946 112.513 322.28 112.513 321.536C112.513 320.792 112.639 320.132 112.891 319.556C113.143 318.968 113.479 318.476 113.899 318.08C114.331 317.684 114.829 317.384 115.393 317.18C115.957 316.964 116.545 316.856 117.157 316.856C117.709 316.856 118.195 316.946 118.615 317.126C119.047 317.306 119.431 317.534 119.767 317.81L118.525 319.52C118.105 319.172 117.703 318.998 117.319 318.998C116.671 318.998 116.161 319.226 115.789 319.682C115.417 320.138 115.231 320.756 115.231 321.536C115.231 322.316 115.417 322.934 115.789 323.39C116.173 323.846 116.653 324.074 117.229 324.074C117.517 324.074 117.793 324.014 118.057 323.894C118.333 323.762 118.591 323.606 118.831 323.426L119.875 325.154C119.431 325.538 118.951 325.814 118.435 325.982C117.919 326.138 117.415 326.216 116.923 326.216ZM121.438 326V313.382H124.012V320.618H124.084L126.91 317.072H129.79L126.658 320.744L130.024 326H127.162L125.146 322.526L124.012 323.804V326H121.438ZM138.34 326.216C137.788 326.216 137.314 326.132 136.918 325.964C136.534 325.796 136.216 325.562 135.964 325.262C135.724 324.962 135.544 324.602 135.424 324.182C135.316 323.75 135.262 323.276 135.262 322.76V319.142H134.038V317.18L135.406 317.072L135.712 314.696H137.908V317.072H140.05V319.142H137.908V322.724C137.908 323.228 138.01 323.594 138.214 323.822C138.43 324.038 138.712 324.146 139.06 324.146C139.204 324.146 139.348 324.128 139.492 324.092C139.648 324.056 139.786 324.014 139.906 323.966L140.32 325.892C140.08 325.964 139.798 326.036 139.474 326.108C139.15 326.18 138.772 326.216 138.34 326.216ZM145.311 326.216C144.747 326.216 144.201 326.114 143.673 325.91C143.145 325.694 142.677 325.388 142.269 324.992C141.873 324.596 141.555 324.11 141.315 323.534C141.075 322.946 140.955 322.28 140.955 321.536C140.955 320.792 141.075 320.132 141.315 319.556C141.555 318.968 141.873 318.476 142.269 318.08C142.677 317.684 143.145 317.384 143.673 317.18C144.201 316.964 144.747 316.856 145.311 316.856C145.875 316.856 146.415 316.964 146.931 317.18C147.459 317.384 147.921 317.684 148.317 318.08C148.725 318.476 149.049 318.968 149.289 319.556C149.529 320.132 149.649 320.792 149.649 321.536C149.649 322.28 149.529 322.946 149.289 323.534C149.049 324.11 148.725 324.596 148.317 324.992C147.921 325.388 147.459 325.694 146.931 325.91C146.415 326.114 145.875 326.216 145.311 326.216ZM145.311 324.074C145.851 324.074 146.259 323.846 146.535 323.39C146.811 322.934 146.949 322.316 146.949 321.536C146.949 320.756 146.811 320.138 146.535 319.682C146.259 319.226 145.851 318.998 145.311 318.998C144.759 318.998 144.345 319.226 144.069 319.682C143.805 320.138 143.673 320.756 143.673 321.536C143.673 322.316 143.805 322.934 144.069 323.39C144.345 323.846 144.759 324.074 145.311 324.074ZM159.745 326.216C159.349 326.216 158.947 326.12 158.539 325.928C158.143 325.724 157.771 325.43 157.423 325.046H157.351L157.135 326H155.065V313.382H157.711V316.478L157.639 317.846C157.987 317.534 158.359 317.294 158.755 317.126C159.163 316.946 159.577 316.856 159.997 316.856C160.537 316.856 161.023 316.964 161.455 317.18C161.887 317.396 162.253 317.702 162.553 318.098C162.865 318.482 163.099 318.956 163.255 319.52C163.423 320.072 163.507 320.69 163.507 321.374C163.507 322.142 163.399 322.826 163.183 323.426C162.979 324.026 162.697 324.536 162.337 324.956C161.989 325.364 161.587 325.676 161.131 325.892C160.687 326.108 160.225 326.216 159.745 326.216ZM159.133 324.056C159.589 324.056 159.979 323.852 160.303 323.444C160.627 323.024 160.789 322.352 160.789 321.428C160.789 319.82 160.273 319.016 159.241 319.016C158.713 319.016 158.203 319.286 157.711 319.826V323.48C157.951 323.696 158.191 323.846 158.431 323.93C158.671 324.014 158.905 324.056 159.133 324.056ZM168.065 326.216C167.093 326.216 166.385 325.898 165.941 325.262C165.509 324.626 165.293 323.744 165.293 322.616V317.072H167.939V322.274C167.939 322.922 168.029 323.366 168.209 323.606C168.389 323.846 168.671 323.966 169.055 323.966C169.391 323.966 169.673 323.888 169.901 323.732C170.129 323.576 170.375 323.324 170.639 322.976V317.072H173.285V326H171.125L170.927 324.758H170.873C170.489 325.214 170.075 325.574 169.631 325.838C169.199 326.09 168.677 326.216 168.065 326.216ZM176.603 329.492C176.327 329.492 176.093 329.474 175.901 329.438C175.709 329.414 175.523 329.372 175.343 329.312L175.811 327.296C175.895 327.32 175.991 327.344 176.099 327.368C176.207 327.392 176.309 327.404 176.405 327.404C176.849 327.404 177.191 327.296 177.431 327.08C177.671 326.864 177.851 326.582 177.971 326.234L178.097 325.766L174.659 317.072H177.323L178.601 320.906C178.733 321.314 178.853 321.728 178.961 322.148C179.069 322.568 179.183 323 179.303 323.444H179.375C179.471 323.024 179.567 322.604 179.663 322.184C179.771 321.752 179.879 321.326 179.987 320.906L181.067 317.072H183.605L180.509 326.09C180.293 326.654 180.065 327.146 179.825 327.566C179.597 327.998 179.327 328.352 179.015 328.628C178.715 328.916 178.367 329.132 177.971 329.276C177.587 329.42 177.131 329.492 176.603 329.492ZM188.604 326V317.072H190.764L190.944 318.206H191.016C191.4 317.846 191.82 317.534 192.276 317.27C192.732 316.994 193.266 316.856 193.878 316.856C194.85 316.856 195.552 317.174 195.984 317.81C196.428 318.446 196.65 319.328 196.65 320.456V326H194.004V320.798C194.004 320.15 193.914 319.706 193.734 319.466C193.566 319.226 193.29 319.106 192.906 319.106C192.57 319.106 192.282 319.184 192.042 319.34C191.802 319.484 191.538 319.694 191.25 319.97V326H188.604ZM202.738 326.216C202.174 326.216 201.628 326.114 201.1 325.91C200.572 325.694 200.104 325.388 199.696 324.992C199.3 324.596 198.982 324.11 198.742 323.534C198.502 322.946 198.382 322.28 198.382 321.536C198.382 320.792 198.502 320.132 198.742 319.556C198.982 318.968 199.3 318.476 199.696 318.08C200.104 317.684 200.572 317.384 201.1 317.18C201.628 316.964 202.174 316.856 202.738 316.856C203.302 316.856 203.842 316.964 204.358 317.18C204.886 317.384 205.348 317.684 205.744 318.08C206.152 318.476 206.476 318.968 206.716 319.556C206.956 320.132 207.076 320.792 207.076 321.536C207.076 322.28 206.956 322.946 206.716 323.534C206.476 324.11 206.152 324.596 205.744 324.992C205.348 325.388 204.886 325.694 204.358 325.91C203.842 326.114 203.302 326.216 202.738 326.216ZM202.738 324.074C203.278 324.074 203.686 323.846 203.962 323.39C204.238 322.934 204.376 322.316 204.376 321.536C204.376 320.756 204.238 320.138 203.962 319.682C203.686 319.226 203.278 318.998 202.738 318.998C202.186 318.998 201.772 319.226 201.496 319.682C201.232 320.138 201.1 320.756 201.1 321.536C201.1 322.316 201.232 322.934 201.496 323.39C201.772 323.846 202.186 324.074 202.738 324.074ZM210.242 326L208.01 317.072H210.638L211.502 321.212C211.574 321.656 211.64 322.094 211.7 322.526C211.76 322.958 211.826 323.402 211.898 323.858H211.97C212.054 323.402 212.132 322.952 212.204 322.508C212.288 322.064 212.384 321.632 212.492 321.212L213.482 317.072H215.768L216.776 321.212C216.884 321.656 216.98 322.094 217.064 322.526C217.148 322.958 217.238 323.402 217.334 323.858H217.406C217.49 323.402 217.556 322.958 217.604 322.526C217.664 322.094 217.736 321.656 217.82 321.212L218.666 317.072H221.114L218.972 326H215.876L215.066 322.436C214.97 322.016 214.886 321.596 214.814 321.176C214.742 320.756 214.664 320.306 214.58 319.826H214.508C214.424 320.306 214.346 320.756 214.274 321.176C214.214 321.596 214.142 322.016 214.058 322.436L213.266 326H210.242ZM223.749 321.842L223.371 316.334L223.281 313.94H225.945L225.855 316.334L225.477 321.842H223.749ZM224.613 326.216C224.157 326.216 223.773 326.06 223.461 325.748C223.161 325.424 223.011 325.028 223.011 324.56C223.011 324.08 223.161 323.684 223.461 323.372C223.773 323.048 224.157 322.886 224.613 322.886C225.069 322.886 225.447 323.048 225.747 323.372C226.059 323.684 226.215 324.08 226.215 324.56C226.215 325.028 226.059 325.424 225.747 325.748C225.447 326.06 225.069 326.216 224.613 326.216Z" fill="black"/>
<path d="M123.375 303.216C122.571 303.216 121.815 303.09 121.107 302.838C120.411 302.574 119.805 302.19 119.289 301.686C118.773 301.182 118.365 300.558 118.065 299.814C117.777 299.058 117.633 298.188 117.633 297.204C117.633 296.232 117.783 295.368 118.083 294.612C118.383 293.844 118.791 293.196 119.307 292.668C119.835 292.14 120.447 291.738 121.143 291.462C121.839 291.186 122.577 291.048 123.357 291.048C124.209 291.048 124.941 291.204 125.553 291.516C126.165 291.828 126.663 292.182 127.047 292.578L125.661 294.27C125.361 294.006 125.043 293.784 124.707 293.604C124.371 293.424 123.951 293.334 123.447 293.334C122.991 293.334 122.571 293.424 122.187 293.604C121.815 293.772 121.491 294.018 121.215 294.342C120.939 294.666 120.723 295.062 120.567 295.53C120.423 295.998 120.351 296.526 120.351 297.114C120.351 298.326 120.621 299.268 121.161 299.94C121.713 300.6 122.541 300.93 123.645 300.93C123.885 300.93 124.119 300.9 124.347 300.84C124.575 300.78 124.761 300.69 124.905 300.57V298.554H122.961V296.394H127.245V301.794C126.837 302.19 126.297 302.526 125.625 302.802C124.953 303.078 124.203 303.216 123.375 303.216ZM129.453 303V294.072H131.613L131.793 295.638H131.865C132.189 295.026 132.579 294.576 133.035 294.288C133.491 294 133.947 293.856 134.403 293.856C134.655 293.856 134.859 293.874 135.015 293.91C135.183 293.934 135.333 293.976 135.465 294.036L135.033 296.322C134.865 296.274 134.709 296.238 134.565 296.214C134.421 296.19 134.253 296.178 134.061 296.178C133.725 296.178 133.371 296.298 132.999 296.538C132.639 296.778 132.339 297.204 132.099 297.816V303H129.453ZM140.445 303.216C139.809 303.216 139.215 303.114 138.663 302.91C138.111 302.694 137.631 302.388 137.223 301.992C136.815 301.584 136.497 301.092 136.269 300.516C136.041 299.94 135.927 299.28 135.927 298.536C135.927 297.816 136.047 297.168 136.287 296.592C136.527 296.004 136.839 295.512 137.223 295.116C137.619 294.708 138.069 294.396 138.573 294.18C139.077 293.964 139.599 293.856 140.139 293.856C140.775 293.856 141.327 293.964 141.795 294.18C142.275 294.396 142.671 294.696 142.983 295.08C143.307 295.464 143.547 295.92 143.703 296.448C143.859 296.964 143.937 297.528 143.937 298.14C143.937 298.38 143.925 298.608 143.901 298.824C143.877 299.04 143.853 299.202 143.829 299.31H138.483C138.603 299.958 138.867 300.438 139.275 300.75C139.695 301.05 140.205 301.2 140.805 301.2C141.441 301.2 142.083 301.002 142.731 300.606L143.613 302.208C143.157 302.52 142.647 302.766 142.083 302.946C141.531 303.126 140.985 303.216 140.445 303.216ZM138.465 297.564H141.687C141.687 297.06 141.573 296.652 141.345 296.34C141.117 296.028 140.733 295.872 140.193 295.872C139.773 295.872 139.401 296.01 139.077 296.286C138.765 296.562 138.561 296.988 138.465 297.564ZM147.822 303.216C147.414 303.216 147.042 303.144 146.706 303C146.382 302.868 146.106 302.682 145.878 302.442C145.65 302.19 145.47 301.902 145.338 301.578C145.218 301.254 145.158 300.9 145.158 300.516C145.158 299.58 145.554 298.848 146.346 298.32C147.138 297.792 148.416 297.438 150.18 297.258C150.156 296.862 150.036 296.55 149.82 296.322C149.616 296.082 149.268 295.962 148.776 295.962C148.392 295.962 148.008 296.034 147.624 296.178C147.252 296.322 146.85 296.52 146.418 296.772L145.464 295.026C146.04 294.678 146.64 294.396 147.264 294.18C147.9 293.964 148.572 293.856 149.28 293.856C150.432 293.856 151.308 294.186 151.908 294.846C152.52 295.494 152.826 296.508 152.826 297.888V303H150.666L150.486 302.082H150.414C150.03 302.418 149.628 302.694 149.208 302.91C148.788 303.114 148.326 303.216 147.822 303.216ZM148.722 301.164C149.022 301.164 149.28 301.098 149.496 300.966C149.712 300.834 149.94 300.648 150.18 300.408V298.842C149.244 298.974 148.596 299.166 148.236 299.418C147.876 299.67 147.696 299.97 147.696 300.318C147.696 300.606 147.786 300.822 147.966 300.966C148.158 301.098 148.41 301.164 148.722 301.164ZM158.186 303.216C157.634 303.216 157.16 303.132 156.764 302.964C156.38 302.796 156.062 302.562 155.81 302.262C155.57 301.962 155.39 301.602 155.27 301.182C155.162 300.75 155.108 300.276 155.108 299.76V296.142H153.884V294.18L155.252 294.072L155.558 291.696H157.754V294.072H159.896V296.142H157.754V299.724C157.754 300.228 157.856 300.594 158.06 300.822C158.276 301.038 158.558 301.146 158.906 301.146C159.05 301.146 159.194 301.128 159.338 301.092C159.494 301.056 159.632 301.014 159.752 300.966L160.166 302.892C159.926 302.964 159.644 303.036 159.32 303.108C158.996 303.18 158.618 303.216 158.186 303.216ZM167.87 303.216C167.282 303.216 166.676 303.102 166.052 302.874C165.44 302.646 164.906 302.346 164.45 301.974L165.638 300.318C166.046 300.63 166.436 300.864 166.808 301.02C167.18 301.176 167.558 301.254 167.942 301.254C168.338 301.254 168.626 301.188 168.806 301.056C168.986 300.924 169.076 300.738 169.076 300.498C169.076 300.354 169.022 300.228 168.914 300.12C168.818 300 168.68 299.892 168.5 299.796C168.332 299.7 168.14 299.616 167.924 299.544C167.708 299.46 167.486 299.37 167.258 299.274C166.982 299.166 166.706 299.04 166.43 298.896C166.154 298.752 165.902 298.578 165.674 298.374C165.446 298.158 165.26 297.912 165.116 297.636C164.972 297.348 164.9 297.018 164.9 296.646C164.9 296.238 164.978 295.86 165.134 295.512C165.302 295.164 165.536 294.87 165.836 294.63C166.136 294.39 166.496 294.204 166.916 294.072C167.336 293.928 167.804 293.856 168.32 293.856C169.004 293.856 169.604 293.976 170.12 294.216C170.636 294.444 171.086 294.702 171.47 294.99L170.282 296.574C169.958 296.334 169.64 296.148 169.328 296.016C169.016 295.884 168.704 295.818 168.392 295.818C167.72 295.818 167.384 296.052 167.384 296.52C167.384 296.664 167.432 296.79 167.528 296.898C167.624 296.994 167.75 297.084 167.906 297.168C168.074 297.252 168.26 297.336 168.464 297.42C168.68 297.492 168.902 297.57 169.13 297.654C169.418 297.762 169.7 297.888 169.976 298.032C170.264 298.164 170.522 298.332 170.75 298.536C170.99 298.74 171.182 298.992 171.326 299.292C171.47 299.58 171.542 299.928 171.542 300.336C171.542 300.744 171.464 301.122 171.308 301.47C171.152 301.818 170.918 302.124 170.606 302.388C170.294 302.64 169.91 302.844 169.454 303C168.998 303.144 168.47 303.216 167.87 303.216ZM175.473 303.216C175.065 303.216 174.693 303.144 174.357 303C174.033 302.868 173.757 302.682 173.529 302.442C173.301 302.19 173.121 301.902 172.989 301.578C172.869 301.254 172.809 300.9 172.809 300.516C172.809 299.58 173.205 298.848 173.997 298.32C174.789 297.792 176.067 297.438 177.831 297.258C177.807 296.862 177.687 296.55 177.471 296.322C177.267 296.082 176.919 295.962 176.427 295.962C176.043 295.962 175.659 296.034 175.275 296.178C174.903 296.322 174.501 296.52 174.069 296.772L173.115 295.026C173.691 294.678 174.291 294.396 174.915 294.18C175.551 293.964 176.223 293.856 176.931 293.856C178.083 293.856 178.959 294.186 179.559 294.846C180.171 295.494 180.477 296.508 180.477 297.888V303H178.317L178.137 302.082H178.065C177.681 302.418 177.279 302.694 176.859 302.91C176.439 303.114 175.977 303.216 175.473 303.216ZM176.373 301.164C176.673 301.164 176.931 301.098 177.147 300.966C177.363 300.834 177.591 300.648 177.831 300.408V298.842C176.895 298.974 176.247 299.166 175.887 299.418C175.527 299.67 175.347 299.97 175.347 300.318C175.347 300.606 175.437 300.822 175.617 300.966C175.809 301.098 176.061 301.164 176.373 301.164ZM185.145 303.216C184.689 303.216 184.305 303.144 183.993 303C183.681 302.856 183.429 302.658 183.237 302.406C183.057 302.142 182.925 301.83 182.841 301.47C182.757 301.098 182.715 300.684 182.715 300.228V290.382H185.361V300.336C185.361 300.612 185.409 300.804 185.505 300.912C185.613 301.02 185.721 301.074 185.829 301.074C185.889 301.074 185.937 301.074 185.973 301.074C186.021 301.074 186.081 301.062 186.153 301.038L186.477 303C186.333 303.06 186.147 303.108 185.919 303.144C185.703 303.192 185.445 303.216 185.145 303.216ZM191.861 303.216C191.225 303.216 190.631 303.114 190.079 302.91C189.527 302.694 189.047 302.388 188.639 301.992C188.231 301.584 187.913 301.092 187.685 300.516C187.457 299.94 187.343 299.28 187.343 298.536C187.343 297.816 187.463 297.168 187.703 296.592C187.943 296.004 188.255 295.512 188.639 295.116C189.035 294.708 189.485 294.396 189.989 294.18C190.493 293.964 191.015 293.856 191.555 293.856C192.191 293.856 192.743 293.964 193.211 294.18C193.691 294.396 194.087 294.696 194.399 295.08C194.723 295.464 194.963 295.92 195.119 296.448C195.275 296.964 195.353 297.528 195.353 298.14C195.353 298.38 195.341 298.608 195.317 298.824C195.293 299.04 195.269 299.202 195.245 299.31H189.899C190.019 299.958 190.283 300.438 190.691 300.75C191.111 301.05 191.621 301.2 192.221 301.2C192.857 301.2 193.499 301.002 194.147 300.606L195.029 302.208C194.573 302.52 194.063 302.766 193.499 302.946C192.947 303.126 192.401 303.216 191.861 303.216ZM189.881 297.564H193.103C193.103 297.06 192.989 296.652 192.761 296.34C192.533 296.028 192.149 295.872 191.609 295.872C191.189 295.872 190.817 296.01 190.493 296.286C190.181 296.562 189.977 296.988 189.881 297.564ZM198.208 298.842L197.83 293.334L197.74 290.94H200.404L200.314 293.334L199.936 298.842H198.208ZM199.072 303.216C198.616 303.216 198.232 303.06 197.92 302.748C197.62 302.424 197.47 302.028 197.47 301.56C197.47 301.08 197.62 300.684 197.92 300.372C198.232 300.048 198.616 299.886 199.072 299.886C199.528 299.886 199.906 300.048 200.206 300.372C200.518 300.684 200.674 301.08 200.674 301.56C200.674 302.028 200.518 302.424 200.206 302.748C199.906 303.06 199.528 303.216 199.072 303.216Z" fill="#00A739"/>
<path d="M199.756 281.8H276.937V282.7H199.756V281.8Z" fill="black"/>
</svg>
