<svg width="144" height="36" viewBox="0 0 144 36" fill="none" xmlns="http://www.w3.org/2000/svg">
<g clip-path="url(#clip0)">
<path d="M69.9046 7.64673C72.1144 7.64673 73.9058 5.94717 73.9058 3.85065C73.9058 1.75413 72.1144 0.0545654 69.9046 0.0545654C67.6946 0.0545654 65.9032 1.75413 65.9032 3.85065C65.9032 5.94717 67.6946 7.64673 69.9046 7.64673Z" fill="black"/>
<path d="M66.8635 12.8816V34.5067C66.8635 35.6761 68.4387 35.9819 70.0138 35.9819C71.589 35.9819 73.1643 35.6761 73.1643 34.5067V12.8816C73.1643 11.3164 71.589 11.1005 70.0138 11.1005C68.4568 11.1005 66.8635 11.3164 66.8635 12.8816Z" fill="black"/>
<path d="M80.0991 1.7811V34.5066C80.0991 35.676 81.6743 35.9818 83.2494 35.9818C84.8247 35.9818 86.3999 35.676 86.3999 34.5066V1.7811C86.3999 0.21589 84.8247 0 83.2494 0C81.6924 0 80.0991 0.21589 80.0991 1.7811Z" fill="black"/>
<path d="M34.8516 23.1365C34.8516 16.3359 40.3194 10.2729 48.2134 10.2729C56.0712 10.2729 61.6657 16.2279 61.6657 23.1005C61.6657 30.4947 55.4556 36 48.2857 36C40.3375 35.982 34.8516 29.919 34.8516 23.1365ZM48.1953 30.7466C52.3957 30.7466 55.546 27.3104 55.546 23.0825C55.546 18.8546 52.3957 15.5084 48.1953 15.5084C43.9948 15.5084 40.8988 18.9086 40.8988 23.1365C40.8988 27.3644 43.9948 30.7466 48.1953 30.7466Z" fill="black"/>
<path d="M31.232 29.3564C31.232 32.6487 23.5009 35.9771 18.1236 35.9771C11.5332 35.9771 5.35921 32.4687 2.20887 26.8196C0.724218 24.1929 0 21.2064 0 18.2199C0 14.7477 0.9958 11.2755 2.95119 8.30696C4.50827 5.93216 7.45946 2.76575 12.6557 1.0746C13.9593 0.642819 16.313 0.0311279 18.9564 0.0311279C26.3796 0.0311279 31.0509 5.19453 31.0509 9.71025C31.0509 12.8047 28.5161 17.2125 22.3059 17.2125C19.4634 17.2125 18.5037 16.0251 18.5037 14.6577C18.5037 12.8227 20.2238 10.6818 21.4731 10.6818C21.9981 10.6818 22.3241 11.2035 23.3379 11.0596C24.3337 10.9156 24.8587 10.25 24.8587 9.42239C24.8587 7.85718 22.9939 5.77023 19.0289 5.77023C17.7615 5.77023 16.2768 5.98613 14.5568 6.50786C11.0262 7.56933 9.08893 10.0881 8.05692 11.6533C6.75333 13.6323 6.10153 15.9531 6.10153 18.2379C6.10153 20.199 6.59038 22.16 7.54998 23.8871C9.6321 27.5933 13.7239 29.9141 18.1236 29.9141C24.1889 29.9141 25.8908 26.6757 27.122 26.154C29.2947 25.2005 31.232 27.8091 31.232 29.3564Z" fill="black"/>
</g>
<defs>
<clipPath id="clip0">
<rect width="144" height="36" fill="white"/>
</clipPath>
</defs>
</svg>
