<svg width="4328" height="2028" viewBox="0 0 4328 2028" fill="none" xmlns="http://www.w3.org/2000/svg">
<g clip-path="url(#clip0)">
<rect y="1015" width="4328" height="1013" fill="#C4C4C4"/>
<rect x="-333" y="1099" width="2890" height="852" rx="422.5" fill="white"/>
<path d="M2042.5 1250.54L2105.58 1444.68C2107.59 1450.86 2113.35 1455.04 2119.85 1455.04H2323.97L2158.83 1575.03C2153.57 1578.85 2151.37 1585.62 2153.38 1591.8L2216.46 1785.94L2051.32 1665.95C2046.06 1662.13 2038.94 1662.13 2033.68 1665.95L1868.54 1785.94L1931.62 1591.8C1933.63 1585.62 1931.43 1578.85 1926.17 1575.03L1761.03 1455.04H1965.15C1971.65 1455.04 1977.41 1450.86 1979.42 1444.68L2042.5 1250.54Z" stroke="#C4C4C4" stroke-width="30" stroke-linecap="round" stroke-linejoin="round"/>
<path d="M0 0H4063C4209.36 0 4328 118.645 4328 265V1015H0V0Z" fill="#757575"/>
<circle cx="3725.5" cy="507.5" r="236.5" fill="#404040"/>
<circle cx="2353.5" cy="507.5" r="236.5" fill="#404040"/>
<circle cx="3045.5" cy="507.5" r="236.5" fill="#404040"/>
<circle cx="3116.5" cy="1521.5" r="302" fill="#E9CBA3" stroke="black"/>
<path d="M3242.5 1504C3242.5 1523.63 3229.59 1542.58 3206.23 1557.02C3182.98 1571.37 3150.39 1580.5 3114 1580.5C3077.61 1580.5 3045.02 1571.37 3021.77 1557.02C2998.41 1542.58 2985.5 1523.63 2985.5 1504C2985.5 1484.37 2998.41 1465.42 3021.77 1450.98C3045.02 1436.63 3077.61 1427.5 3114 1427.5C3150.39 1427.5 3182.98 1436.63 3206.23 1450.98C3229.59 1465.42 3242.5 1484.37 3242.5 1504Z" fill="black" stroke="black" stroke-width="15"/>
<path d="M3068.94 1531.9L3077.69 1511.62L3100.88 1495.79L3114.44 1477L3132.81 1499.75L3150.31 1511.62L3159.06 1531.9C3159.21 1547.4 3248.95 1609.06 3306 1615H2944C3001.05 1609.06 3068.79 1547.4 3068.94 1531.9Z" fill="#F2A8C3" stroke="#F2A8C3" stroke-width="9"/>
<path d="M3346.91 1590.16L3226 1579L3293.9 1625.1L3359 1629L3346.91 1590.16Z" fill="#E9CBA3"/>
<path d="M3021 1569H2845L2854.5 1615.94L2939 1631.5L3021 1569Z" fill="#E9CBA3"/>
<path d="M2922 1360.5C2902.8 1360.5 2854.67 1427.17 2833 1460.5L2882 1354L2967 1272L3112.5 1234.5L3212.5 1254L3288.5 1296L3364 1371L3394 1460.5C3372.33 1427.17 3324.2 1360.5 3305 1360.5C3285.8 1360.5 3244 1363.83 3225.5 1365.5L3188.5 1360.5C3204.5 1345 3231.7 1313.4 3212.5 1311C3193.3 1308.6 3143.5 1323.33 3121 1331L3106 1331C3083.5 1323.33 3033.7 1308.6 3014.5 1311C2995.3 1313.4 3022.5 1345 3038.5 1360.5L3001.5 1365.5C2983 1363.83 2941.2 1360.5 2922 1360.5Z" fill="#C47233"/>
<path d="M2991.5 1351.03C2986 1355.03 2971.54 1364.69 2965 1369.02H2977.76C2986.92 1375.68 3007.4 1389 3016.04 1389C3026.83 1389 3035.67 1385 3042.54 1382.01C3048.03 1379.61 3059.22 1383.01 3064.13 1385L3071 1372.02C3068.06 1369.68 3058.44 1362.82 3043.52 1354.03C3028.6 1345.24 3020.94 1343.71 3018.98 1344.04C3012.11 1344.71 2997 1347.04 2991.5 1351.03Z" fill="black" stroke="black" stroke-width="7" stroke-linejoin="round"/>
<path d="M3240.5 1351.03C3246 1355.03 3260.46 1364.69 3267 1369.02H3254.24C3245.08 1375.68 3224.6 1389 3215.96 1389C3205.17 1389 3196.33 1385 3189.46 1382.01C3183.97 1379.61 3172.78 1383.01 3167.87 1385L3161 1372.02C3163.94 1369.68 3173.56 1362.82 3188.48 1354.03C3203.4 1345.24 3211.06 1343.71 3213.02 1344.04C3219.89 1344.71 3235 1347.04 3240.5 1351.03Z" fill="black" stroke="black" stroke-width="7" stroke-linejoin="round"/>
<ellipse cx="3116" cy="1694.5" rx="203" ry="129.5" fill="#F2A8C3"/>
<path d="M3158 1514.5C3157.67 1519.17 3159.5 1530.7 3169.5 1539.5C3182 1550.5 3194.5 1560.5 3214 1573C3233.5 1585.5 3283 1617.5 3293 1631C3303 1644.5 3311.5 1651.5 3318 1675.5C3323.2 1694.7 3314.17 1722.5 3309 1734" stroke="#EF5E92" stroke-width="20"/>
<path d="M3070.56 1514C3070.89 1518.67 3069.06 1530.2 3059.06 1539C3046.56 1550 3034.06 1560 3014.56 1572.5C2995.06 1585 2945.56 1617 2935.56 1630.5C2925.56 1644 2917.06 1651 2910.56 1675C2905.36 1694.2 2914.39 1722 2919.56 1733.5" stroke="#EF5E92" stroke-width="20"/>
<path d="M3109.5 1467C3109.5 1478.63 3101.85 1490.33 3086.99 1499.51C3072.25 1508.62 3051.41 1514.5 3028 1514.5C3004.59 1514.5 2983.75 1508.62 2969.01 1499.51C2954.15 1490.33 2946.5 1478.63 2946.5 1467C2946.5 1455.37 2954.15 1443.67 2969.01 1434.49C2983.75 1425.38 3004.59 1419.5 3028 1419.5C3051.41 1419.5 3072.25 1425.38 3086.99 1434.49C3101.85 1443.67 3109.5 1455.37 3109.5 1467Z" fill="#E9CBA3" stroke="black" stroke-width="15"/>
<path d="M3280.5 1467C3280.5 1478.63 3272.85 1490.33 3257.99 1499.51C3243.25 1508.62 3222.41 1514.5 3199 1514.5C3175.59 1514.5 3154.75 1508.62 3140.01 1499.51C3125.15 1490.33 3117.5 1478.63 3117.5 1467C3117.5 1455.37 3125.15 1443.67 3140.01 1434.49C3154.75 1425.38 3175.59 1419.5 3199 1419.5C3222.41 1419.5 3243.25 1425.38 3257.99 1434.49C3272.85 1443.67 3280.5 1455.37 3280.5 1467Z" fill="#E9CBA3" stroke="black" stroke-width="15"/>
<path d="M3188.5 1551C3150 1519 3116.5 1544.5 3116.5 1544.5C3116.5 1544.5 3083 1517 3039 1551" stroke="#EF5E92" stroke-width="20" stroke-linejoin="round"/>
<path d="M3202 1543C3163.05 1514.2 3117.03 1528.6 3117.03 1528.6C3117.03 1528.6 3067.47 1514.2 3026.5 1543" stroke="black" stroke-width="15" stroke-linejoin="round"/>
<path d="M3112.5 1472.5L3180.5 1527L3144 1522.5L3116 1534L3086 1522.5L3050.5 1527L3112.5 1472.5Z" fill="black"/>
<rect x="2918" y="1403" width="398" height="74" fill="#E9CBA3"/>
<path d="M3053.5 1467.5C3053.5 1481.1 3094.17 1479.5 3114.5 1477C3134.83 1479.5 3175.5 1481.1 3175.5 1467.5C3175.5 1450.5 3161 1428 3145 1428H3084C3068 1428 3053.5 1450.5 3053.5 1467.5Z" fill="black" stroke="black"/>
<circle cx="3116.5" cy="1521.5" r="290" stroke="black" stroke-width="25"/>
<ellipse cx="3204.5" cy="1356" rx="5.5" ry="4" fill="white"/>
<ellipse cx="3204.5" cy="1356" rx="5.5" ry="4" fill="white"/>
<ellipse cx="3204.5" cy="1356" rx="5.5" ry="4" fill="white"/>
<ellipse cx="3003.5" cy="1356" rx="5.5" ry="4" fill="white"/>
<ellipse cx="3003.5" cy="1356" rx="5.5" ry="4" fill="white"/>
<ellipse cx="3003.5" cy="1356" rx="5.5" ry="4" fill="white"/>
<ellipse cx="3116" cy="1701.5" rx="172" ry="69.5" fill="white" fill-opacity="0.2"/>
<path d="M3202.37 1675.5C3202.37 1626.97 3163.03 1587.62 3114.5 1587.62C3065.97 1587.62 3026.62 1626.97 3026.62 1675.5C3026.62 1724.03 3065.97 1763.37 3114.5 1763.37C3163.03 1763.37 3202.37 1724.03 3202.37 1675.5Z" stroke="#EF5E92" stroke-width="16"/>
<path d="M3102.82 1694.39C3102.82 1691.57 3101.95 1689.25 3100.22 1687.43C3098.49 1685.58 3095.61 1683.92 3091.57 1682.46C3087.53 1680.97 3084.39 1679.6 3082.14 1678.34C3074.68 1674.2 3070.94 1668.07 3070.94 1659.96C3070.94 1654.46 3072.56 1649.94 3075.8 1646.39C3079.04 1642.85 3082.46 1640.84 3088.01 1640.18V1629.25H3096.66V1640.18C3102.24 1641.01 3106.55 1643.46 3109.6 1647.53C3112.64 1651.58 3114.16 1656.84 3114.16 1663.34H3102.53C3102.53 1659.16 3101.62 1655.88 3099.79 1653.5C3097.99 1651.08 3095.54 1649.87 3092.43 1649.87C3089.36 1649.87 3086.95 1650.73 3085.22 1652.45C3083.49 1654.18 3082.62 1656.64 3082.62 1659.86C3082.62 1662.74 3083.47 1665.06 3085.17 1666.81C3086.9 1668.54 3089.82 1670.18 3093.92 1671.73C3098.03 1673.29 3101.25 1674.73 3103.59 1676.05C3105.93 1677.38 3107.9 1678.9 3109.5 1680.63C3111.1 1682.32 3112.34 1684.27 3113.2 1686.49C3114.07 1688.71 3114.5 1691.31 3114.5 1694.29C3114.5 1699.89 3112.83 1704.43 3109.5 1707.9C3106.2 1711.38 3102.19 1713.49 3096.26 1714.11V1721.75H3088.01V1714.11C3081.66 1713.39 3076.78 1711.03 3073.35 1707.06C3069.95 1703.08 3068.25 1697.82 3068.25 1691.26H3079.93C3079.93 1695.43 3080.94 1698.66 3082.96 1700.95C3085.01 1703.23 3087.9 1704.38 3091.62 1704.38C3095.27 1704.38 3098.04 1703.47 3099.93 1701.64C3101.86 1699.82 3102.82 1697.4 3102.82 1694.39Z" fill="#EF5E92"/>
<path d="M3137.62 1667.79H3129.92V1690.92H3137.62V1667.79Z" fill="#EF5E92"/>
<path d="M3153.04 1660.08H3145.33V1698.63H3153.04V1660.08Z" fill="#EF5E92"/>
<path d="M3168.46 1652.38H3160.75V1706.33H3168.46V1652.38Z" fill="#EF5E92"/>
<rect x="3199" y="1475" width="417" height="459" rx="29" fill="#EF5E92" stroke="black" stroke-width="34"/>
<path d="M3387.3 1886.2V1844.2C3374.98 1842.8 3361.96 1839.44 3348.24 1834.12C3334.8 1828.52 3323.18 1821.24 3313.38 1812.28L3340.26 1770.7C3350.9 1778.82 3360.98 1784.98 3370.5 1789.18C3380.3 1793.1 3390.24 1795.06 3400.32 1795.06C3412.08 1795.06 3420.62 1792.68 3425.94 1787.92C3431.54 1783.16 3434.34 1775.88 3434.34 1766.08C3434.34 1758.8 3431.54 1752.64 3425.94 1747.6C3420.62 1742.56 3413.76 1737.8 3405.36 1733.32C3397.24 1728.56 3388.42 1723.94 3378.9 1719.46C3369.38 1714.7 3360.42 1709.1 3352.02 1702.66C3343.9 1696.22 3337.04 1688.66 3331.44 1679.98C3326.12 1671.3 3323.46 1660.66 3323.46 1648.06C3323.46 1627.34 3329.06 1610.26 3340.26 1596.82C3351.74 1583.1 3367.42 1574.28 3387.3 1570.36V1527.1H3428.04V1569.52C3441.48 1571.48 3453.24 1575.54 3463.32 1581.7C3473.4 1587.86 3482.5 1595.28 3490.62 1603.96L3459.54 1639.24C3451.98 1632.24 3444.7 1627.06 3437.7 1623.7C3430.7 1620.06 3422.72 1618.24 3413.76 1618.24C3403.68 1618.24 3395.98 1620.34 3390.66 1624.54C3385.34 1628.74 3382.68 1635.6 3382.68 1645.12C3382.68 1651.84 3385.34 1657.58 3390.66 1662.34C3396.26 1666.82 3403.12 1671.16 3411.24 1675.36C3419.64 1679.56 3428.6 1683.9 3438.12 1688.38C3447.64 1692.86 3456.46 1698.32 3464.58 1704.76C3472.98 1711.2 3479.84 1719.04 3485.16 1728.28C3490.76 1737.24 3493.56 1748.44 3493.56 1761.88C3493.56 1782.04 3488.1 1799.4 3477.18 1813.96C3466.26 1828.24 3449.88 1837.76 3428.04 1842.52V1886.2H3387.3Z" fill="white"/>
</g>
<defs>
<clipPath id="clip0">
<rect width="4328" height="2028" fill="white"/>
</clipPath>
</defs>
</svg>
