<svg width="4328" height="2028" viewBox="0 0 4328 2028" fill="none" xmlns="http://www.w3.org/2000/svg">
<g clip-path="url(#clip0)">
<rect y="1015" width="4328" height="1013" fill="#C4C4C4"/>
<rect x="-333" y="1099" width="2890" height="852" rx="422.5" fill="white"/>
<path d="M2042.5 1250.54L2105.58 1444.68C2107.59 1450.86 2113.35 1455.04 2119.85 1455.04H2323.97L2158.83 1575.03C2153.57 1578.85 2151.37 1585.62 2153.38 1591.8L2216.46 1785.94L2051.32 1665.95C2046.06 1662.13 2038.94 1662.13 2033.68 1665.95L1868.54 1785.94L1931.62 1591.8C1933.63 1585.62 1931.43 1578.85 1926.17 1575.03L1761.03 1455.04H1965.15C1971.65 1455.04 1977.41 1450.86 1979.42 1444.68L2042.5 1250.54Z" stroke="#C4C4C4" stroke-width="30" stroke-linecap="round" stroke-linejoin="round"/>
<path d="M0 0H4063C4209.36 0 4328 118.645 4328 265V1015H0V0Z" fill="#757575"/>
<circle cx="3725.5" cy="507.5" r="236.5" fill="#404040"/>
<circle cx="2353.5" cy="507.5" r="236.5" fill="#404040"/>
<circle cx="3045.5" cy="507.5" r="236.5" fill="#404040"/>
<circle cx="3111.5" cy="1521.5" r="302" fill="#E9CBA3" stroke="black"/>
<path d="M2917 1360.5C2897.8 1360.5 2849.67 1427.17 2828 1460.5L2877 1354L2962 1272L3107.5 1234.5L3207.5 1254L3283.5 1296L3359 1371L3389 1460.5C3367.33 1427.17 3319.2 1360.5 3300 1360.5C3280.8 1360.5 3239 1363.83 3220.5 1365.5L3183.5 1360.5C3199.5 1345 3226.7 1313.4 3207.5 1311C3188.3 1308.6 3138.5 1323.33 3116 1331L3101 1331C3078.5 1323.33 3028.7 1308.6 3009.5 1311C2990.3 1313.4 3017.5 1345 3033.5 1360.5L2996.5 1365.5C2978 1363.83 2936.2 1360.5 2917 1360.5Z" fill="#C47233"/>
<path d="M2986.5 1351.03C2981 1355.03 2966.54 1364.69 2960 1369.02H2972.76C2981.92 1375.68 3002.4 1389 3011.04 1389C3021.83 1389 3030.67 1385 3037.54 1382.01C3043.03 1379.61 3054.22 1383.01 3059.13 1385L3066 1372.02C3063.06 1369.68 3053.44 1362.82 3038.52 1354.03C3023.6 1345.24 3015.94 1343.71 3013.98 1344.04C3007.11 1344.71 2992 1347.04 2986.5 1351.03Z" fill="black" stroke="black" stroke-width="7" stroke-linejoin="round"/>
<path d="M3235.5 1351.03C3241 1355.03 3255.46 1364.69 3262 1369.02H3249.24C3240.08 1375.68 3219.6 1389 3210.96 1389C3200.17 1389 3191.33 1385 3184.46 1382.01C3178.97 1379.61 3167.78 1383.01 3162.87 1385L3156 1372.02C3158.94 1369.68 3168.56 1362.82 3183.48 1354.03C3198.4 1345.24 3206.06 1343.71 3208.02 1344.04C3214.89 1344.71 3230 1347.04 3235.5 1351.03Z" fill="black" stroke="black" stroke-width="7" stroke-linejoin="round"/>
<path d="M3102 1467C3102 1477.44 3095.12 1488.46 3080.68 1497.38C3066.39 1506.21 3046.02 1512 3023 1512C2999.98 1512 2979.61 1506.21 2965.32 1497.38C2950.88 1488.46 2944 1477.44 2944 1467C2944 1456.56 2950.88 1445.54 2965.32 1436.62C2979.61 1427.79 2999.98 1422 3023 1422C3046.02 1422 3066.39 1427.79 3080.68 1436.62C3095.12 1445.54 3102 1456.56 3102 1467Z" fill="#E9CBA3" stroke="black" stroke-width="20"/>
<path d="M3273 1467C3273 1477.44 3266.12 1488.46 3251.68 1497.38C3237.39 1506.21 3217.02 1512 3194 1512C3170.98 1512 3150.61 1506.21 3136.32 1497.38C3121.88 1488.46 3115 1477.44 3115 1467C3115 1456.56 3121.88 1445.54 3136.32 1436.62C3150.61 1427.79 3170.98 1422 3194 1422C3217.02 1422 3237.39 1427.79 3251.68 1436.62C3266.12 1445.54 3273 1456.56 3273 1467Z" fill="#E9CBA3" stroke="black" stroke-width="20"/>
<rect x="2913" y="1403" width="398" height="74" fill="#E9CBA3"/>
<path d="M3048.5 1467.5C3048.5 1481.1 3089.17 1479.5 3109.5 1477C3129.83 1479.5 3170.5 1481.1 3170.5 1467.5C3170.5 1450.5 3156 1428 3140 1428H3079C3063 1428 3048.5 1450.5 3048.5 1467.5Z" fill="black" stroke="black"/>
<circle cx="3111.5" cy="1521.5" r="290" stroke="black" stroke-width="25"/>
<ellipse cx="3199.5" cy="1356" rx="5.5" ry="4" fill="white"/>
<ellipse cx="3199.5" cy="1356" rx="5.5" ry="4" fill="white"/>
<ellipse cx="3199.5" cy="1356" rx="5.5" ry="4" fill="white"/>
<ellipse cx="2998.5" cy="1356" rx="5.5" ry="4" fill="white"/>
<ellipse cx="2998.5" cy="1356" rx="5.5" ry="4" fill="white"/>
<ellipse cx="2998.5" cy="1356" rx="5.5" ry="4" fill="white"/>
</g>
<defs>
<clipPath id="clip0">
<rect width="4328" height="2028" fill="white"/>
</clipPath>
</defs>
</svg>
