<svg width="40" height="34" viewBox="0 0 40 34" fill="none" xmlns="http://www.w3.org/2000/svg">
<path d="M24.4313 19.1722C24.4313 18.1843 24.2875 17.2308 24.2875 16.2461C24.2875 16.0394 24.1444 15.022 24.3195 14.8634C24.8228 14.4075 27.6602 16.801 27.9941 17.4358C28.4881 18.3748 28.8897 17.982 29.7516 17.5483C30.5785 17.1322 31.4708 17.5181 32.3078 17.2589C32.7332 17.1272 33.0587 17.2658 33.0587 16.7445C33.0587 16.2357 32.9149 15.7991 32.9149 15.2975C32.9149 14.783 32.9149 14.2685 32.9149 13.7541C32.9149 13.4285 32.9948 13.1957 33.0507 12.8859C33.0969 12.6303 33.0257 12.8068 33.2025 12.918C34.1804 13.5331 34.8207 14.9819 35.615 15.812C36.1728 16.3949 36.3995 17.2654 37.0849 17.7252" stroke="#9F8EF6" stroke-width="1.2" stroke-linecap="round" stroke-linejoin="round"/>
<path d="M24.7188 21.1986C24.7188 22.2358 24.857 24.0739 25.5495 24.8482C26.0213 25.3757 26.089 25.4674 26.0129 26.1183C25.9457 26.6926 25.4768 26.8866 25.222 27.3482C24.5171 28.625 25.0732 30.56 26.0448 31.4399C26.1777 31.5603 26.6087 31.4905 26.7957 31.5846C27.0532 31.7142 27.4868 31.8842 27.7703 31.9062C28.4063 31.9554 29.0164 32.0509 29.6795 32.0509C30.691 32.0509 31.7058 30.5248 32.2597 29.8081C32.6727 29.2738 32.95 28.8479 33.5618 28.5058C34.2166 28.1397 34.8647 27.8246 35.503 27.4527C36.2617 27.0107 37.3466 26.3522 37.7717 25.5395C38.1671 24.7835 38.3064 24.0343 38.5945 23.2806C38.9167 22.4376 38.8658 21.1249 38.6744 20.2581C38.6016 19.9285 38.1881 18.8598 37.9474 18.7388" stroke="#9F8EF6" stroke-width="1.2" stroke-linecap="round" stroke-linejoin="round"/>
<path d="M32.4824 22.3553C32.6401 21.8693 32.9083 20.0751 33.489 19.783C33.5363 19.7591 34.8398 21.5138 34.9269 21.7766" stroke="#9F8EF6" stroke-width="1.2" stroke-linecap="round" stroke-linejoin="round"/>
<path d="M29.1761 22.9343C29.1281 22.8844 27.833 21.1877 27.6264 21.3748C27.281 21.6875 26.9561 22.4596 26.5879 22.6449" stroke="#9F8EF6" stroke-width="1.2" stroke-linecap="round" stroke-linejoin="round"/>
<path d="M25.7246 28.1436C26.2464 28.1436 26.784 28.1127 27.3063 28.1436C27.6775 28.1656 27.3153 28.8485 27.3063 29.0118C27.2747 29.5838 27.0671 30.8284 26.4436 31.0376" stroke="#9F8EF6" stroke-width="1.2" stroke-linecap="round" stroke-linejoin="round"/>
<path d="M6.95964 17.1281C4.92013 17.5787 5.12161 20.0689 5.8892 21.6137C6.77377 23.394 8.78783 23.0855 10.155 24.1861C10.6486 24.5836 11.463 24.6825 11.9284 25.1508C12.2177 25.4419 12.7525 25.5879 12.9669 25.9547C13.1295 26.2329 13.4097 26.5289 13.6379 26.7585C14.0378 27.161 14.1702 28.2698 14.8681 28.2698C15.9628 28.2698 16.373 28.1168 17.1368 27.2891C18.0988 26.2466 19.2908 24.2043 18.2392 22.8437C17.8249 22.3076 17.3252 21.8355 16.8492 21.3565C16.1862 20.6893 15.8196 19.5479 15.619 18.6394C15.4566 17.9038 15.5687 16.97 15.0758 16.3323C14.1527 15.138 12.612 14.3789 11.1216 14.3789C9.74314 14.3789 8.73481 15.1899 7.50285 15.649C7.05531 15.8158 6.72528 16.1757 6.52827 16.6217C6.37707 16.9641 6.24069 17.4668 6.24069 16.8388" stroke="#9F8EF6" stroke-width="1.2" stroke-linecap="round" stroke-linejoin="round"/>
<path d="M6.09711 16.6938C4.52997 16.6938 2.78994 17.48 2.78994 19.2662C2.78994 20.6439 2.86389 22.4257 2.28667 23.7036C1.81041 24.758 1.06445 25.6649 1.06445 26.8226C1.06445 27.7785 2.28041 29.1666 3.01361 29.6362C3.6354 30.0344 5.4632 29.7414 6.2409 29.8532C6.84545 29.9401 7.25922 29.8728 7.6788 29.4272C8.02643 29.0579 8.65611 28.2202 8.68533 27.6908C8.75192 26.4848 7.96435 25.3658 7.4072 24.3145C6.93981 23.4327 7.39122 22.2058 7.39122 21.3241" stroke="#9F8EF6" stroke-width="1.2" stroke-linecap="round" stroke-linejoin="round"/>
<path d="M12.1367 14.2342C12.7809 13.9812 13.5117 13.5416 14.1418 14.0172C14.5411 14.3186 14.7053 14.87 15.0844 15.1667C15.5998 15.5701 15.7315 16.9226 15.7315 17.5622" stroke="#9F8EF6" stroke-width="1.2" stroke-linecap="round" stroke-linejoin="round"/>
<path d="M15.2988 24.7969C15.2715 24.8631 14.5216 26.2149 15.0112 26.2439C15.2653 26.2589 15.9234 26.11 16.1296 26.2761C16.8983 26.8949 17.3119 25.9526 17.3119 25.3034C17.3119 24.8191 17.1535 23.4224 16.3772 23.8564C15.6971 24.2366 15.774 24.9416 14.8674 24.9416" stroke="#9F8EF6" stroke-width="1.2" stroke-linecap="round" stroke-linejoin="round"/>
<path d="M8.68945 20.9514C8.96519 19.7182 9.60933 19.7939 10.7025 19.7939" stroke="#9F8EF6" stroke-width="1.2" stroke-linecap="round" stroke-linejoin="round"/>
<path d="M12.1367 19.1538C12.9092 18.3521 13.0796 18.2856 14.1498 18.2856" stroke="#9F8EF6" stroke-width="1.2" stroke-linecap="round" stroke-linejoin="round"/>
<path d="M29.2832 32.2708C29.4215 32.4437 29.6855 33.1492 29.9898 33.0812C30.1442 33.0467 30.3033 32.6901 30.3331 32.5552C30.378 32.3518 30.4542 32.1987 30.4542 31.9863" stroke="#9F8EF6" stroke-width="1.2" stroke-linecap="round" stroke-linejoin="round"/>
<path d="M26.1504 31.8887C26.1504 32.1119 26.1671 32.3025 26.3119 32.4756C26.3574 32.53 26.5523 32.9019 26.6529 32.8007C26.7453 32.7077 26.8131 32.5085 26.8996 32.3966C26.963 32.3147 26.9525 32.1352 27.0387 32.0918" stroke="#9F8EF6" stroke-width="1.2" stroke-linecap="round" stroke-linejoin="round"/>
<path d="M22.5137 5.1222C22.6248 5.06423 22.7181 4.99135 22.8197 4.92115C22.8635 4.89089 22.9102 4.84504 22.9561 4.82062C23.0672 4.76143 23.185 4.70286 23.2907 4.63393C23.4297 4.54323 23.609 4.42109 23.7775 4.40494C23.9947 4.38413 24.1934 4.40829 24.3911 4.49749C24.5019 4.54746 24.61 4.58873 24.7098 4.65946C24.7864 4.71365 24.8776 4.79762 24.9612 4.83498C24.9945 4.8499 25.0281 4.87197 25.0397 4.90679" stroke="#9F8EF6" stroke-width="1.2" stroke-linecap="round" stroke-linejoin="round"/>
<path d="M20.0461 5.05015C19.6365 4.98257 19.3339 4.67512 18.9758 4.49006C18.797 4.39769 18.6429 4.4039 18.4414 4.4039C18.3005 4.4039 18.1795 4.50233 18.0616 4.56905C17.9562 4.62872 17.8565 4.69736 17.7516 4.75973C17.6715 4.8074 17.5794 4.85105 17.5059 4.90654" stroke="#9F8EF6" stroke-width="1.2" stroke-linecap="round" stroke-linejoin="round"/>
<path d="M20.3044 6.23754C20.1568 6.27012 20.0469 6.40498 19.9547 6.51838C19.9035 6.58136 19.8839 6.6685 19.8302 6.72901C19.794 6.76984 19.7444 6.83615 19.7343 6.89177C19.7219 6.96037 19.6767 7.26393 19.7399 7.30026C19.7884 7.32815 19.8236 7.39045 19.8762 7.41834C19.9658 7.46576 20.0901 7.49874 20.1894 7.52206C20.4255 7.5775 20.6889 7.55876 20.9307 7.55876C21.2002 7.55876 21.4729 7.57312 21.7442 7.57312C21.9523 7.57312 22.1522 7.48696 22.3594 7.48696C22.4687 7.48696 22.7119 7.4818 22.759 7.35132C22.8488 7.10272 22.7169 6.90539 22.6337 6.67954C22.5352 6.41179 22.2661 6.2729 22.0137 6.19126C21.6966 6.08867 21.3406 6.18009 21.0179 6.18009C20.8653 6.18009 20.7136 6.20881 20.5612 6.20881C20.4611 6.20881 20.3722 6.2519 20.2758 6.2519" stroke="#9F8EF6" stroke-width="1.2" stroke-linecap="round" stroke-linejoin="round"/>
<path d="M20.8564 7.59063C20.7025 7.70123 20.4952 7.77943 20.3576 7.90399C20.286 7.96885 20.175 7.96905 20.1022 8.03129C20.0622 8.06554 19.9472 8.11336 19.893 8.11942C19.6859 8.14257 19.5019 8.25162 19.2848 8.25162C19.0639 8.25162 18.8461 8.27365 18.6231 8.27365C18.2798 8.27365 17.8631 8.24796 17.5673 8.05332C17.4107 7.95031 17.2315 7.86643 17.1075 7.72773C17.0331 7.64461 16.8981 7.57802 16.8496 7.48047" stroke="#9F8EF6" stroke-width="1.2" stroke-linecap="round" stroke-linejoin="round"/>
<path d="M21.4922 7.63476C21.6295 7.77292 21.7609 7.95335 21.9739 7.96525C22.1795 7.97675 22.376 8.08628 22.5869 8.09745C22.7713 8.10721 22.9424 8.21948 23.1343 8.22964C23.2357 8.23502 23.336 8.29273 23.4408 8.29574C23.5392 8.29857 23.638 8.29574 23.7364 8.29574C23.8824 8.29574 24.0283 8.29574 24.1743 8.29574C24.2716 8.29574 24.3535 8.24201 24.448 8.22842C24.5291 8.21676 24.6355 8.182 24.6998 8.13172C24.7829 8.06666 25.4057 7.4777 25.3676 7.4585" stroke="#9F8EF6" stroke-width="1.2" stroke-linecap="round" stroke-linejoin="round"/>
<path d="M17.748 8.2738C17.7545 8.54534 18.0113 8.80928 18.175 9.01068C18.2719 9.12986 18.4063 9.20991 18.5034 9.33015C18.5985 9.44788 18.7775 9.54823 18.9085 9.61781C19.3805 9.86849 19.9328 9.96522 20.4508 10.0695C20.724 10.1245 21.019 10.1025 21.2962 10.1025C21.55 10.1025 21.8208 10.0612 22.0662 9.99236C22.5183 9.86556 23.0016 9.86731 23.4516 9.72797C23.7817 9.62578 24.0181 9.4031 24.2508 9.15512C24.3653 9.03312 24.4416 8.89977 24.5354 8.76342C24.5987 8.67141 24.6868 8.58298 24.7337 8.48067C24.7825 8.37416 24.8638 8.29724 24.8638 8.17466C24.8638 8.141 24.8841 8.11457 24.8857 8.07551C24.8871 8.04266 24.9295 7.78509 24.9295 7.87721" stroke="#9F8EF6" stroke-width="1.2" stroke-linecap="round" stroke-linejoin="round"/>
<path d="M16.937 1.97244C16.7362 1.8694 16.5495 1.73792 16.3568 1.61991C16.2261 1.53989 16.1064 1.4158 15.9615 1.36531C15.7495 1.29149 15.5368 1.22789 15.3156 1.20007C15.2087 1.18662 14.9953 1.16662 14.9275 1.28942C14.8858 1.36496 14.8936 1.46302 14.8667 1.54402C14.8215 1.68062 14.7594 1.81267 14.7159 1.9504C14.676 2.07657 14.6556 2.22645 14.6332 2.35679C14.603 2.5324 14.5652 2.70123 14.5395 2.87701C14.496 3.17502 14.4629 3.48312 14.4629 3.78403C14.4629 4.08119 14.4848 4.36633 14.4848 4.66044" stroke="#9F8EF6" stroke-width="1.2" stroke-linecap="round" stroke-linejoin="round"/>
<path d="M25.5215 1.97218C25.6259 1.86708 25.7641 1.79391 25.8609 1.68576C25.9197 1.61995 26.0265 1.55224 26.0689 1.47767C26.1578 1.32098 26.3539 1.13946 26.5238 1.07373C26.7615 0.981707 27.0754 0.939567 27.2621 1.16921C27.3732 1.30589 27.4237 1.48035 27.5042 1.63067C27.5887 1.78869 27.6569 1.97041 27.6891 2.14845C27.7782 2.64194 28.0744 3.0963 28.1501 3.5916C28.1784 3.7771 28.2364 3.93975 28.2364 4.1314C28.2364 4.30766 28.2364 4.48392 28.2364 4.66019" stroke="#9F8EF6" stroke-width="1.2" stroke-linecap="round" stroke-linejoin="round"/>
<path d="M17.1777 2.41465C17.4461 2.25001 17.6967 2.03279 17.9967 1.92301C18.3526 1.79279 18.712 1.64291 19.0635 1.50025C19.5529 1.30167 20.046 1.24182 20.5599 1.14398C20.7367 1.11032 20.9173 1.08936 21.0969 1.08936C21.3204 1.08936 21.5405 1.16663 21.7613 1.17486C22.4073 1.19894 22.9841 1.46594 23.6093 1.59762C23.903 1.65949 24.2043 1.6968 24.4849 1.80663C24.6217 1.86016 24.7705 1.90553 24.8991 1.97526C24.9605 2.00852 25.0316 2.02102 25.0903 2.06195C25.1241 2.08547 25.1513 2.11937 25.1859 2.13677" stroke="#9F8EF6" stroke-width="1.2" stroke-linecap="round" stroke-linejoin="round"/>
<path d="M14.407 5.21143C14.3459 5.52635 14.1545 5.85947 14.1545 6.17701C14.1545 6.65565 14.1259 7.11268 14.2779 7.57174C14.363 7.82857 14.3809 8.10589 14.4799 8.36228C14.5617 8.57372 14.6609 8.79487 14.71 9.01729C14.8379 9.59661 15.2691 10.2234 15.5966 10.7028C15.918 11.1733 16.5503 11.5006 17.0078 11.8209C17.4903 12.1586 18.0813 12.3962 18.6491 12.5549C19.695 12.8473 20.8787 12.7328 21.957 12.7328C22.3916 12.7328 22.7867 12.6521 23.256 12.5295C23.7944 12.3889 24.1045 12.3147 24.5073 12.2133C24.7184 12.1602 24.9668 12.084 25.1526 11.9705C25.3331 11.8602 25.5818 11.7003 25.7811 11.6261C26.3477 11.4149 26.5983 10.8297 26.9202 10.3669C27.3107 9.8055 27.4993 9.10786 27.7002 8.46392C27.8528 7.97473 28.0593 7.53802 28.1828 7.04095C28.3323 6.43903 28.295 5.82886 28.295 5.21143" stroke="#9F8EF6" stroke-width="1.2" stroke-linecap="round" stroke-linejoin="round"/>
<path d="M14.7051 6.01649C14.771 5.82523 14.897 5.6579 15.0392 5.51484C15.2052 5.34782 15.3269 5.12024 15.5115 4.96929C15.6749 4.83571 15.7934 4.66097 15.9796 4.55688C16.1815 4.44398 16.4522 4.40795 16.679 4.40795C16.9173 4.40795 17.2443 4.46674 17.4494 4.35067C17.6459 4.2394 17.8386 4.12009 18.0401 4.01336C18.1752 3.94179 18.3228 3.89711 18.4613 3.83515C18.5046 3.81578 18.5852 3.80087 18.6143 3.77151C18.6508 3.73487 18.6143 3.70398 18.6143 3.66297C18.6143 3.54043 18.5637 3.4319 18.5637 3.30818C18.5637 3.27504 18.517 3.16884 18.5536 3.1478C18.6348 3.10115 18.685 3.11311 18.7737 3.09689C18.9388 3.06668 19.064 3.07998 19.2126 3.16053C19.3715 3.24663 19.5601 3.23751 19.7249 3.29673C19.8574 3.34433 20.0583 3.35401 20.198 3.35401C20.353 3.35401 20.4963 3.45484 20.6448 3.47618C20.7592 3.49263 20.9592 3.55069 21.1539 3.58825" stroke="#9F8EF6" stroke-width="1.2" stroke-linecap="round" stroke-linejoin="round"/>
<path d="M21.1367 3.58284C21.4461 3.58284 21.7183 3.57555 22.0234 3.50392C22.2051 3.46127 22.4381 3.40403 22.5989 3.3079C22.8369 3.16571 23.1552 3.11198 23.4249 3.08005C23.5776 3.06197 23.8153 3.04614 23.8234 3.25698C23.8285 3.39136 23.7602 3.45896 23.6981 3.57138C23.6305 3.69397 23.5147 3.94943 23.5147 3.94943C23.5147 3.94943 23.5768 3.87488 23.6185 3.85269C23.6704 3.825 23.7326 3.83487 23.7905 3.83487C23.9468 3.83487 24.0926 3.89361 24.2383 3.94434C24.4897 4.03193 24.704 4.14685 24.939 4.2651C24.9933 4.2924 25.127 4.40766 25.1781 4.40766C25.3197 4.40766 25.4566 4.43057 25.5993 4.43057C25.7325 4.43057 25.8658 4.43057 25.999 4.43057C26.1353 4.43057 26.23 4.52996 26.3506 4.54513C26.4083 4.55239 26.5169 4.66836 26.5556 4.71697C26.5817 4.74985 26.9289 5.08482 27.0621 5.22102C27.2524 5.36472 27.4651 5.72801 27.5818 5.87211C27.6613 5.94148 28.022 6.46062 28.022 6.49117" stroke="#9F8EF6" stroke-width="1.2" stroke-linecap="round" stroke-linejoin="round"/>
<path d="M25.2391 29.0537C25.1458 29.1753 24.9148 29.4876 25.1081 29.6148C25.3967 29.8047 25.7679 29.3974 25.8834 29.1651C25.9897 28.9511 26 28.6953 26.0993 28.4767C26.1231 28.4243 26.1348 28.3688 26.1595 28.3163C26.1817 28.2692 26.2391 28.1944 26.2391 28.1436C26.2391 28.0684 26.1319 28.2482 26.0807 28.303C25.9808 28.41 25.8859 28.5198 25.7728 28.6129C25.5227 28.8188 25.3527 29.097 25.2904 29.4189C25.2784 29.4808 25.2429 29.5848 25.3188 29.6148C25.3751 29.637 25.4316 29.648 25.4922 29.6469C25.7675 29.6416 25.962 29.4124 26.1091 29.2025C26.2159 29.0499 26.2907 28.8822 26.3551 28.7082C26.3677 28.6741 26.4121 28.6046 26.4011 28.5657C26.3915 28.532 26.2869 28.5973 26.2763 28.6067C26.0763 28.7831 26.012 29.0354 25.979 29.2906C25.9578 29.4535 25.9461 29.6545 26.0259 29.8027C26.1264 29.9895 26.3707 29.9491 26.4949 29.8241C26.6227 29.6955 26.5772 29.4641 26.5772 29.3013C26.5772 29.0799 26.5772 28.8584 26.5772 28.637C26.5772 28.549 26.6176 28.3499 26.5542 28.2843C26.4159 28.1411 26.1458 28.2432 26.0276 28.352C25.8244 28.5391 25.6595 28.8361 25.5683 29.0983C25.5359 29.1916 25.5118 29.307 25.5099 29.4064C25.508 29.5101 25.5053 29.5449 25.5896 29.6112C25.6922 29.692 25.8464 29.7264 25.9719 29.7511C26.0805 29.7724 26.2201 29.7989 26.3303 29.7742C26.4351 29.7508 26.5156 29.5296 26.5259 29.4385C26.5507 29.2183 26.4469 29.0571 26.2462 28.9647C25.9887 28.8461 25.7587 28.9513 25.5427 29.1018C25.3873 29.2101 25.2545 29.3428 25.1214 29.4768C25.0792 29.5193 25.0798 29.5582 25.0798 29.6148" stroke="#9F8EF6" stroke-width="1.2" stroke-linecap="round" stroke-linejoin="round"/>
<path d="M25.7 29.8111C25.6067 29.9326 25.3758 30.2449 25.5691 30.3721C25.8577 30.562 26.2289 30.1547 26.3443 29.9224C26.4506 29.7085 26.4609 29.4526 26.5603 29.234C26.584 29.1816 26.5957 29.1262 26.6204 29.0737C26.6426 29.0265 26.7001 28.9518 26.7001 28.9009C26.7001 28.8258 26.5928 29.0055 26.5417 29.0603C26.4418 29.1673 26.3468 29.2771 26.2337 29.3702C25.9836 29.5761 25.8137 29.8544 25.7514 30.1762C25.7394 30.2382 25.7038 30.3422 25.7797 30.3721C25.836 30.3943 25.8926 30.4053 25.9532 30.4042C26.2284 30.399 26.4229 30.1697 26.57 29.9598C26.6768 29.8073 26.7517 29.6395 26.816 29.4655C26.8286 29.4314 26.8731 29.3619 26.862 29.323C26.8525 29.2893 26.7479 29.3546 26.7373 29.364C26.5372 29.5405 26.473 29.7927 26.4399 30.048C26.4188 30.2108 26.407 30.4118 26.4868 30.56C26.5873 30.7468 26.8316 30.7064 26.9558 30.5814C27.0836 30.4528 27.0381 30.2215 27.0381 30.0586C27.0381 29.8372 27.0381 29.6157 27.0381 29.3943C27.0381 29.3064 27.0785 29.1072 27.0151 29.0416C26.8768 28.8985 26.6067 29.0005 26.4886 29.1093C26.2854 29.2965 26.1204 29.5934 26.0293 29.8556C25.9968 29.9489 25.9727 30.0643 25.9709 30.1637C25.9689 30.2674 25.9662 30.3022 26.0505 30.3686C26.1531 30.4493 26.3074 30.4837 26.4328 30.5084C26.5415 30.5298 26.681 30.5562 26.7912 30.5315C26.8961 30.5081 26.9765 30.287 26.9868 30.1958C27.0117 29.9756 26.9079 29.8144 26.7072 29.722C26.4496 29.6034 26.2196 29.7087 26.0036 29.8592C25.8482 29.9674 25.7154 30.1002 25.5823 30.2341C25.5401 30.2766 25.5407 30.3156 25.5407 30.3721" stroke="#9F8EF6" stroke-width="1.2" stroke-linecap="round" stroke-linejoin="round"/>
<path d="M4.31083 17.9355C4.88334 18.5297 4.10256 18.7933 3.53012 18.7712C3.34213 18.7639 3.4042 18.5502 3.54787 18.5141C3.71703 18.4715 3.97243 18.3746 4.1192 18.5141C4.2385 18.6274 4.41125 18.6924 4.19372 18.814C3.7124 19.0831 2.77622 19.5542 2.96234 20.2353C3.08336 20.6782 3.40143 21.4066 3.95596 21.4066C4.26572 21.4066 4.1192 22.1266 4.1192 22.3458C4.1192 22.8598 4.15717 23.5623 3.8637 24.0135C3.81162 24.0935 3.17525 24.7276 3.10428 24.5491C3.01569 24.3262 3.27818 24.2887 3.43076 24.2991C3.80186 24.3246 4.18308 24.7667 4.18308 25.1348C4.18308 25.8217 2.17366 26.9693 1.96161 26.1632C1.72159 25.2508 3.50354 25.1538 3.82111 25.9382C3.95319 26.2645 3.97172 26.7817 3.91338 27.1274C3.86859 27.3928 3.61002 27.5227 3.54787 27.7416C3.39954 28.264 4.53659 28.097 4.82184 28.0916C5.19198 28.0846 5.57487 27.8199 5.84385 27.5738C5.91202 27.5114 6.4197 27.0056 6.19872 26.9988C6.05078 26.9943 5.83209 26.9609 5.68771 27.0024C5.5087 27.0539 5.47446 27.7265 5.46415 27.8666C5.4164 28.5153 5.76685 29.3634 4.99572 29.7271C4.38638 30.0146 3.72225 29.8985 3.18945 29.5343C2.91243 29.3449 2.88718 28.9528 3.09719 28.6844C3.81893 27.7618 5.25145 27.954 6.22711 27.4631C6.76041 27.1947 6.75335 26.9237 6.45777 26.4203C6.08335 25.7827 6.39361 25.199 5.49608 25.199C5.09389 25.199 4.55424 25.3243 4.24695 25.0062C3.99338 24.7437 3.99145 24.385 3.99145 24.042C3.99145 23.3083 5.34838 23.5991 5.16606 22.9671C5.03946 22.5283 4.88199 22.108 4.63021 21.728C4.43105 21.4274 4.18375 21.1559 4.05533 20.8138C3.99737 20.6594 4.05299 19.8311 3.95596 19.8032C3.76284 19.7477 3.59793 20.3377 3.55851 20.4567C3.18739 21.5771 3.02276 22.7857 2.83459 23.9456C2.69777 24.7889 1.90876 25.2032 1.95097 26.0739C1.97394 26.5479 2.26221 26.8489 2.44423 27.256C2.53579 27.4607 2.29388 27.6157 2.21712 27.7702C2.12283 27.96 2.29344 27.963 2.42649 27.963C2.8857 27.963 3.18661 27.1866 3.36688 26.856C3.63612 26.3623 3.77975 25.7686 4.09791 25.3062C4.35502 24.9325 5.06723 24.2012 5.59545 24.467C5.8478 24.594 6.22711 24.6877 6.22711 25.0205C6.22711 25.4312 5.89895 25.7304 5.85095 26.1168C5.7736 26.7395 6.13173 26.8648 6.62456 27.0631C6.9674 27.2011 6.833 27.4493 6.88006 27.763C6.90956 27.9597 7.03974 28.2589 6.7878 28.3166C6.35423 28.4157 6.0016 28.3373 5.77998 27.9202C5.45935 27.3167 5.47287 26.6088 5.20509 26.0025C5.01547 25.5732 4.84118 25.3218 4.82539 24.8134C4.79283 23.7651 4.88571 22.7203 4.88571 21.6637" stroke="#9F8EF6" stroke-width="1.2" stroke-linecap="round" stroke-linejoin="round"/>
<path d="M5.54911 17.2271C6.12162 17.8212 5.34084 18.0848 4.7684 18.0627C4.58041 18.0554 4.64248 17.8417 4.78615 17.8056C4.95531 17.763 5.21071 17.6661 5.35748 17.8056C5.47678 17.9189 5.64954 17.9839 5.43201 18.1055C4.95068 18.3746 4.0145 18.8458 4.20062 19.5268C4.32164 19.9697 4.63971 20.6981 5.19424 20.6981C5.504 20.6981 5.35748 21.4181 5.35748 21.6373C5.35748 22.1513 5.39545 22.8538 5.10198 23.305C5.0499 23.385 4.41353 24.0192 4.34256 23.8406C4.25397 23.6177 4.51646 23.5802 4.66904 23.5906C5.04014 23.6161 5.42136 24.0582 5.42136 24.4263C5.42136 25.1132 3.41194 26.2608 3.19989 25.4547C2.95987 24.5423 4.74182 24.4453 5.0594 25.2298C5.19147 25.556 5.21 26.0732 5.15166 26.4189C5.10687 26.6844 4.8483 26.8142 4.78615 27.0331C4.63782 27.5555 5.77488 27.3885 6.06012 27.3831C6.43026 27.3761 6.81315 27.1114 7.08213 26.8653C7.1503 26.8029 7.65798 26.2971 7.437 26.2904C7.28906 26.2858 7.07037 26.2524 6.92599 26.2939C6.74698 26.3454 6.71274 27.018 6.70243 27.1581C6.65468 27.8068 7.00513 28.6549 6.234 29.0186C5.62466 29.3061 4.96053 29.19 4.42773 28.8258C4.15071 28.6364 4.12547 28.2443 4.33547 27.9759C5.05722 27.0533 6.48973 27.2455 7.46539 26.7546C7.99869 26.4863 7.99163 26.2152 7.69605 25.7118C7.32163 25.0742 7.63189 24.4905 6.73437 24.4905C6.33217 24.4905 5.79252 24.6158 5.48524 24.2977C5.23166 24.0352 5.22973 23.6765 5.22973 23.3335C5.22973 22.5998 6.58666 22.8906 6.40434 22.2586C6.27774 21.8198 6.12027 21.3995 5.86849 21.0195C5.66933 20.7189 5.42203 20.4474 5.29361 20.1053C5.23565 19.9509 5.29127 19.1226 5.19424 19.0947C5.00112 19.0392 4.83621 19.6292 4.79679 19.7482C4.42567 20.8686 4.26105 22.0772 4.07287 23.2371C3.93605 24.0804 3.14704 24.4947 3.18925 25.3655C3.21222 25.8394 3.50049 26.1404 3.68251 26.5475C3.77407 26.7522 3.53216 26.9072 3.4554 27.0617C3.36111 27.2515 3.53172 27.2545 3.66477 27.2545C4.12398 27.2545 4.42489 26.4781 4.60517 26.1475C4.87441 25.6538 5.01803 25.0601 5.33619 24.5977C5.5933 24.224 6.30551 23.4927 6.83373 23.7585C7.08608 23.8855 7.46539 23.9792 7.46539 24.312C7.46539 24.7227 7.13723 25.0219 7.08923 25.4083C7.01188 26.031 7.37001 26.1563 7.86284 26.3546C8.20568 26.4926 8.07128 26.7408 8.11834 27.0546C8.14784 27.2512 8.27803 27.5504 8.02608 27.6081C7.59251 27.7072 7.23988 27.6288 7.01826 27.2117C6.69763 26.6082 6.71115 25.9003 6.44337 25.294C6.25375 24.8647 6.07946 24.6133 6.06367 24.1049C6.03112 23.0566 6.12399 22.0118 6.12399 20.9552" stroke="#9F8EF6" stroke-width="1.2" stroke-linecap="round" stroke-linejoin="round"/>
<path d="M15.2232 1.61318C15.411 1.61318 16.0247 1.59087 16.033 1.88483C16.0404 2.1445 15.8547 2.32014 15.6064 2.39796C15.4734 2.43966 15.4031 2.41895 15.4031 2.27722C15.4031 2.14385 15.5253 2.1263 15.6431 2.1263C15.7528 2.1263 15.9323 2.12629 15.9714 2.26381C15.9849 2.31167 15.3294 2.27579 15.2531 2.27722C14.8426 2.28494 14.714 2.59558 14.7866 2.96474C14.8481 3.27779 15.4178 3.47574 15.6564 3.25484C15.7511 3.16714 15.8893 2.98379 15.7914 2.85239C15.6301 2.63596 15.5483 2.82669 15.5298 2.99492C15.4942 3.31727 15.5145 3.61879 15.5231 3.93733C15.5279 4.11433 15.4835 4.29866 15.2981 4.37164C15.1865 4.4156 14.9582 4.40495 14.9249 4.25426C14.8828 4.06353 15.1233 3.88865 15.2665 3.81659C15.4931 3.70256 15.8492 3.59567 16.0863 3.73275C16.296 3.85398 16.5358 4.14547 16.7945 3.96248C17.0949 3.75005 16.9631 2.78577 16.5529 3.1274C16.5138 3.16 16.0438 3.55036 16.163 3.58854C16.4673 3.68599 16.8824 3.55719 17.1561 3.43427C17.3086 3.3658 18.0188 3.08952 17.6694 2.87084C17.3809 2.69028 17.0515 2.56811 16.7462 2.41808C16.6989 2.39485 16.5719 2.32244 16.5129 2.3443C16.4559 2.36545 16.4603 2.36619 16.4363 2.30405C16.3874 2.17752 16.3081 2.13035 16.1863 2.0827C15.6503 1.87294 17.1374 2.73379 17.6111 3.062C17.6919 3.11799 18.1895 3.45548 17.8027 3.39402C17.7181 3.38058 17.7055 2.88885 17.7727 2.8809C18.0126 2.85249 17.953 3.33679 17.8577 3.43594C17.448 3.86196 16.7544 3.79725 16.2196 3.78473C15.9824 3.77918 15.7724 3.72046 15.5431 3.67238C15.4249 3.64761 15.4091 3.79022 15.3665 3.87696C15.2544 4.10511 15.0959 4.29467 14.9765 4.51082C14.9432 4.57118 14.8804 4.57495 14.8182 4.56951C14.5681 4.54762 14.6253 3.98319 14.6299 3.83504C14.6408 3.4874 14.7431 3.15135 15.0498 2.95468C15.2646 2.81699 15.5187 2.85071 15.7614 2.85071C15.8601 2.85071 16.4229 2.80527 16.4229 2.97145" stroke="#9F8EF6" stroke-width="1.2" stroke-linecap="round" stroke-linejoin="round"/>
<path d="M15.7759 1.61172C15.9637 1.61172 16.5774 1.58941 16.5857 1.88337C16.5931 2.14304 16.4074 2.31867 16.1592 2.39649C16.0261 2.43819 15.9559 2.41749 15.9559 2.27576C15.9559 2.14238 16.078 2.12484 16.1958 2.12484C16.3055 2.12484 16.485 2.12483 16.5241 2.26234C16.5377 2.31021 15.8821 2.27432 15.8059 2.27576C15.3953 2.28348 15.2667 2.59412 15.3393 2.96328C15.4009 3.27633 15.9705 3.47427 16.2091 3.25337C16.3039 3.16568 16.442 2.98232 16.3441 2.85093C16.1828 2.63449 16.1011 2.82523 16.0825 2.99346C16.0469 3.3158 16.0673 3.61732 16.0758 3.93586C16.0806 4.11287 16.0362 4.29719 15.8509 4.37017C15.7392 4.41414 15.5109 4.40349 15.4776 4.25279C15.4355 4.06206 15.676 3.88718 15.8192 3.81513C16.0458 3.70109 16.4019 3.59421 16.6391 3.73128C16.8488 3.85251 17.0885 4.144 17.3473 3.96102C17.6477 3.74859 17.5159 2.7843 17.1056 3.12593C17.0665 3.15853 16.5965 3.5489 16.7157 3.58707C17.0201 3.68452 17.4352 3.55573 17.7089 3.4328C17.8613 3.36433 18.5715 3.08806 18.2221 2.86937C17.9336 2.68882 17.6042 2.56664 17.2989 2.41661C17.2517 2.39338 17.1246 2.32097 17.0657 2.34283C17.0086 2.36398 17.013 2.36473 16.989 2.30259C16.9401 2.17606 16.8608 2.12889 16.739 2.08124C16.203 1.87147 17.6901 2.73232 18.1638 3.06053C18.2446 3.11652 18.7422 3.45402 18.3554 3.39256C18.2708 3.37911 18.2583 2.88738 18.3254 2.87943C18.5654 2.85103 18.5058 3.33532 18.4104 3.43448C18.0007 3.8605 17.3072 3.79578 16.7724 3.78327C16.5352 3.77772 16.3252 3.719 16.0958 3.67092C15.9777 3.64614 15.9618 3.78876 15.9192 3.87549C15.8071 4.10364 15.6486 4.2932 15.5293 4.50935C15.4959 4.56971 15.4331 4.57348 15.371 4.56804C15.1208 4.54615 15.178 3.98173 15.1827 3.83357C15.1935 3.48594 15.2959 3.14988 15.6026 2.95321C15.8173 2.81552 16.0714 2.84925 16.3141 2.84925C16.4129 2.84925 16.9757 2.80381 16.9757 2.96998" stroke="#9F8EF6" stroke-width="1.2" stroke-linecap="round" stroke-linejoin="round"/>
<path d="M18.4306 1.56272C18.5376 1.56272 18.887 1.55001 18.8917 1.71755C18.8959 1.86554 18.7902 1.96565 18.6488 2.01C18.5731 2.03377 18.5331 2.02197 18.5331 1.94119C18.5331 1.86517 18.6027 1.85517 18.6697 1.85517C18.7322 1.85517 18.8344 1.85516 18.8566 1.93354C18.8643 1.96082 18.4911 1.94037 18.4477 1.94119C18.214 1.94559 18.1408 2.12264 18.1821 2.33303C18.2171 2.51146 18.5415 2.62427 18.6773 2.49838C18.7312 2.44839 18.8099 2.34389 18.7542 2.269C18.6623 2.14565 18.6158 2.25436 18.6052 2.35024C18.5849 2.53396 18.5965 2.7058 18.6014 2.88735C18.6041 2.98824 18.5789 3.09329 18.4733 3.13489C18.4098 3.15995 18.2798 3.15388 18.2608 3.06799C18.2369 2.95928 18.3738 2.85961 18.4553 2.81854C18.5843 2.75355 18.7871 2.69263 18.9221 2.77076C19.0415 2.83985 19.1779 3.00598 19.3253 2.90169C19.4963 2.78062 19.4212 2.23103 19.1877 2.42574C19.1654 2.44432 18.8978 2.66681 18.9657 2.68856C19.139 2.7441 19.3753 2.6707 19.5311 2.60064C19.6179 2.56161 20.0222 2.40415 19.8233 2.27951C19.6591 2.17661 19.4715 2.10698 19.2977 2.02147C19.2708 2.00823 19.1985 1.96696 19.1649 1.97942C19.1325 1.99147 19.135 1.9919 19.1213 1.95648C19.0935 1.88436 19.0483 1.85748 18.979 1.83032C18.6738 1.71077 19.5204 2.2014 19.7901 2.38847C19.8361 2.42038 20.1194 2.61273 19.8992 2.5777C19.851 2.57004 19.8439 2.28978 19.8821 2.28525C20.0187 2.26906 19.9848 2.54508 19.9305 2.60159C19.6973 2.8444 19.3024 2.80752 18.998 2.80038C18.8629 2.79722 18.7434 2.76375 18.6128 2.73635C18.5455 2.72223 18.5365 2.80351 18.5122 2.85295C18.4484 2.98298 18.3582 3.09102 18.2902 3.21421C18.2713 3.24862 18.2355 3.25076 18.2001 3.24766C18.0577 3.23519 18.0903 2.9135 18.0929 2.82906C18.0991 2.63092 18.1574 2.43939 18.332 2.3273C18.4542 2.24882 18.5989 2.26805 18.7371 2.26805C18.7933 2.26805 19.1137 2.24215 19.1137 2.33686" stroke="#9F8EF6" stroke-width="1.2" stroke-linecap="round" stroke-linejoin="round"/>
<path d="M24.0576 1.61155C23.9507 1.61155 23.6013 1.59883 23.5966 1.76638C23.5924 1.91437 23.6981 2.01448 23.8394 2.05883C23.9152 2.08259 23.9552 2.07079 23.9552 1.99002C23.9552 1.914 23.8856 1.904 23.8186 1.904C23.7561 1.904 23.6539 1.90399 23.6317 1.98237C23.6239 2.00965 23.9972 1.9892 24.0406 1.99002C24.2743 1.99442 24.3475 2.17146 24.3062 2.38186C24.2711 2.56029 23.9468 2.6731 23.811 2.5472C23.757 2.49722 23.6784 2.39272 23.7341 2.31783C23.826 2.19447 23.8725 2.30318 23.8831 2.39907C23.9033 2.58278 23.8917 2.75463 23.8869 2.93618C23.8842 3.03707 23.9094 3.14212 24.0149 3.18372C24.0785 3.20877 24.2085 3.2027 24.2274 3.11682C24.2514 3.00811 24.1145 2.90844 24.033 2.86737C23.9039 2.80238 23.7012 2.74146 23.5662 2.81958C23.4468 2.88868 23.3103 3.05481 23.163 2.95052C22.992 2.82945 23.067 2.27986 23.3006 2.47457C23.3229 2.49315 23.5904 2.71564 23.5226 2.73739C23.3493 2.79293 23.113 2.71953 22.9572 2.64947C22.8704 2.61044 22.466 2.45298 22.665 2.32834C22.8292 2.22544 23.0167 2.1558 23.1905 2.0703C23.2174 2.05706 23.2898 2.01579 23.3234 2.02824C23.3558 2.0403 23.3533 2.04072 23.367 2.00531C23.3948 1.93319 23.44 1.90631 23.5093 1.87915C23.8145 1.7596 22.9679 2.25023 22.6982 2.43729C22.6522 2.4692 22.3689 2.66156 22.5891 2.62653C22.6372 2.61887 22.6444 2.33861 22.6061 2.33408C22.4695 2.31789 22.5035 2.59391 22.5578 2.65042C22.791 2.89323 23.1859 2.85635 23.4903 2.84921C23.6254 2.84605 23.7449 2.81258 23.8755 2.78518C23.9428 2.77106 23.9518 2.85234 23.976 2.90178C24.0398 3.03181 24.1301 3.13985 24.198 3.26304C24.217 3.29744 24.2528 3.29959 24.2882 3.29649C24.4306 3.28402 24.398 2.96232 24.3954 2.87788C24.3892 2.67975 24.3309 2.48822 24.1563 2.37613C24.034 2.29765 23.8894 2.31687 23.7512 2.31687C23.695 2.31687 23.3746 2.29098 23.3746 2.38569" stroke="#9F8EF6" stroke-width="1.2" stroke-linecap="round" stroke-linejoin="round"/>
<path d="M19.9883 1.09846C20.1418 1.09846 20.6435 1.08022 20.6503 1.3206C20.6563 1.53295 20.5045 1.67657 20.3016 1.74021C20.1928 1.77431 20.1354 1.75738 20.1354 1.64148C20.1354 1.53241 20.2352 1.51807 20.3315 1.51807C20.4212 1.51807 20.568 1.51805 20.5999 1.63051C20.611 1.66965 20.0751 1.64031 20.0128 1.64148C19.6772 1.64779 19.572 1.90182 19.6314 2.20369C19.6817 2.45969 20.1474 2.62156 20.3424 2.44092C20.4199 2.36921 20.5328 2.21927 20.4528 2.11182C20.3209 1.93483 20.2541 2.09081 20.2389 2.22838C20.2098 2.49197 20.2265 2.73854 20.2335 2.99902C20.2373 3.14377 20.2011 3.2945 20.0496 3.35418C19.9583 3.39013 19.7716 3.38142 19.7444 3.25819C19.71 3.10222 19.9066 2.95921 20.0237 2.90029C20.2089 2.80704 20.5 2.71963 20.6939 2.83173C20.8653 2.93087 21.0613 3.16923 21.2728 3.01959C21.5184 2.84588 21.4106 2.05734 21.0753 2.33671C21.0433 2.36336 20.6591 2.68259 20.7565 2.7138C21.0053 2.79349 21.3447 2.68817 21.5684 2.58765C21.6931 2.53166 22.2736 2.30574 21.988 2.1269C21.7522 1.97926 21.4829 1.87935 21.2333 1.75666C21.1947 1.73767 21.0908 1.67845 21.0426 1.69633C20.996 1.71363 20.9996 1.71423 20.98 1.66342C20.94 1.55995 20.8752 1.52138 20.7756 1.48241C20.3374 1.31088 21.5531 2.01483 21.9403 2.28323C22.0064 2.32901 22.4132 2.605 22.097 2.55474C22.0278 2.54374 22.0175 2.14163 22.0724 2.13513C22.2686 2.1119 22.2199 2.50793 22.1419 2.58902C21.807 2.9374 21.24 2.88447 20.8029 2.87424C20.609 2.8697 20.4373 2.82168 20.2498 2.78237C20.1532 2.76211 20.1402 2.87873 20.1054 2.94966C20.0138 3.13623 19.8842 3.29124 19.7867 3.46799C19.7594 3.51735 19.708 3.52043 19.6572 3.51599C19.4528 3.49809 19.4995 3.03653 19.5033 2.91538C19.5122 2.6311 19.5958 2.35629 19.8466 2.19547C20.0221 2.08287 20.2299 2.11045 20.4283 2.11045C20.509 2.11045 20.9691 2.07329 20.9691 2.20918" stroke="#9F8EF6" stroke-width="1.2" stroke-linecap="round" stroke-linejoin="round"/>
<path d="M22.3535 1.09846C22.2 1.09846 21.6983 1.08022 21.6915 1.3206C21.6855 1.53295 21.8373 1.67657 22.0402 1.74021C22.149 1.77431 22.2064 1.75738 22.2064 1.64148C22.2064 1.53241 22.1066 1.51807 22.0103 1.51807C21.9206 1.51807 21.7738 1.51805 21.7419 1.63051C21.7308 1.66965 22.2667 1.64031 22.329 1.64148C22.6646 1.64779 22.7698 1.90182 22.7104 2.20369C22.6601 2.45969 22.1944 2.62156 21.9994 2.44092C21.9219 2.36921 21.809 2.21927 21.889 2.11182C22.0209 1.93483 22.0877 2.09081 22.1029 2.22838C22.132 2.49197 22.1153 2.73854 22.1083 2.99902C22.1045 3.14377 22.1407 3.2945 22.2922 3.35418C22.3835 3.39013 22.5702 3.38142 22.5974 3.25819C22.6318 3.10222 22.4352 2.95921 22.3181 2.90029C22.1328 2.80704 21.8418 2.71963 21.6479 2.83173C21.4765 2.93087 21.2805 3.16923 21.069 3.01959C20.8234 2.84588 20.9311 2.05734 21.2665 2.33671C21.2985 2.36336 21.6827 2.68259 21.5852 2.7138C21.3365 2.79349 20.9971 2.68817 20.7734 2.58765C20.6487 2.53166 20.0682 2.30574 20.3538 2.1269C20.5896 1.97926 20.8589 1.87935 21.1085 1.75666C21.1471 1.73767 21.251 1.67845 21.2992 1.69633C21.3458 1.71363 21.3422 1.71423 21.3618 1.66342C21.4018 1.55995 21.4666 1.52138 21.5662 1.48241C22.0044 1.31088 20.7887 2.01483 20.4015 2.28323C20.3354 2.32901 19.9286 2.605 20.2448 2.55474C20.314 2.54374 20.3243 2.14163 20.2694 2.13513C20.0732 2.1119 20.1219 2.50793 20.1999 2.58902C20.5348 2.9374 21.1018 2.88447 21.5389 2.87424C21.7328 2.8697 21.9045 2.82168 22.092 2.78237C22.1886 2.76211 22.2016 2.87873 22.2364 2.94966C22.328 3.13623 22.4576 3.29124 22.5551 3.46799C22.5824 3.51735 22.6338 3.52043 22.6846 3.51599C22.889 3.49809 22.8423 3.03653 22.8385 2.91538C22.8296 2.6311 22.7459 2.35629 22.4952 2.19547C22.3197 2.08287 22.1119 2.11045 21.9135 2.11045C21.8328 2.11045 21.3727 2.07329 21.3727 2.20918" stroke="#9F8EF6" stroke-width="1.2" stroke-linecap="round" stroke-linejoin="round"/>
<path d="M27.6362 2.10049C27.4484 2.10049 26.8347 2.07818 26.8264 2.37214C26.819 2.6318 27.0047 2.80744 27.253 2.88526C27.386 2.92696 27.4563 2.90626 27.4563 2.76453C27.4563 2.63115 27.3341 2.61361 27.2163 2.61361C27.1066 2.61361 26.9271 2.61359 26.888 2.75111C26.8744 2.79898 27.53 2.76309 27.6062 2.76453C28.0168 2.77225 28.1454 3.08289 28.0728 3.45205C28.0112 3.7651 27.4416 3.96304 27.203 3.74214C27.1082 3.65445 26.9701 3.47109 27.068 3.33969C27.2293 3.12326 27.311 3.314 27.3296 3.48223C27.3652 3.80457 27.3448 4.10609 27.3363 4.42463C27.3315 4.60164 27.3759 4.78596 27.5612 4.85894C27.6729 4.90291 27.9012 4.89226 27.9345 4.74156C27.9766 4.55083 27.7361 4.37595 27.5929 4.3039C27.3663 4.18986 27.0102 4.08297 26.773 4.22005C26.5633 4.34128 26.3236 4.63277 26.0648 4.44978C25.7644 4.23736 25.8962 3.27307 26.3065 3.6147C26.3456 3.6473 26.8156 4.03767 26.6964 4.07584C26.392 4.17329 25.977 4.0445 25.7032 3.92157C25.5508 3.8531 24.8406 3.57683 25.19 3.35814C25.4785 3.17759 25.8079 3.05541 26.1132 2.90538C26.1604 2.88215 26.2875 2.80974 26.3465 2.8316C26.4035 2.85275 26.3991 2.8535 26.4231 2.79136C26.472 2.66483 26.5513 2.61766 26.6731 2.57001C27.2091 2.36024 25.722 3.22109 25.2483 3.5493C25.1675 3.60529 24.6699 3.94279 25.0567 3.88132C25.1413 3.86788 25.1539 3.37615 25.0867 3.3682C24.8467 3.3398 24.9063 3.82409 25.0017 3.92325C25.4114 4.34927 26.1049 4.28455 26.6397 4.27204C26.8769 4.26649 27.0869 4.20777 27.3163 4.15969C27.4344 4.13491 27.4503 4.27753 27.4929 4.36426C27.605 4.59241 27.7635 4.78197 27.8828 4.99812C27.9162 5.05848 27.979 5.06225 28.0412 5.05681C28.2913 5.03492 28.2341 4.4705 28.2295 4.32234C28.2186 3.97471 28.1163 3.63865 27.8095 3.44198C27.5948 3.30429 27.3407 3.33802 27.098 3.33802C26.9993 3.33802 26.4364 3.29258 26.4364 3.45875" stroke="#9F8EF6" stroke-width="1.2" stroke-linecap="round" stroke-linejoin="round"/>
<path d="M26.8354 1.61172C26.6476 1.61172 26.0339 1.58941 26.0256 1.88337C26.0182 2.14304 26.2039 2.31867 26.4522 2.39649C26.5852 2.43819 26.6555 2.41749 26.6555 2.27576C26.6555 2.14238 26.5333 2.12484 26.4155 2.12484C26.3058 2.12484 26.1263 2.12483 26.0872 2.26234C26.0737 2.31021 26.7292 2.27432 26.8054 2.27576C27.216 2.28348 27.3446 2.59412 27.272 2.96328C27.2105 3.27633 26.6408 3.47427 26.4022 3.25337C26.3075 3.16568 26.1693 2.98232 26.2672 2.85093C26.4285 2.63449 26.5103 2.82523 26.5288 2.99346C26.5644 3.3158 26.5441 3.61732 26.5355 3.93586C26.5307 4.11287 26.5751 4.29719 26.7605 4.37017C26.8721 4.41414 27.1004 4.40349 27.1337 4.25279C27.1758 4.06206 26.9353 3.88718 26.7921 3.81513C26.5655 3.70109 26.2094 3.59421 25.9723 3.73128C25.7626 3.85251 25.5228 4.144 25.2641 3.96102C24.9637 3.74859 25.0955 2.7843 25.5057 3.12593C25.5448 3.15853 26.0148 3.5489 25.8956 3.58707C25.5913 3.68452 25.1762 3.55573 24.9025 3.4328C24.75 3.36433 24.0398 3.08806 24.3892 2.86937C24.6777 2.68882 25.0071 2.56664 25.3124 2.41661C25.3597 2.39338 25.4867 2.32097 25.5457 2.34283C25.6027 2.36398 25.5983 2.36473 25.6223 2.30259C25.6712 2.17606 25.7505 2.12889 25.8723 2.08124C26.4083 1.87147 24.9212 2.73232 24.4475 3.06053C24.3667 3.11652 23.8691 3.45402 24.2559 3.39256C24.3405 3.37911 24.3531 2.88738 24.2859 2.87943C24.046 2.85103 24.1056 3.33532 24.2009 3.43448C24.6106 3.8605 25.3042 3.79578 25.839 3.78327C26.0762 3.77772 26.2862 3.719 26.5155 3.67092C26.6337 3.64614 26.6495 3.78876 26.6921 3.87549C26.8042 4.10364 26.9627 4.2932 27.0821 4.50935C27.1154 4.56971 27.1782 4.57348 27.2404 4.56804C27.4905 4.54615 27.4333 3.98173 27.4287 3.83357C27.4178 3.48594 27.3155 3.14988 27.0087 2.95321C26.794 2.81552 26.5399 2.84925 26.2972 2.84925C26.1985 2.84925 25.6357 2.80381 25.6357 2.96998" stroke="#9F8EF6" stroke-width="1.2" stroke-linecap="round" stroke-linejoin="round"/>
</svg>
