<svg width="605" height="605" viewBox="0 0 605 605" fill="none" xmlns="http://www.w3.org/2000/svg">
  <circle cx="302.5" cy="302.5" r="302" fill="#E9CBA3" stroke="black"/>
  <path d="M428.5 285C428.5 304.634 415.59 323.585 392.225 338.016C368.978 352.374 336.391 361.5 300 361.5C263.609 361.5 231.022 352.374 207.775 338.016C184.41 323.585 171.5 304.634 171.5 285C171.5 265.366 184.41 246.415 207.775 231.984C231.022 217.626 263.609 208.5 300 208.5C336.391 208.5 368.978 217.626 392.225 231.984C415.59 246.415 428.5 265.366 428.5 285Z" fill="black" stroke="black" stroke-width="15"/>
  <path d="M254.938 312.899L263.688 292.621L286.875 276.794L300.438 258L318.812 280.751L336.312 292.621L345.062 312.899C345.208 328.396 434.95 390.065 492 396H130C187.05 390.065 254.792 328.396 254.938 312.899Z" fill="#F2A8C3" stroke="#F2A8C3" stroke-width="9"/>
  <path d="M532.909 371.158L412 360L479.9 406.104L545 410L532.909 371.158Z" fill="#E9CBA3"/>
  <path d="M207 350H31L40.4968 396.941L125 412.5L207 350Z" fill="#E9CBA3"/>
  <path d="M108 141.5C88.8 141.5 40.6667 208.167 19 241.5L68 135L153 53L298.5 15.5L398.5 35L474.5 77L550 152L580 241.5C558.333 208.167 510.2 141.5 491 141.5C471.8 141.5 430 144.833 411.5 146.5L374.5 141.5C390.5 126 417.7 94.4 398.5 92C379.3 89.6 329.5 104.333 307 112L292 112C269.5 104.333 219.7 89.6 200.5 92C181.3 94.4 208.5 126 224.5 141.5L187.5 146.5C169 144.833 127.2 141.5 108 141.5Z" fill="#C47233"/>
  <path d="M177.5 132.035C172.004 136.031 157.543 145.689 151 150.018H163.759C172.92 156.679 193.4 170 202.037 170C212.833 170 221.667 166.004 228.537 163.006C234.033 160.609 245.222 164.006 250.13 166.004L257 153.016C254.056 150.684 244.437 143.824 229.519 135.032C214.6 126.24 206.944 124.708 204.981 125.041C198.111 125.707 182.996 128.039 177.5 132.035Z" fill="black" stroke="black" stroke-width="7" stroke-linejoin="round"/>
  <path d="M426.5 132.035C431.996 136.031 446.457 145.689 453 150.018H440.241C431.08 156.679 410.6 170 401.963 170C391.167 170 382.333 166.004 375.463 163.006C369.967 160.609 358.778 164.006 353.87 166.004L347 153.016C349.944 150.684 359.563 143.824 374.481 135.032C389.4 126.24 397.056 124.708 399.019 125.041C405.889 125.707 421.004 128.039 426.5 132.035Z" fill="black" stroke="black" stroke-width="7" stroke-linejoin="round"/>
  <ellipse cx="302" cy="475.5" rx="203" ry="129.5" fill="#F2A8C3"/>
  <path d="M344 295.5C343.667 300.167 345.5 311.7 355.5 320.5C368 331.5 380.5 341.5 400 354C419.5 366.5 469 398.5 479 412C489 425.5 497.5 432.5 504 456.5C509.2 475.7 500.167 503.5 495 515" stroke="#EF5E92" stroke-width="20"/>
  <path d="M256.561 295C256.894 299.667 255.061 311.2 245.061 320C232.561 331 220.061 341 200.561 353.5C181.061 366 131.561 398 121.561 411.5C111.561 425 103.061 432 96.5605 456C91.3605 475.2 100.394 503 105.561 514.5" stroke="#EF5E92" stroke-width="20"/>
  <path d="M295.5 248C295.5 259.627 287.848 271.329 272.99 280.511C258.248 289.621 237.411 295.5 214 295.5C190.589 295.5 169.752 289.621 155.01 280.511C140.152 271.329 132.5 259.627 132.5 248C132.5 236.373 140.152 224.671 155.01 215.489C169.752 206.379 190.589 200.5 214 200.5C237.411 200.5 258.248 206.379 272.99 215.489C287.848 224.671 295.5 236.373 295.5 248Z" fill="#E9CBA3" stroke="black" stroke-width="15"/>
  <path d="M466.5 248C466.5 259.627 458.848 271.329 443.99 280.511C429.248 289.621 408.411 295.5 385 295.5C361.589 295.5 340.752 289.621 326.01 280.511C311.152 271.329 303.5 259.627 303.5 248C303.5 236.373 311.152 224.671 326.01 215.489C340.752 206.379 361.589 200.5 385 200.5C408.411 200.5 429.248 206.379 443.99 215.489C458.848 224.671 466.5 236.373 466.5 248Z" fill="#E9CBA3" stroke="black" stroke-width="15"/>
  <path d="M374.5 332.002C336 300.002 302.5 325.502 302.5 325.502C302.5 325.502 269 298.002 225 332.002" stroke="#EF5E92" stroke-width="20" stroke-linejoin="round"/>
  <path d="M388 324C349.055 295.2 303.029 309.6 303.029 309.6C303.029 309.6 253.468 295.2 212.5 324" stroke="black" stroke-width="15" stroke-linejoin="round"/>
  <path d="M298.5 253.5L366.5 308L330 303.5L302 315L272 303.5L236.5 308L298.5 253.5Z" fill="black"/>
  <rect x="104" y="184" width="398" height="74" fill="#E9CBA3"/>
  <path d="M239.5 248.5C239.5 262.1 280.167 260.5 300.5 258C320.833 260.5 361.5 262.1 361.5 248.5C361.5 231.5 347 209 331 209H270C254 209 239.5 231.5 239.5 248.5Z" fill="black" stroke="black"/>
  <circle cx="302.5" cy="302.5" r="290" stroke="black" stroke-width="25"/>
  <ellipse cx="390.5" cy="137" rx="5.5" ry="4" fill="white"/>
  <ellipse cx="390.5" cy="137" rx="5.5" ry="4" fill="white"/>
  <ellipse cx="390.5" cy="137" rx="5.5" ry="4" fill="white"/>
  <ellipse cx="189.5" cy="137" rx="5.5" ry="4" fill="white"/>
  <ellipse cx="189.5" cy="137" rx="5.5" ry="4" fill="white"/>
  <ellipse cx="189.5" cy="137" rx="5.5" ry="4" fill="white"/>
  <ellipse cx="302" cy="482.5" rx="172" ry="69.5" fill="white" fill-opacity="0.2"/>
  <path d="M388.375 456.5C388.375 407.968 349.032 368.625 300.5 368.625C251.968 368.625 212.625 407.968 212.625 456.5C212.625 505.032 251.968 544.375 300.5 544.375C349.032 544.375 388.375 505.032 388.375 456.5Z" stroke="#EF5E92" stroke-width="16"/>
  <path d="M288.817 475.389C288.817 472.574 287.952 470.255 286.221 468.433C284.49 466.578 281.606 464.922 277.567 463.464C273.529 461.974 270.388 460.599 268.144 459.34C260.676 455.2 256.942 449.072 256.942 440.956C256.942 435.458 258.561 430.936 261.798 427.392C265.035 423.848 268.465 421.843 274.01 421.181V410.25H282.664V421.181C288.24 422.009 292.551 424.46 295.596 428.535C298.641 432.576 300.163 437.843 300.163 444.335H288.529C288.529 440.161 287.615 436.882 285.788 434.497C283.994 432.079 281.542 430.87 278.433 430.87C275.356 430.87 272.952 431.731 271.221 433.454C269.49 435.176 268.625 437.644 268.625 440.857C268.625 443.739 269.474 446.058 271.173 447.813C272.904 449.536 275.821 451.175 279.923 452.732C284.026 454.289 287.247 455.73 289.587 457.055C291.926 458.38 293.898 459.904 295.5 461.626C297.103 463.315 298.337 465.27 299.202 467.489C300.067 469.708 300.5 472.309 300.5 475.29C300.5 480.888 298.833 485.426 295.5 488.904C292.199 492.382 288.192 494.485 282.263 495.115V502.75H274.01V495.115C267.663 494.386 262.776 492.034 259.346 488.059C255.949 484.084 254.25 478.818 254.25 472.259H265.933C265.933 476.433 266.942 479.662 268.962 481.948C271.013 484.233 273.897 485.376 277.615 485.376C281.269 485.376 284.042 484.465 285.933 482.643C287.856 480.822 288.817 478.404 288.817 475.389Z" fill="#EF5E92"/>
  <path d="M323.625 448.792H315.917V471.917H323.625V448.792Z" fill="#EF5E92"/>
  <path d="M339.042 441.083H331.333V479.625H339.042V441.083Z" fill="#EF5E92"/>
  <path d="M354.458 433.375H346.75V487.333H354.458V433.375Z" fill="#EF5E92"/>
</svg>
