<svg width="266" height="226" viewBox="0 0 266 226" fill="none" xmlns="http://www.w3.org/2000/svg">
<circle cx="103.5" cy="122.5" r="86.3957" transform="rotate(12.7318 103.5 122.5)" fill="#E6E3D2" stroke="#918E81" stroke-width="0.208448"/>
<ellipse cx="107" cy="146.5" rx="20" ry="13.5" fill="#C5C2B3"/>
<rect x="87" y="108" width="40" height="38" fill="#C5C2B3"/>
<path d="M163.439 156.17L130.418 145.439L146.451 162.577L164.363 167.766L163.439 156.17Z" fill="#E6E3D2"/>
<path d="M73.8697 129.73L24.7799 118.639L24.4705 132.33L47.0596 141.995L73.8697 129.73Z" fill="#E6E3D2"/>
<path d="M59.3963 65.3366C54.041 64.1266 36.4144 79.6879 28.2705 87.6198L48.6491 61.0028L77.5249 43.4881L120.471 42.198L147.134 53.939L165.685 70.4431L182.017 96.1201L184.744 122.974C180.802 112.311 171.578 90.6832 166.222 89.4732C160.867 88.2632 148.998 86.5587 143.733 85.8577L133.728 82.1314C139.168 78.8165 148.746 71.7168 143.542 69.8374C138.338 67.958 123.519 68.929 116.76 69.6494L112.577 68.7041C106.784 65.1478 93.8223 57.9 88.3158 57.3594C82.8093 56.8189 88.4045 67.3469 91.8904 72.6784L81.2553 71.7413C76.2003 70.1106 64.7515 66.5466 59.3963 65.3366Z" fill="#C5C2B3"/>
<path d="M105.549 106.986C104.755 110.498 101.674 113.395 96.8438 115.057C92.0405 116.709 85.7466 117.033 79.1286 115.537C72.5106 114.042 66.9672 111.044 63.3408 107.487C59.6941 103.91 58.1576 99.9697 58.9512 96.4574C59.7448 92.9452 62.826 90.0482 67.6565 88.3866C72.4598 86.7342 78.7537 86.4107 85.3717 87.906C91.9897 89.4013 97.5331 92.3993 101.159 95.9563C104.806 99.5333 106.343 103.474 105.549 106.986Z" fill="#E6E3D2" stroke="#918E81" stroke-width="3.12671"/>
<path d="M153.244 117.762C152.451 121.275 149.369 124.171 144.539 125.833C139.736 127.485 133.442 127.809 126.824 126.314C120.206 124.818 114.662 121.82 111.036 118.263C107.389 114.686 105.853 110.746 106.646 107.234C107.44 103.722 110.521 100.825 115.352 99.163C120.155 97.5106 126.449 97.1871 133.067 98.6824C139.685 100.178 145.228 103.176 148.855 106.733C152.501 110.31 154.038 114.25 153.244 117.762Z" fill="#E6E3D2" stroke="#918E81" stroke-width="3.12671"/>
<rect x="55.6023" y="76.9386" width="113.808" height="21.1603" transform="rotate(12.7318 55.6023 76.9386)" fill="#E6E3D2"/>
<path d="M89.3311 103.468C88.474 107.261 99.9176 109.378 105.746 109.962C111.26 111.941 122.502 114.95 123.359 111.157C124.431 106.415 121.804 99.2254 117.342 98.2171L100.327 94.3729C95.8647 93.3646 90.4024 98.7265 89.3311 103.468Z" fill="#908E81" stroke="#918E81" stroke-width="0.208448"/>
<circle cx="103.5" cy="122.5" r="82.7928" transform="rotate(12.7318 103.5 122.5)" stroke="#918E81" stroke-width="7.41428"/>
<path d="M99.1464 67.5627C97.8864 72.7721 92.642 75.9738 87.4325 74.7139C82.2231 73.4539 79.0214 68.2094 80.2814 63" stroke="#908E81" stroke-width="6"/>
<path d="M147.146 78.5627C145.886 83.7721 140.642 86.9738 135.433 85.7139C130.223 84.4539 127.021 79.2094 128.281 74" stroke="#908E81" stroke-width="6"/>
<path d="M196.844 57.7266H210.438V63H188.289V59.3867L201.844 39.8555H188.211V34.5625H210.301V38.0781L196.844 57.7266Z" fill="#908E81"/>
<path d="M227.613 39.3857H239.508V44H220.128V40.8384L231.988 23.7485H220.06V19.1172H239.388V22.1934L227.613 39.3857Z" fill="#AEAC9E"/>
<path d="M254.891 22.3086H264.406V26H248.902V23.4707L258.391 9.79883H248.848V6.09375H264.311V8.55469L254.891 22.3086Z" fill="#D7D4C3"/>
</svg>
