<svg width="42" height="37" viewBox="0 -5 42 37" fill="none" xmlns="http://www.w3.org/2000/svg">
<ellipse cx="20.9321" cy="14.1504" rx="20.3716" ry="14.1504" fill="#EF5E92"/>
<path d="M3.00426 33.9019L9.521 22.1045L13.7524 25.8272L3.00426 33.9019Z" fill="#EF5E92"/>
<path d="M13.442 10.4889L13.3496 14.2639C13.3496 15.5031 13.4689 16.4843 13.7075 17.2078C13.9769 18.0621 14.5118 18.4892 15.3122 18.4892C15.8663 18.4892 16.3397 18.0159 16.7322 17.0693C17.1324 16.1226 17.3363 14.7488 17.344 12.9479C15.9972 12.7478 15.3237 12.1744 15.3237 11.2277C15.3237 10.8814 15.4315 10.5966 15.647 10.3735C15.8702 10.1503 16.1703 10.0387 16.5475 10.0387C17.1401 10.0387 17.5826 10.2503 17.8751 10.6736C18.1752 11.0892 18.3446 11.7126 18.383 12.5438C18.7371 12.5592 19.0257 12.5669 19.2489 12.5669C19.295 12.5746 19.3181 12.6169 19.3181 12.6939C19.3181 12.7632 19.3027 12.817 19.272 12.8555C19.195 12.971 19.0103 13.0287 18.7178 13.0287H18.3715C18.3022 16.0302 17.6673 17.9005 16.4666 18.6393C16.1203 18.8471 15.7355 18.951 15.3122 18.951C14.0962 18.951 13.2419 18.266 12.7493 16.8961C12.58 17.3963 12.3491 17.8081 12.0567 18.1313C11.7642 18.4469 11.4717 18.6624 11.1793 18.7778C10.8868 18.8933 10.579 18.951 10.2557 18.951C8.53944 18.951 7.6813 17.7658 7.6813 15.3953V13.3981C7.6736 12.413 7.5851 11.728 7.41578 11.3432C7.24646 10.9584 7.00403 10.766 6.68848 10.766C5.96502 10.766 5.60329 11.4894 5.60329 12.9363C5.5879 12.9825 5.54557 13.0056 5.47631 13.0056C5.40704 13.0056 5.35316 12.9902 5.31468 12.9594C5.19924 12.8825 5.14152 12.6977 5.14152 12.4053C5.14152 11.6972 5.29159 11.1585 5.59175 10.7891C5.89191 10.4196 6.30366 10.2349 6.82701 10.2349C7.56586 10.2349 8.06612 10.4697 8.32779 10.9391C8.58947 11.4086 8.7203 12.2283 8.7203 13.3981V15.453C8.7203 16.5536 8.8396 17.3348 9.07818 17.7966C9.32447 18.2583 9.70543 18.4892 10.2211 18.4892C10.7367 18.4892 11.1369 18.2776 11.4217 17.8543C11.9835 17.0154 12.2645 14.7026 12.2645 10.916C12.2645 10.6929 12.3299 10.5197 12.4607 10.3965C12.5992 10.2734 12.7493 10.2118 12.9109 10.2118C13.0803 10.2118 13.2573 10.3042 13.442 10.4889ZM15.8548 11.1931C15.8548 11.8396 16.3474 12.2552 17.3325 12.4399C17.3094 11.7165 17.2324 11.2162 17.1016 10.9391C16.9785 10.6621 16.8053 10.5235 16.5821 10.5235C16.3666 10.5235 16.1896 10.589 16.051 10.7198C15.9202 10.8506 15.8548 11.0084 15.8548 11.1931ZM21.4613 13.2365C22.1463 13.2365 22.7043 13.4635 23.1353 13.9176C23.5663 14.3717 23.7818 14.9912 23.7818 15.7763C23.7818 16.5536 23.5778 17.2001 23.1699 17.7157C22.7697 18.2314 22.231 18.4892 21.5537 18.4892C20.8764 18.4892 20.3107 18.2583 19.8567 17.7966C19.4103 17.3271 19.1871 16.6806 19.1871 15.8571C19.1871 15.0259 19.3949 14.3832 19.8105 13.9292C20.2338 13.4674 20.7841 13.2365 21.4613 13.2365ZM21.4729 13.6867C21.2651 13.6867 21.0842 13.7406 20.9303 13.8483C20.7841 13.9484 20.711 14.0946 20.711 14.287C20.711 14.7796 20.9034 15.2529 21.2882 15.707C21.673 16.1534 22.1309 16.4497 22.662 16.5959C22.6774 16.3035 22.6851 16.0533 22.6851 15.8455C22.6851 15.0451 22.6004 14.4871 22.4311 14.1716C22.2618 13.8483 21.9424 13.6867 21.4729 13.6867ZM20.2838 15.8455C20.2838 16.6306 20.38 17.1924 20.5724 17.531C20.7725 17.8697 21.0958 18.039 21.5422 18.039C21.85 18.039 22.0848 17.962 22.2464 17.8081C22.4157 17.6465 22.5311 17.3886 22.5927 17.0346C22.0924 16.9269 21.6307 16.6998 21.2074 16.3535C20.7918 16.0072 20.4878 15.6223 20.2954 15.199C20.2877 15.3299 20.2838 15.5454 20.2838 15.8455ZM26.9066 13.2365C27.5916 13.2365 28.1496 13.4635 28.5806 13.9176C29.0116 14.3717 29.2271 14.9912 29.2271 15.7763C29.2271 16.5536 29.0231 17.2001 28.6152 17.7157C28.215 18.2314 27.6763 18.4892 26.999 18.4892C26.3217 18.4892 25.756 18.2583 25.302 17.7966C24.8556 17.3271 24.6324 16.6806 24.6324 15.8571C24.6324 15.0259 24.8402 14.3832 25.2558 13.9292C25.6791 13.4674 26.2294 13.2365 26.9066 13.2365ZM26.9182 13.6867C26.7104 13.6867 26.5295 13.7406 26.3756 13.8483C26.2294 13.9484 26.1563 14.0946 26.1563 14.287C26.1563 14.7796 26.3487 15.2529 26.7335 15.707C27.1183 16.1534 27.5762 16.4497 28.1073 16.5959C28.1227 16.3035 28.1304 16.0533 28.1304 15.8455C28.1304 15.0451 28.0457 14.4871 27.8764 14.1716C27.7071 13.8483 27.3877 13.6867 26.9182 13.6867ZM25.7291 15.8455C25.7291 16.6306 25.8253 17.1924 26.0177 17.531C26.2178 17.8697 26.5411 18.039 26.9875 18.039C27.2953 18.039 27.53 17.962 27.6917 17.8081C27.861 17.6465 27.9764 17.3886 28.038 17.0346C27.5377 16.9269 27.076 16.6998 26.6527 16.3535C26.2371 16.0072 25.9331 15.6223 25.7407 15.199C25.733 15.3299 25.7291 15.5454 25.7291 15.8455ZM32.8022 13.8022H31.059V22.6799C30.982 22.7876 30.8473 22.8415 30.6549 22.8415C30.4625 22.8415 30.3086 22.7799 30.1931 22.6568C30.0777 22.5413 30.02 22.3682 30.02 22.1373V12.0012C30.02 11.0238 30.1239 10.3042 30.3317 9.84241C30.5395 9.38063 30.9089 9.14974 31.4399 9.14974C32.2019 9.14974 32.5828 9.66539 32.5828 10.6967C32.5828 11.8819 32.1826 12.7824 31.3822 13.3981H32.4097C32.5713 13.3981 32.6752 13.4289 32.7214 13.4905C32.7752 13.552 32.8022 13.6559 32.8022 13.8022ZM32.0864 10.7082C32.0864 9.9694 31.9017 9.59997 31.5323 9.59997C31.4322 9.59997 31.3553 9.63461 31.3014 9.70388C31.2475 9.76545 31.2052 9.93092 31.1744 10.2003C31.1128 10.6621 31.0744 11.6472 31.059 13.1557C31.7439 12.6554 32.0864 11.8396 32.0864 10.7082ZM33.8097 10.7544C33.802 10.5466 33.8751 10.3812 34.029 10.258C34.183 10.1349 34.3484 10.0733 34.5255 10.0733C34.7102 10.0733 34.8987 10.1464 35.0911 10.2926L34.8718 15.7301C34.8718 15.8609 34.8218 15.9648 34.7217 16.0418C34.6217 16.1111 34.5332 16.1457 34.4562 16.1457C34.3023 16.1457 34.1637 16.1111 34.0406 16.0418L33.8097 10.7544ZM33.9482 18.293C33.8174 18.1621 33.752 18.0005 33.752 17.8081C33.752 17.6157 33.8174 17.4541 33.9482 17.3232C34.0791 17.1847 34.2407 17.1154 34.4331 17.1154C34.6255 17.1154 34.7871 17.1847 34.918 17.3232C35.0565 17.4541 35.1258 17.6157 35.1258 17.8081C35.1258 18.0005 35.0565 18.1621 34.918 18.293C34.7871 18.4238 34.6255 18.4892 34.4331 18.4892C34.2407 18.4892 34.0791 18.4238 33.9482 18.293Z" fill="#EF5E92"/>
</svg>
