<svg width="221" height="102" viewBox="0 0 221 102" fill="none" xmlns="http://www.w3.org/2000/svg">
<path d="M61.3397 10.35L60.6597 38.145C60.6597 47.2683 61.5381 54.4933 63.2947 59.82C65.2781 66.11 69.2164 69.255 75.1097 69.255C79.1897 69.255 82.6747 65.77 85.5647 58.8C88.5114 51.83 90.0131 41.715 90.0697 28.455C80.1531 26.9817 75.1947 22.76 75.1947 15.79C75.1947 13.24 75.9881 11.1433 77.5747 9.5C79.2181 7.85666 81.4281 7.035 84.2047 7.035C88.5681 7.035 91.8264 8.59333 93.9797 11.71C96.1897 14.77 97.4364 19.36 97.7197 25.48C100.326 25.5933 102.451 25.65 104.095 25.65C104.435 25.7067 104.605 26.0183 104.605 26.585C104.605 27.095 104.491 27.4917 104.265 27.775C103.698 28.625 102.338 29.05 100.185 29.05H97.6347C97.1247 51.15 92.4497 64.92 83.6097 70.36C81.0597 71.89 78.2264 72.655 75.1097 72.655C66.1564 72.655 59.8664 67.6117 56.2397 57.525C54.9931 61.2083 53.2931 64.24 51.1397 66.62C48.9864 68.9433 46.8331 70.53 44.6797 71.38C42.5264 72.23 40.2597 72.655 37.8797 72.655C25.2431 72.655 18.9247 63.9283 18.9247 46.475V31.77C18.8681 24.5167 18.2164 19.4733 16.9697 16.64C15.7231 13.8067 13.9381 12.39 11.6147 12.39C6.28806 12.39 3.62473 17.7167 3.62473 28.37C3.51139 28.71 3.19973 28.88 2.68973 28.88C2.17973 28.88 1.78306 28.7667 1.49973 28.54C0.649726 27.9733 0.224726 26.6133 0.224726 24.46C0.224726 19.2467 1.32973 15.28 3.53973 12.56C5.74973 9.84 8.78139 8.48 12.6347 8.48C18.0747 8.48 21.7581 10.2083 23.6847 13.665C25.6114 17.1217 26.5747 23.1567 26.5747 31.77V46.9C26.5747 55.0033 27.4531 60.755 29.2097 64.155C31.0231 67.555 33.8281 69.255 37.6247 69.255C41.4214 69.255 44.3681 67.6967 46.4647 64.58C50.6014 58.4033 52.6697 41.375 52.6697 13.495C52.6697 11.8517 53.1514 10.5767 54.1147 9.67C55.1347 8.76333 56.2397 8.31 57.4297 8.31C58.6764 8.31 59.9797 8.99 61.3397 10.35ZM79.1047 15.535C79.1047 20.295 82.7314 23.355 89.9847 24.715C89.8147 19.3883 89.2481 15.705 88.2847 13.665C87.3781 11.625 86.1031 10.605 84.4597 10.605C82.8731 10.605 81.5697 11.0867 80.5497 12.05C79.5864 13.0133 79.1047 14.175 79.1047 15.535ZM120.385 30.58C125.428 30.58 129.537 32.2517 132.71 35.595C135.883 38.9383 137.47 43.5 137.47 49.28C137.47 55.0033 135.968 59.7633 132.965 63.56C130.018 67.3567 126.052 69.255 121.065 69.255C116.078 69.255 111.913 67.555 108.57 64.155C105.283 60.6983 103.64 55.9383 103.64 49.875C103.64 43.755 105.17 39.0233 108.23 35.68C111.347 32.28 115.398 30.58 120.385 30.58ZM120.47 33.895C118.94 33.895 117.608 34.2917 116.475 35.085C115.398 35.8217 114.86 36.8983 114.86 38.315C114.86 41.9417 116.277 45.4267 119.11 48.77C121.943 52.0567 125.315 54.2383 129.225 55.315C129.338 53.1617 129.395 51.32 129.395 49.79C129.395 43.8967 128.772 39.7883 127.525 37.465C126.278 35.085 123.927 33.895 120.47 33.895ZM111.715 49.79C111.715 55.57 112.423 59.7067 113.84 62.2C115.313 64.6933 117.693 65.94 120.98 65.94C123.247 65.94 124.975 65.3733 126.165 64.24C127.412 63.05 128.262 61.1517 128.715 58.545C125.032 57.7517 121.632 56.08 118.515 53.53C115.455 50.98 113.217 48.1467 111.8 45.03C111.743 45.9933 111.715 47.58 111.715 49.79ZM160.478 30.58C165.521 30.58 169.629 32.2517 172.803 35.595C175.976 38.9383 177.563 43.5 177.563 49.28C177.563 55.0033 176.061 59.7633 173.058 63.56C170.111 67.3567 166.144 69.255 161.158 69.255C156.171 69.255 152.006 67.555 148.663 64.155C145.376 60.6983 143.733 55.9383 143.733 49.875C143.733 43.755 145.263 39.0233 148.323 35.68C151.439 32.28 155.491 30.58 160.478 30.58ZM160.563 33.895C159.033 33.895 157.701 34.2917 156.568 35.085C155.491 35.8217 154.953 36.8983 154.953 38.315C154.953 41.9417 156.369 45.4267 159.203 48.77C162.036 52.0567 165.408 54.2383 169.318 55.315C169.431 53.1617 169.488 51.32 169.488 49.79C169.488 43.8967 168.864 39.7883 167.618 37.465C166.371 35.085 164.019 33.895 160.563 33.895ZM151.808 49.79C151.808 55.57 152.516 59.7067 153.933 62.2C155.406 64.6933 157.786 65.94 161.073 65.94C163.339 65.94 165.068 65.3733 166.258 64.24C167.504 63.05 168.354 61.1517 168.808 58.545C165.124 57.7517 161.724 56.08 158.608 53.53C155.548 50.98 153.309 48.1467 151.893 45.03C151.836 45.9933 151.808 47.58 151.808 49.79ZM203.885 34.745H191.05V100.11C190.484 100.903 189.492 101.3 188.075 101.3C186.659 101.3 185.525 100.847 184.675 99.94C183.825 99.09 183.4 97.815 183.4 96.115V21.485C183.4 14.2883 184.165 8.99 185.695 5.59C187.225 2.19 189.945 0.489995 193.855 0.489995C199.465 0.489995 202.27 4.28666 202.27 11.88C202.27 20.6067 199.324 27.2367 193.43 31.77H200.995C202.185 31.77 202.95 31.9967 203.29 32.45C203.687 32.9033 203.885 33.6683 203.885 34.745ZM198.615 11.965C198.615 6.525 197.255 3.805 194.535 3.805C193.799 3.805 193.232 4.06 192.835 4.57C192.439 5.02333 192.127 6.24166 191.9 8.225C191.447 11.625 191.164 18.8783 191.05 29.985C196.094 26.3017 198.615 20.295 198.615 11.965ZM211.304 12.305C211.247 10.775 211.785 9.55667 212.919 8.65C214.052 7.74333 215.27 7.29 216.574 7.29C217.934 7.29 219.322 7.82833 220.739 8.905L219.124 48.94C219.124 49.9033 218.755 50.6683 218.019 51.235C217.282 51.745 216.63 52 216.064 52C214.93 52 213.91 51.745 213.004 51.235L211.304 12.305ZM212.324 67.81C211.36 66.8467 210.879 65.6567 210.879 64.24C210.879 62.8233 211.36 61.6333 212.324 60.67C213.287 59.65 214.477 59.14 215.894 59.14C217.31 59.14 218.5 59.65 219.464 60.67C220.484 61.6333 220.994 62.8233 220.994 64.24C220.994 65.6567 220.484 66.8467 219.464 67.81C218.5 68.7733 217.31 69.255 215.894 69.255C214.477 69.255 213.287 68.7733 212.324 67.81Z" fill="#C31354"/>
</svg>
